<svg width="80" height="80" viewBox="0 0 80 80" fill="none" xmlns="http://www.w3.org/2000/svg">
<path d="M0 80V63.4233H1.95122V78.0574H16.5854V80H0ZM0.0128744 16.594L0.00918785 0.00865704H16.5854V1.95988H1.95122V16.594H0.0128744ZM63.4146 80V78.0488H78.0488V63.4146H80V80H63.4146ZM63.4146 1.95041V0.00571646L80 0V16.585H78.0488V1.95041H63.4146Z" fill="#5ED1C5"/>
<path d="M42.6228 51.7156V48.4351C46.5943 47.754 49.7397 44.6085 50.4251 40.6371H53.7125C52.9714 46.4055 48.3843 50.9871 42.6228 51.7156ZM39.3688 51.7156C33.6004 50.9815 29.0188 46.4055 28.2847 40.6371H31.5764C32.2617 44.6044 35.396 47.7428 39.3688 48.4295V51.7156ZM53.7125 37.3719H50.4251C49.7397 33.4005 46.5943 30.2606 42.6228 29.5795V26.2934C48.3843 27.0219 52.9714 31.6049 53.7125 37.3719ZM31.5764 37.3719H28.2847C29.0188 31.6091 33.6004 27.0275 39.3688 26.2934V29.5795C35.396 30.2662 32.2617 33.406 31.5764 37.3719Z" fill="white"/>
<path d="M42.6229 59.0003H39.3688V40.6308H42.6229V59.0003ZM42.6229 37.3656H39.3688V18.9961H42.6229V37.3656Z" fill="white"/>
<path d="M61 40.6356H21V37.3704H61V40.6356Z" fill="white"/>
</svg>
