<svg width="1015" height="1015" viewBox="0 0 1015 1015" fill="none" xmlns="http://www.w3.org/2000/svg">
<rect x="1015" y="501" width="9" height="9" transform="rotate(90 1015 501)" fill="#5ED1C5" fill-opacity="0.4"/>
<rect x="1013" y="552" width="9" height="9" transform="rotate(95.7437 1013 552)" fill="#5ED1C5" fill-opacity="0.4"/>
<rect x="1006" y="607" width="9" height="9" transform="rotate(101.893 1006 607)" fill="#5ED1C5" fill-opacity="0.4"/>
<rect x="992" y="658" width="9" height="9" transform="rotate(107.98 992 658)" fill="#5ED1C5" fill-opacity="0.4"/>
<rect x="974" y="707" width="9" height="9" transform="rotate(113.995 974 707)" fill="#5ED1C5" fill-opacity="0.4"/>
<rect x="951" y="755" width="9" height="9" transform="rotate(119.939 951 755)" fill="#5ED1C5" fill-opacity="0.4"/>
<rect x="922" y="801" width="9" height="9" transform="rotate(126.033 922 801)" fill="#5ED1C5" fill-opacity="0.4"/>
<rect x="890" y="842" width="9" height="9" transform="rotate(131.877 890 842)" fill="#5ED1C5" fill-opacity="0.4"/>
<rect x="852" y="881" width="9" height="9" transform="rotate(137.915 852 881)" fill="#5ED1C5" fill-opacity="0.4"/>
<rect x="812" y="913" width="9" height="9" transform="rotate(143.758 812 913)" fill="#5ED1C5" fill-opacity="0.4"/>
<rect x="768" y="944" width="9" height="9" transform="rotate(149.85 768 944)" fill="#5ED1C5" fill-opacity="0.4"/>
<rect x="721" y="969" width="9" height="9" transform="rotate(155.791 721 969)" fill="#5ED1C5" fill-opacity="0.4"/>
<rect x="671" y="988" width="9" height="9" transform="rotate(161.804 671 988)" fill="#5ED1C5" fill-opacity="0.4"/>
<rect x="620" y="1003" width="9" height="9" transform="rotate(167.889 620 1003)" fill="#5ED1C5" fill-opacity="0.4"/>
<rect x="567" y="1011" width="9" height="9" transform="rotate(174.036 567 1011)" fill="#5ED1C5" fill-opacity="0.4"/>
<rect x="513" y="1015" width="9" height="9" transform="rotate(-179.779 513 1015)" fill="#5ED1C5" fill-opacity="0.4"/>
<rect x="459" y="1013" width="9" height="9" transform="rotate(-174.036 459 1013)" fill="#5ED1C5"/>
<rect x="406" y="1005" width="9" height="9" transform="rotate(-167.889 406 1005)" fill="#5ED1C5"/>
<rect x="355" y="991" width="9" height="9" transform="rotate(-161.804 355 991)" fill="#5ED1C5"/>
<rect x="305" y="974" width="9" height="9" transform="rotate(-155.791 305 974)" fill="#5ED1C5"/>
<rect x="258" y="949" width="9" height="9" transform="rotate(-149.85 258 949)" fill="#5ED1C5"/>
<rect x="214" y="921" width="9" height="9" transform="rotate(-143.758 214 921)" fill="#5ED1C5"/>
<rect x="172" y="888" width="9" height="9" transform="rotate(-137.915 172 888)" fill="#5ED1C5"/>
<rect x="134" y="850" width="9" height="9" transform="rotate(-131.877 134 850)" fill="#5ED1C5"/>
<rect x="100" y="810" width="9" height="9" transform="rotate(-125.824 100 810)" fill="#5ED1C5"/>
<rect x="71" y="766" width="9" height="9" transform="rotate(-119.939 71 766)" fill="#5ED1C5"/>
<rect x="46" y="719" width="9" height="9" transform="rotate(-113.995 46 719)" fill="#5ED1C5"/>
<rect x="26" y="669" width="9" height="9" transform="rotate(-107.764 26 669)" fill="#5ED1C5"/>
<rect x="12" y="619" width="9" height="9" transform="rotate(-101.893 12 619)" fill="#5ED1C5"/>
<rect x="4" y="565" width="9" height="9" transform="rotate(-95.7437 4 565)" fill="#5ED1C5"/>
<rect y="511" width="9" height="9" transform="rotate(-89.5577 0 511)" fill="#5ED1C5"/>
<rect x="2" y="459" width="9" height="9" transform="rotate(-83.8155 2 459)" fill="#5ED1C5"/>
<rect x="10" y="405" width="9" height="9" transform="rotate(-77.6702 10 405)" fill="#5ED1C5"/>
<rect x="24" y="354" width="9" height="9" transform="rotate(-71.5876 24 354)" fill="#5ED1C5"/>
<rect x="42" y="304" width="9" height="9" transform="rotate(-65.5779 42 304)" fill="#5ED1C5"/>
<rect x="66" y="258" width="9" height="9" transform="rotate(-59.6388 66 258)" fill="#5ED1C5"/>
<rect x="95" y="212" width="9" height="9" transform="rotate(-53.5487 95 212)" fill="#5ED1C5"/>
<rect x="127" y="172" width="9" height="9" transform="rotate(-47.7066 127 172)" fill="#5ED1C5"/>
<rect x="165" y="134" width="9" height="9" transform="rotate(-41.6685 165 134)" fill="#5ED1C5"/>
<rect x="207" y="99" width="9" height="9" transform="rotate(-35.6142 207 99)" fill="#5ED1C5"/>
<rect x="249" y="71" width="9" height="9" transform="rotate(-29.7279 249 71)" fill="#5ED1C5"/>
<rect x="295" y="46" width="9" height="9" transform="rotate(-23.7818 295 46)" fill="#5ED1C5"/>
<rect x="348" y="25" width="9" height="9" transform="rotate(-17.5479 348 25)" fill="#5ED1C5"/>
<rect x="396" y="12" width="9" height="9" transform="rotate(-11.6741 396 12)" fill="#5ED1C5"/>
<rect x="451" y="4" width="9" height="9" transform="rotate(-5.52323 451 4)" fill="#5ED1C5"/>
<rect x="506" width="9" height="9" transform="rotate(0.663504 506 0)" fill="#5ED1C5"/>
<rect x="556" y="2" width="9" height="9" transform="rotate(6.40485 556 2)" fill="#5ED1C5"/>
<rect x="611" y="11" width="9" height="9" transform="rotate(12.5483 611 11)" fill="#5ED1C5"/>
<rect x="663" y="24" width="9" height="9" transform="rotate(18.6284 663 24)" fill="#5ED1C5"/>
<rect x="712" y="43" width="9" height="9" transform="rotate(24.6354 712 43)" fill="#5ED1C5"/>
<rect x="759" y="67" width="9" height="9" transform="rotate(30.5721 759 67)" fill="#5ED1C5"/>
<rect x="804" y="96" width="9" height="9" transform="rotate(36.6605 804 96)" fill="#5ED1C5"/>
<rect x="845" y="128" width="9" height="9" transform="rotate(42.5016 845 128)" fill="#5ED1C5"/>
<rect x="883" y="167" width="9" height="9" transform="rotate(48.5398 883 167)" fill="#5ED1C5"/>
<rect x="918" y="208" width="9" height="9" transform="rotate(54.5952 918 208)" fill="#5ED1C5"/>
<rect x="946" y="251" width="9" height="9" transform="rotate(60.4833 946 251)" fill="#5ED1C5"/>
<rect x="971" y="301" width="9" height="9" transform="rotate(66.6456 971 301)" fill="#5ED1C5"/>
<rect x="990" y="350" width="9" height="9" transform="rotate(72.6685 990 350)" fill="#5ED1C5"/>
<rect x="1004" y="399" width="9" height="9" transform="rotate(78.5446 1004 399)" fill="#5ED1C5"/>
<rect x="1012" y="453" width="9" height="9" transform="rotate(84.6973 1012 453)" fill="#5ED1C5"/>
</svg>
