<svg width="2800" height="254" viewBox="0 0 2800 254" fill="none" xmlns="http://www.w3.org/2000/svg">
<rect x="-70.5" y="5.5" width="245" height="251" stroke="#5ED1C5" stroke-opacity="0.2"/>
<path d="M180 5L180 6L175 6L175 11L174 11L174 6L169 6L169 5L174 5L174 -1.71136e-08L175 -1.7113e-08L175 5H180Z" fill="#5ED1C5" fill-opacity="0.4"/>
<path d="M180 256L180 257L175 257L175 262L174 262L174 257L169 257L169 256L174 256L174 251L175 251L175 256H180Z" fill="#5ED1C5" fill-opacity="0.4"/>
<g opacity="0.25">
<rect x="17.6666" y="29" width="4" height="4" fill="#5ED1C5"/>
<rect x="82.3334" y="29" width="4" height="4" fill="#5ED1C5"/>
<rect x="147" y="29" width="4" height="4" fill="#5ED1C5"/>
<rect x="17.6666" y="79" width="4" height="4" fill="#5ED1C5"/>
<rect x="82.3334" y="79" width="4" height="4" fill="#5ED1C5"/>
<rect x="147" y="79" width="4" height="4" fill="#5ED1C5"/>
<rect x="17.6666" y="129" width="4" height="4" fill="#5ED1C5"/>
<rect x="82.3334" y="129" width="4" height="4" fill="#5ED1C5"/>
<rect x="147" y="129" width="4" height="4" fill="#5ED1C5"/>
<rect x="17.6666" y="179" width="4" height="4" fill="#5ED1C5"/>
<rect x="82.3334" y="179" width="4" height="4" fill="#5ED1C5"/>
<rect x="147" y="179" width="4" height="4" fill="#5ED1C5"/>
<rect x="17.6666" y="229" width="4" height="4" fill="#5ED1C5"/>
<rect x="82.3334" y="229" width="4" height="4" fill="#5ED1C5"/>
<rect x="147" y="229" width="4" height="4" fill="#5ED1C5"/>
</g>
<rect x="174.5" y="5.5" width="245" height="251" stroke="#5ED1C5" stroke-opacity="0.2"/>
<path d="M180 5L180 6L175 6L175 11L174 11L174 6L169 6L169 5L174 5L174 -1.71136e-08L175 -1.7113e-08L175 5H180Z" fill="#5ED1C5" fill-opacity="0.4"/>
<path d="M425 5L425 6L420 6L420 11L419 11L419 6L414 6L414 5L419 5L419 -1.71136e-08L420 -1.7113e-08L420 5H425Z" fill="#5ED1C5" fill-opacity="0.4"/>
<path d="M425 256L425 257L420 257L420 262L419 262L419 257L414 257L414 256L419 256L419 251L420 251L420 256H425Z" fill="#5ED1C5" fill-opacity="0.4"/>
<path d="M180 256L180 257L175 257L175 262L174 262L174 257L169 257L169 256L174 256L174 251L175 251L175 256H180Z" fill="#5ED1C5" fill-opacity="0.4"/>
<g opacity="0.25">
<rect x="198" y="29" width="4" height="4" fill="#5ED1C5"/>
<rect x="262.667" y="29" width="4" height="4" fill="#5ED1C5"/>
<rect x="327.333" y="29" width="4" height="4" fill="#5ED1C5"/>
<rect x="392" y="29" width="4" height="4" fill="#5ED1C5"/>
<rect x="198" y="79" width="4" height="4" fill="#5ED1C5"/>
<rect x="262.667" y="79" width="4" height="4" fill="#5ED1C5"/>
<rect x="327.333" y="79" width="4" height="4" fill="#5ED1C5"/>
<rect x="392" y="79" width="4" height="4" fill="#5ED1C5"/>
<rect x="198" y="129" width="4" height="4" fill="#5ED1C5"/>
<rect x="262.667" y="129" width="4" height="4" fill="#5ED1C5"/>
<rect x="327.333" y="129" width="4" height="4" fill="#5ED1C5"/>
<rect x="392" y="129" width="4" height="4" fill="#5ED1C5"/>
<rect x="198" y="179" width="4" height="4" fill="#5ED1C5"/>
<rect x="262.667" y="179" width="4" height="4" fill="#5ED1C5"/>
<rect x="327.333" y="179" width="4" height="4" fill="#5ED1C5"/>
<rect x="392" y="179" width="4" height="4" fill="#5ED1C5"/>
<rect x="198" y="229" width="4" height="4" fill="#5ED1C5"/>
<rect x="262.667" y="229" width="4" height="4" fill="#5ED1C5"/>
<rect x="327.333" y="229" width="4" height="4" fill="#5ED1C5"/>
<rect x="392" y="229" width="4" height="4" fill="#5ED1C5"/>
</g>
<rect x="419.5" y="5.5" width="245" height="251" stroke="#5ED1C5" stroke-opacity="0.2"/>
<path d="M425 5L425 6L420 6L420 11L419 11L419 6L414 6L414 5L419 5L419 -1.71136e-08L420 -1.7113e-08L420 5H425Z" fill="#5ED1C5" fill-opacity="0.4"/>
<path d="M670 5L670 6L665 6L665 11L664 11L664 6L659 6L659 5L664 5L664 -1.71136e-08L665 -1.7113e-08L665 5H670Z" fill="#5ED1C5" fill-opacity="0.4"/>
<path d="M670 256L670 257L665 257L665 262L664 262L664 257L659 257L659 256L664 256L664 251L665 251L665 256H670Z" fill="#5ED1C5" fill-opacity="0.4"/>
<path d="M425 256L425 257L420 257L420 262L419 262L419 257L414 257L414 256L419 256L419 251L420 251L420 256H425Z" fill="#5ED1C5" fill-opacity="0.4"/>
<g opacity="0.25">
<rect x="443" y="29" width="4" height="4" fill="#5ED1C5"/>
<rect x="507.667" y="29" width="4" height="4" fill="#5ED1C5"/>
<rect x="572.333" y="29" width="4" height="4" fill="#5ED1C5"/>
<rect x="637" y="29" width="4" height="4" fill="#5ED1C5"/>
<rect x="443" y="79" width="4" height="4" fill="#5ED1C5"/>
<rect x="507.667" y="79" width="4" height="4" fill="#5ED1C5"/>
<rect x="572.333" y="79" width="4" height="4" fill="#5ED1C5"/>
<rect x="637" y="79" width="4" height="4" fill="#5ED1C5"/>
<rect x="443" y="129" width="4" height="4" fill="#5ED1C5"/>
<rect x="507.667" y="129" width="4" height="4" fill="#5ED1C5"/>
<rect x="572.333" y="129" width="4" height="4" fill="#5ED1C5"/>
<rect x="637" y="129" width="4" height="4" fill="#5ED1C5"/>
<rect x="443" y="179" width="4" height="4" fill="#5ED1C5"/>
<rect x="507.667" y="179" width="4" height="4" fill="#5ED1C5"/>
<rect x="572.333" y="179" width="4" height="4" fill="#5ED1C5"/>
<rect x="637" y="179" width="4" height="4" fill="#5ED1C5"/>
<rect x="443" y="229" width="4" height="4" fill="#5ED1C5"/>
<rect x="507.667" y="229" width="4" height="4" fill="#5ED1C5"/>
<rect x="572.333" y="229" width="4" height="4" fill="#5ED1C5"/>
<rect x="637" y="229" width="4" height="4" fill="#5ED1C5"/>
</g>
<rect x="664.5" y="5.5" width="245" height="251" stroke="#5ED1C5" stroke-opacity="0.2"/>
<path d="M670 5L670 6L665 6L665 11L664 11L664 6L659 6L659 5L664 5L664 -1.71136e-08L665 -1.7113e-08L665 5H670Z" fill="#5ED1C5" fill-opacity="0.4"/>
<path d="M915 5L915 6L910 6L910 11L909 11L909 6L904 6L904 5L909 5L909 -1.71136e-08L910 -1.7113e-08L910 5H915Z" fill="#5ED1C5" fill-opacity="0.4"/>
<path d="M915 256L915 257L910 257L910 262L909 262L909 257L904 257L904 256L909 256L909 251L910 251L910 256H915Z" fill="#5ED1C5" fill-opacity="0.4"/>
<path d="M670 256L670 257L665 257L665 262L664 262L664 257L659 257L659 256L664 256L664 251L665 251L665 256H670Z" fill="#5ED1C5" fill-opacity="0.4"/>
<g opacity="0.25">
<rect x="688" y="29" width="4" height="4" fill="#5ED1C5"/>
<rect x="752.667" y="29" width="4" height="4" fill="#5ED1C5"/>
<rect x="817.333" y="29" width="4" height="4" fill="#5ED1C5"/>
<rect x="882" y="29" width="4" height="4" fill="#5ED1C5"/>
<rect x="688" y="79" width="4" height="4" fill="#5ED1C5"/>
<rect x="752.667" y="79" width="4" height="4" fill="#5ED1C5"/>
<rect x="817.333" y="79" width="4" height="4" fill="#5ED1C5"/>
<rect x="882" y="79" width="4" height="4" fill="#5ED1C5"/>
<rect x="688" y="129" width="4" height="4" fill="#5ED1C5"/>
<rect x="752.667" y="129" width="4" height="4" fill="#5ED1C5"/>
<rect x="817.333" y="129" width="4" height="4" fill="#5ED1C5"/>
<rect x="882" y="129" width="4" height="4" fill="#5ED1C5"/>
<rect x="688" y="179" width="4" height="4" fill="#5ED1C5"/>
<rect x="752.667" y="179" width="4" height="4" fill="#5ED1C5"/>
<rect x="817.333" y="179" width="4" height="4" fill="#5ED1C5"/>
<rect x="882" y="179" width="4" height="4" fill="#5ED1C5"/>
<rect x="688" y="229" width="4" height="4" fill="#5ED1C5"/>
<rect x="752.667" y="229" width="4" height="4" fill="#5ED1C5"/>
<rect x="817.333" y="229" width="4" height="4" fill="#5ED1C5"/>
<rect x="882" y="229" width="4" height="4" fill="#5ED1C5"/>
</g>
<rect x="909.5" y="5.5" width="245" height="251" stroke="#5ED1C5" stroke-opacity="0.2"/>
<path d="M915 5L915 6L910 6L910 11L909 11L909 6L904 6L904 5L909 5L909 -1.71136e-08L910 -1.7113e-08L910 5H915Z" fill="#5ED1C5" fill-opacity="0.4"/>
<path d="M1160 5L1160 6L1155 6L1155 11L1154 11L1154 6L1149 6L1149 5L1154 5L1154 -1.71136e-08L1155 -1.7113e-08L1155 5H1160Z" fill="#5ED1C5" fill-opacity="0.4"/>
<path d="M1160 256L1160 257L1155 257L1155 262L1154 262L1154 257L1149 257L1149 256L1154 256L1154 251L1155 251L1155 256H1160Z" fill="#5ED1C5" fill-opacity="0.4"/>
<path d="M915 256L915 257L910 257L910 262L909 262L909 257L904 257L904 256L909 256L909 251L910 251L910 256H915Z" fill="#5ED1C5" fill-opacity="0.4"/>
<g opacity="0.25">
<rect x="933" y="29" width="4" height="4" fill="#5ED1C5"/>
<rect x="997.667" y="29" width="4" height="4" fill="#5ED1C5"/>
<rect x="1062.33" y="29" width="4" height="4" fill="#5ED1C5"/>
<rect x="1127" y="29" width="4" height="4" fill="#5ED1C5"/>
<rect x="933" y="79" width="4" height="4" fill="#5ED1C5"/>
<rect x="997.667" y="79" width="4" height="4" fill="#5ED1C5"/>
<rect x="1062.33" y="79" width="4" height="4" fill="#5ED1C5"/>
<rect x="1127" y="79" width="4" height="4" fill="#5ED1C5"/>
<rect x="933" y="129" width="4" height="4" fill="#5ED1C5"/>
<rect x="997.667" y="129" width="4" height="4" fill="#5ED1C5"/>
<rect x="1062.33" y="129" width="4" height="4" fill="#5ED1C5"/>
<rect x="1127" y="129" width="4" height="4" fill="#5ED1C5"/>
<rect x="933" y="179" width="4" height="4" fill="#5ED1C5"/>
<rect x="997.667" y="179" width="4" height="4" fill="#5ED1C5"/>
<rect x="1062.33" y="179" width="4" height="4" fill="#5ED1C5"/>
<rect x="1127" y="179" width="4" height="4" fill="#5ED1C5"/>
<rect x="933" y="229" width="4" height="4" fill="#5ED1C5"/>
<rect x="997.667" y="229" width="4" height="4" fill="#5ED1C5"/>
<rect x="1062.33" y="229" width="4" height="4" fill="#5ED1C5"/>
<rect x="1127" y="229" width="4" height="4" fill="#5ED1C5"/>
</g>
<rect x="1154.5" y="5.5" width="245" height="251" stroke="#5ED1C5" stroke-opacity="0.2"/>
<path d="M1160 5L1160 6L1155 6L1155 11L1154 11L1154 6L1149 6L1149 5L1154 5L1154 -1.71136e-08L1155 -1.7113e-08L1155 5H1160Z" fill="#5ED1C5" fill-opacity="0.4"/>
<path d="M1405 5L1405 6L1400 6L1400 11L1399 11L1399 6L1394 6L1394 5L1399 5L1399 -1.71136e-08L1400 -1.7113e-08L1400 5H1405Z" fill="#5ED1C5" fill-opacity="0.4"/>
<path d="M1405 256L1405 257L1400 257L1400 262L1399 262L1399 257L1394 257L1394 256L1399 256L1399 251L1400 251L1400 256H1405Z" fill="#5ED1C5" fill-opacity="0.4"/>
<path d="M1160 256L1160 257L1155 257L1155 262L1154 262L1154 257L1149 257L1149 256L1154 256L1154 251L1155 251L1155 256H1160Z" fill="#5ED1C5" fill-opacity="0.4"/>
<g opacity="0.25">
<rect x="1178" y="29" width="4" height="4" fill="#5ED1C5"/>
<rect x="1242.67" y="29" width="4" height="4" fill="#5ED1C5"/>
<rect x="1307.33" y="29" width="4" height="4" fill="#5ED1C5"/>
<rect x="1372" y="29" width="4" height="4" fill="#5ED1C5"/>
<rect x="1178" y="79" width="4" height="4" fill="#5ED1C5"/>
<rect x="1242.67" y="79" width="4" height="4" fill="#5ED1C5"/>
<rect x="1307.33" y="79" width="4" height="4" fill="#5ED1C5"/>
<rect x="1372" y="79" width="4" height="4" fill="#5ED1C5"/>
<rect x="1178" y="129" width="4" height="4" fill="#5ED1C5"/>
<rect x="1242.67" y="129" width="4" height="4" fill="#5ED1C5"/>
<rect x="1307.33" y="129" width="4" height="4" fill="#5ED1C5"/>
<rect x="1372" y="129" width="4" height="4" fill="#5ED1C5"/>
<rect x="1178" y="179" width="4" height="4" fill="#5ED1C5"/>
<rect x="1242.67" y="179" width="4" height="4" fill="#5ED1C5"/>
<rect x="1307.33" y="179" width="4" height="4" fill="#5ED1C5"/>
<rect x="1372" y="179" width="4" height="4" fill="#5ED1C5"/>
<rect x="1178" y="229" width="4" height="4" fill="#5ED1C5"/>
<rect x="1242.67" y="229" width="4" height="4" fill="#5ED1C5"/>
<rect x="1307.33" y="229" width="4" height="4" fill="#5ED1C5"/>
<rect x="1372" y="229" width="4" height="4" fill="#5ED1C5"/>
</g>
<rect x="1399.5" y="5.5" width="245" height="251" stroke="#5ED1C5" stroke-opacity="0.2"/>
<path d="M1405 5L1405 6L1400 6L1400 11L1399 11L1399 6L1394 6L1394 5L1399 5L1399 -1.71136e-08L1400 -1.7113e-08L1400 5H1405Z" fill="#5ED1C5" fill-opacity="0.4"/>
<path d="M1650 5L1650 6L1645 6L1645 11L1644 11L1644 6L1639 6L1639 5L1644 5L1644 -1.71136e-08L1645 -1.7113e-08L1645 5H1650Z" fill="#5ED1C5" fill-opacity="0.4"/>
<path d="M1650 256L1650 257L1645 257L1645 262L1644 262L1644 257L1639 257L1639 256L1644 256L1644 251L1645 251L1645 256H1650Z" fill="#5ED1C5" fill-opacity="0.4"/>
<path d="M1405 256L1405 257L1400 257L1400 262L1399 262L1399 257L1394 257L1394 256L1399 256L1399 251L1400 251L1400 256H1405Z" fill="#5ED1C5" fill-opacity="0.4"/>
<g opacity="0.25">
<rect x="1423" y="29" width="4" height="4" fill="#5ED1C5"/>
<rect x="1487.67" y="29" width="4" height="4" fill="#5ED1C5"/>
<rect x="1552.33" y="29" width="4" height="4" fill="#5ED1C5"/>
<rect x="1617" y="29" width="4" height="4" fill="#5ED1C5"/>
<rect x="1423" y="79" width="4" height="4" fill="#5ED1C5"/>
<rect x="1487.67" y="79" width="4" height="4" fill="#5ED1C5"/>
<rect x="1552.33" y="79" width="4" height="4" fill="#5ED1C5"/>
<rect x="1617" y="79" width="4" height="4" fill="#5ED1C5"/>
<rect x="1423" y="129" width="4" height="4" fill="#5ED1C5"/>
<rect x="1487.67" y="129" width="4" height="4" fill="#5ED1C5"/>
<rect x="1552.33" y="129" width="4" height="4" fill="#5ED1C5"/>
<rect x="1617" y="129" width="4" height="4" fill="#5ED1C5"/>
<rect x="1423" y="179" width="4" height="4" fill="#5ED1C5"/>
<rect x="1487.67" y="179" width="4" height="4" fill="#5ED1C5"/>
<rect x="1552.33" y="179" width="4" height="4" fill="#5ED1C5"/>
<rect x="1617" y="179" width="4" height="4" fill="#5ED1C5"/>
<rect x="1423" y="229" width="4" height="4" fill="#5ED1C5"/>
<rect x="1487.67" y="229" width="4" height="4" fill="#5ED1C5"/>
<rect x="1552.33" y="229" width="4" height="4" fill="#5ED1C5"/>
<rect x="1617" y="229" width="4" height="4" fill="#5ED1C5"/>
</g>
<rect x="1644.5" y="5.5" width="245" height="251" stroke="#5ED1C5" stroke-opacity="0.2"/>
<path d="M1650 5L1650 6L1645 6L1645 11L1644 11L1644 6L1639 6L1639 5L1644 5L1644 -1.71136e-08L1645 -1.7113e-08L1645 5H1650Z" fill="#5ED1C5" fill-opacity="0.4"/>
<path d="M1895 5L1895 6L1890 6L1890 11L1889 11L1889 6L1884 6L1884 5L1889 5L1889 -1.71136e-08L1890 -1.7113e-08L1890 5H1895Z" fill="#5ED1C5" fill-opacity="0.4"/>
<path d="M1895 256L1895 257L1890 257L1890 262L1889 262L1889 257L1884 257L1884 256L1889 256L1889 251L1890 251L1890 256H1895Z" fill="#5ED1C5" fill-opacity="0.4"/>
<path d="M1650 256L1650 257L1645 257L1645 262L1644 262L1644 257L1639 257L1639 256L1644 256L1644 251L1645 251L1645 256H1650Z" fill="#5ED1C5" fill-opacity="0.4"/>
<g opacity="0.25">
<rect x="1668" y="29" width="4" height="4" fill="#5ED1C5"/>
<rect x="1732.67" y="29" width="4" height="4" fill="#5ED1C5"/>
<rect x="1797.33" y="29" width="4" height="4" fill="#5ED1C5"/>
<rect x="1862" y="29" width="4" height="4" fill="#5ED1C5"/>
<rect x="1668" y="79" width="4" height="4" fill="#5ED1C5"/>
<rect x="1732.67" y="79" width="4" height="4" fill="#5ED1C5"/>
<rect x="1797.33" y="79" width="4" height="4" fill="#5ED1C5"/>
<rect x="1862" y="79" width="4" height="4" fill="#5ED1C5"/>
<rect x="1668" y="129" width="4" height="4" fill="#5ED1C5"/>
<rect x="1732.67" y="129" width="4" height="4" fill="#5ED1C5"/>
<rect x="1797.33" y="129" width="4" height="4" fill="#5ED1C5"/>
<rect x="1862" y="129" width="4" height="4" fill="#5ED1C5"/>
<rect x="1668" y="179" width="4" height="4" fill="#5ED1C5"/>
<rect x="1732.67" y="179" width="4" height="4" fill="#5ED1C5"/>
<rect x="1797.33" y="179" width="4" height="4" fill="#5ED1C5"/>
<rect x="1862" y="179" width="4" height="4" fill="#5ED1C5"/>
<rect x="1668" y="229" width="4" height="4" fill="#5ED1C5"/>
<rect x="1732.67" y="229" width="4" height="4" fill="#5ED1C5"/>
<rect x="1797.33" y="229" width="4" height="4" fill="#5ED1C5"/>
<rect x="1862" y="229" width="4" height="4" fill="#5ED1C5"/>
</g>
<rect x="1889.5" y="5.5" width="245" height="251" stroke="#5ED1C5" stroke-opacity="0.2"/>
<path d="M1895 5L1895 6L1890 6L1890 11L1889 11L1889 6L1884 6L1884 5L1889 5L1889 -1.71136e-08L1890 -1.7113e-08L1890 5H1895Z" fill="#5ED1C5" fill-opacity="0.4"/>
<path d="M2140 5L2140 6L2135 6L2135 11L2134 11L2134 6L2129 6L2129 5L2134 5L2134 -1.71136e-08L2135 -1.7113e-08L2135 5H2140Z" fill="#5ED1C5" fill-opacity="0.4"/>
<path d="M2140 256L2140 257L2135 257L2135 262L2134 262L2134 257L2129 257L2129 256L2134 256L2134 251L2135 251L2135 256H2140Z" fill="#5ED1C5" fill-opacity="0.4"/>
<path d="M1895 256L1895 257L1890 257L1890 262L1889 262L1889 257L1884 257L1884 256L1889 256L1889 251L1890 251L1890 256H1895Z" fill="#5ED1C5" fill-opacity="0.4"/>
<g opacity="0.25">
<rect x="1913" y="29" width="4" height="4" fill="#5ED1C5"/>
<rect x="1977.67" y="29" width="4" height="4" fill="#5ED1C5"/>
<rect x="2042.33" y="29" width="4" height="4" fill="#5ED1C5"/>
<rect x="2107" y="29" width="4" height="4" fill="#5ED1C5"/>
<rect x="1913" y="79" width="4" height="4" fill="#5ED1C5"/>
<rect x="1977.67" y="79" width="4" height="4" fill="#5ED1C5"/>
<rect x="2042.33" y="79" width="4" height="4" fill="#5ED1C5"/>
<rect x="2107" y="79" width="4" height="4" fill="#5ED1C5"/>
<rect x="1913" y="129" width="4" height="4" fill="#5ED1C5"/>
<rect x="1977.67" y="129" width="4" height="4" fill="#5ED1C5"/>
<rect x="2042.33" y="129" width="4" height="4" fill="#5ED1C5"/>
<rect x="2107" y="129" width="4" height="4" fill="#5ED1C5"/>
<rect x="1913" y="179" width="4" height="4" fill="#5ED1C5"/>
<rect x="1977.67" y="179" width="4" height="4" fill="#5ED1C5"/>
<rect x="2042.33" y="179" width="4" height="4" fill="#5ED1C5"/>
<rect x="2107" y="179" width="4" height="4" fill="#5ED1C5"/>
<rect x="1913" y="229" width="4" height="4" fill="#5ED1C5"/>
<rect x="1977.67" y="229" width="4" height="4" fill="#5ED1C5"/>
<rect x="2042.33" y="229" width="4" height="4" fill="#5ED1C5"/>
<rect x="2107" y="229" width="4" height="4" fill="#5ED1C5"/>
</g>
<rect x="2134.5" y="5.5" width="245" height="251" stroke="#5ED1C5" stroke-opacity="0.2"/>
<path d="M2140 5L2140 6L2135 6L2135 11L2134 11L2134 6L2129 6L2129 5L2134 5L2134 -1.71136e-08L2135 -1.7113e-08L2135 5H2140Z" fill="#5ED1C5" fill-opacity="0.4"/>
<path d="M2385 5L2385 6L2380 6L2380 11L2379 11L2379 6L2374 6L2374 5L2379 5L2379 -1.71136e-08L2380 -1.7113e-08L2380 5H2385Z" fill="#5ED1C5" fill-opacity="0.4"/>
<path d="M2385 256L2385 257L2380 257L2380 262L2379 262L2379 257L2374 257L2374 256L2379 256L2379 251L2380 251L2380 256H2385Z" fill="#5ED1C5" fill-opacity="0.4"/>
<path d="M2140 256L2140 257L2135 257L2135 262L2134 262L2134 257L2129 257L2129 256L2134 256L2134 251L2135 251L2135 256H2140Z" fill="#5ED1C5" fill-opacity="0.4"/>
<g opacity="0.25">
<rect x="2158" y="29" width="4" height="4" fill="#5ED1C5"/>
<rect x="2222.67" y="29" width="4" height="4" fill="#5ED1C5"/>
<rect x="2287.33" y="29" width="4" height="4" fill="#5ED1C5"/>
<rect x="2352" y="29" width="4" height="4" fill="#5ED1C5"/>
<rect x="2158" y="79" width="4" height="4" fill="#5ED1C5"/>
<rect x="2222.67" y="79" width="4" height="4" fill="#5ED1C5"/>
<rect x="2287.33" y="79" width="4" height="4" fill="#5ED1C5"/>
<rect x="2352" y="79" width="4" height="4" fill="#5ED1C5"/>
<rect x="2158" y="129" width="4" height="4" fill="#5ED1C5"/>
<rect x="2222.67" y="129" width="4" height="4" fill="#5ED1C5"/>
<rect x="2287.33" y="129" width="4" height="4" fill="#5ED1C5"/>
<rect x="2352" y="129" width="4" height="4" fill="#5ED1C5"/>
<rect x="2158" y="179" width="4" height="4" fill="#5ED1C5"/>
<rect x="2222.67" y="179" width="4" height="4" fill="#5ED1C5"/>
<rect x="2287.33" y="179" width="4" height="4" fill="#5ED1C5"/>
<rect x="2352" y="179" width="4" height="4" fill="#5ED1C5"/>
<rect x="2158" y="229" width="4" height="4" fill="#5ED1C5"/>
<rect x="2222.67" y="229" width="4" height="4" fill="#5ED1C5"/>
<rect x="2287.33" y="229" width="4" height="4" fill="#5ED1C5"/>
<rect x="2352" y="229" width="4" height="4" fill="#5ED1C5"/>
</g>
<rect x="2379.5" y="5.5" width="245" height="251" stroke="#5ED1C5" stroke-opacity="0.2"/>
<path d="M2385 5L2385 6L2380 6L2380 11L2379 11L2379 6L2374 6L2374 5L2379 5L2379 -1.71136e-08L2380 -1.7113e-08L2380 5H2385Z" fill="#5ED1C5" fill-opacity="0.4"/>
<path d="M2630 5L2630 6L2625 6L2625 11L2624 11L2624 6L2619 6L2619 5L2624 5L2624 -1.71136e-08L2625 -1.7113e-08L2625 5H2630Z" fill="#5ED1C5" fill-opacity="0.4"/>
<path d="M2630 256L2630 257L2625 257L2625 262L2624 262L2624 257L2619 257L2619 256L2624 256L2624 251L2625 251L2625 256H2630Z" fill="#5ED1C5" fill-opacity="0.4"/>
<path d="M2385 256L2385 257L2380 257L2380 262L2379 262L2379 257L2374 257L2374 256L2379 256L2379 251L2380 251L2380 256H2385Z" fill="#5ED1C5" fill-opacity="0.4"/>
<g opacity="0.25">
<rect x="2403" y="29" width="4" height="4" fill="#5ED1C5"/>
<rect x="2467.67" y="29" width="4" height="4" fill="#5ED1C5"/>
<rect x="2532.33" y="29" width="4" height="4" fill="#5ED1C5"/>
<rect x="2597" y="29" width="4" height="4" fill="#5ED1C5"/>
<rect x="2403" y="79" width="4" height="4" fill="#5ED1C5"/>
<rect x="2467.67" y="79" width="4" height="4" fill="#5ED1C5"/>
<rect x="2532.33" y="79" width="4" height="4" fill="#5ED1C5"/>
<rect x="2597" y="79" width="4" height="4" fill="#5ED1C5"/>
<rect x="2403" y="129" width="4" height="4" fill="#5ED1C5"/>
<rect x="2467.67" y="129" width="4" height="4" fill="#5ED1C5"/>
<rect x="2532.33" y="129" width="4" height="4" fill="#5ED1C5"/>
<rect x="2597" y="129" width="4" height="4" fill="#5ED1C5"/>
<rect x="2403" y="179" width="4" height="4" fill="#5ED1C5"/>
<rect x="2467.67" y="179" width="4" height="4" fill="#5ED1C5"/>
<rect x="2532.33" y="179" width="4" height="4" fill="#5ED1C5"/>
<rect x="2597" y="179" width="4" height="4" fill="#5ED1C5"/>
<rect x="2403" y="229" width="4" height="4" fill="#5ED1C5"/>
<rect x="2467.67" y="229" width="4" height="4" fill="#5ED1C5"/>
<rect x="2532.33" y="229" width="4" height="4" fill="#5ED1C5"/>
<rect x="2597" y="229" width="4" height="4" fill="#5ED1C5"/>
</g>
<rect x="2624.5" y="5.5" width="245" height="251" stroke="#5ED1C5" stroke-opacity="0.2"/>
<path d="M2630 5L2630 6L2625 6L2625 11L2624 11L2624 6L2619 6L2619 5L2624 5L2624 -1.71136e-08L2625 -1.7113e-08L2625 5H2630Z" fill="#5ED1C5" fill-opacity="0.4"/>
<path d="M2630 256L2630 257L2625 257L2625 262L2624 262L2624 257L2619 257L2619 256L2624 256L2624 251L2625 251L2625 256H2630Z" fill="#5ED1C5" fill-opacity="0.4"/>
<g opacity="0.25">
<rect x="2648" y="29" width="4" height="4" fill="#5ED1C5"/>
<rect x="2712.67" y="29" width="4" height="4" fill="#5ED1C5"/>
<rect x="2777.33" y="29" width="4" height="4" fill="#5ED1C5"/>
<rect x="2648" y="79" width="4" height="4" fill="#5ED1C5"/>
<rect x="2712.67" y="79" width="4" height="4" fill="#5ED1C5"/>
<rect x="2777.33" y="79" width="4" height="4" fill="#5ED1C5"/>
<rect x="2648" y="129" width="4" height="4" fill="#5ED1C5"/>
<rect x="2712.67" y="129" width="4" height="4" fill="#5ED1C5"/>
<rect x="2777.33" y="129" width="4" height="4" fill="#5ED1C5"/>
<rect x="2648" y="179" width="4" height="4" fill="#5ED1C5"/>
<rect x="2712.67" y="179" width="4" height="4" fill="#5ED1C5"/>
<rect x="2777.33" y="179" width="4" height="4" fill="#5ED1C5"/>
<rect x="2648" y="229" width="4" height="4" fill="#5ED1C5"/>
<rect x="2712.67" y="229" width="4" height="4" fill="#5ED1C5"/>
<rect x="2777.33" y="229" width="4" height="4" fill="#5ED1C5"/>
</g>
</svg>
