<svg width="2800" height="1752" viewBox="0 0 2800 1752" fill="none" xmlns="http://www.w3.org/2000/svg">
<g clip-path="url(#clip0_2_32808)">
<rect width="2800" height="1752" fill="#010202"/>
<path d="M173.5 0L173.5 1752M2800 269.5H-1M2800 519.5H-1M2800 769.5H-1M2800 1019.5H-1M2800 1269.5H-1M2800 1519.5H-1M673.5 0L673.5 1752M1174.5 0L1174.5 1752M1674.5 0L1674.5 1752M2174.5 0V1752M2674.5 0V1752M424.5 0L424.5 1752M924.5 0L924.5 1752M1425.5 0L1425.5 1752M1925.5 0L1925.5 1752M2425.5 0V1752" stroke="#0B1917"/>
<path d="M173 520V525H174V520H179V519H174V514H173V519H168V520H173Z" fill="#1A3B37"/>
<path d="M173 770V775H174V770H179V769H174V764H173V769H168V770H173Z" fill="#1A3B37"/>
<path d="M173 1020V1025H174V1020H179V1019H174V1014H173V1019H168V1020H173Z" fill="#1A3B37"/>
<path d="M173 1270V1275H174V1270H179V1269H174V1264H173V1269H168V1270H173Z" fill="#1A3B37"/>
<path d="M173 1520V1525H174V1520H179V1519H174V1514H173V1519H168V1520H173Z" fill="#1A3B37"/>
<path d="M1174 270V275H1175V270H1180V269H1175V264H1174V269H1169V270H1174Z" fill="#1A3B37"/>
<path d="M1174 520V525H1175V520H1180V519H1175V514H1174V519H1169V520H1174Z" fill="#1A3B37"/>
<path d="M1174 770V775H1175V770H1180V769H1175V764H1174V769H1169V770H1174Z" fill="#1A3B37"/>
<path d="M1174 1020V1025H1175V1020H1180V1019H1175V1014H1174V1019H1169V1020H1174Z" fill="#1A3B37"/>
<path d="M1174 1270V1275H1175V1270H1180V1269H1175V1264H1174V1269H1169V1270H1174Z" fill="#1A3B37"/>
<path d="M1174 1520V1525H1175V1520H1180V1519H1175V1514H1174V1519H1169V1520H1174Z" fill="#1A3B37"/>
<path d="M2174 270V275H2175V270H2180V269H2175V264H2174V269H2169V270H2174Z" fill="#1A3B37"/>
<path d="M2174 520V525H2175V520H2180V519H2175V514H2174V519H2169V520H2174Z" fill="#1A3B37"/>
<path d="M2174 770V775H2175V770H2180V769H2175V764H2174V769H2169V770H2174Z" fill="#1A3B37"/>
<path d="M2174 1020V1025H2175V1020H2180V1019H2175V1014H2174V1019H2169V1020H2174Z" fill="#1A3B37"/>
<path d="M2174 1270V1275H2175V1270H2180V1269H2175V1264H2174V1269H2169V1270H2174Z" fill="#1A3B37"/>
<path d="M2174 1520V1525H2175V1520H2180V1519H2175V1514H2174V1519H2169V1520H2174Z" fill="#1A3B37"/>
<path d="M673 520V525H674V520H679V519H674V514H673V519H668V520H673Z" fill="#1A3B37"/>
<path d="M673 770V775H674V770H679V769H674V764H673V769H668V770H673Z" fill="#1A3B37"/>
<path d="M673 1020V1025H674V1020H679V1019H674V1014H673V1019H668V1020H673Z" fill="#1A3B37"/>
<path d="M673 1270V1275H674V1270H679V1269H674V1264H673V1269H668V1270H673Z" fill="#1A3B37"/>
<path d="M673 1520V1525H674V1520H679V1519H674V1514H673V1519H668V1520H673Z" fill="#1A3B37"/>
<path d="M1674 270V275H1675V270H1680V269H1675V264H1674V269H1669V270H1674Z" fill="#1A3B37"/>
<path d="M1674 520V525H1675V520H1680V519H1675V514H1674V519H1669V520H1674Z" fill="#1A3B37"/>
<path d="M1674 770V775H1675V770H1680V769H1675V764H1674V769H1669V770H1674Z" fill="#1A3B37"/>
<path d="M1674 1020V1025H1675V1020H1680V1019H1675V1014H1674V1019H1669V1020H1674Z" fill="#1A3B37"/>
<path d="M1674 1270V1275H1675V1270H1680V1269H1675V1264H1674V1269H1669V1270H1674Z" fill="#1A3B37"/>
<path d="M1674 1520V1525H1675V1520H1680V1519H1675V1514H1674V1519H1669V1520H1674Z" fill="#1A3B37"/>
<path d="M2674 270V275H2675V270H2680V269H2675V264H2674V269H2669V270H2674Z" fill="#1A3B37"/>
<path d="M2674 520V525H2675V520H2680V519H2675V514H2674V519H2669V520H2674Z" fill="#1A3B37"/>
<path d="M2674 770V775H2675V770H2680V769H2675V764H2674V769H2669V770H2674Z" fill="#1A3B37"/>
<path d="M2674 1020V1025H2675V1020H2680V1019H2675V1014H2674V1019H2669V1020H2674Z" fill="#1A3B37"/>
<path d="M2674 1270V1275H2675V1270H2680V1269H2675V1264H2674V1269H2669V1270H2674Z" fill="#1A3B37"/>
<path d="M2674 1520V1525H2675V1520H2680V1519H2675V1514H2674V1519H2669V1520H2674Z" fill="#1A3B37"/>
<path d="M424 520V525H425V520H430V519H425V514H424V519H419V520H424Z" fill="#1A3B37"/>
<path d="M424 770V775H425V770H430V769H425V764H424V769H419V770H424Z" fill="#1A3B37"/>
<path d="M424 1020V1025H425V1020H430V1019H425V1014H424V1019H419V1020H424Z" fill="#1A3B37"/>
<path d="M424 1270V1275H425V1270H430V1269H425V1264H424V1269H419V1270H424Z" fill="#1A3B37"/>
<path d="M424 1520V1525H425V1520H430V1519H425V1514H424V1519H419V1520H424Z" fill="#1A3B37"/>
<path d="M1425 270V275H1426V270H1431V269H1426V264H1425V269H1420V270H1425Z" fill="#1A3B37"/>
<path d="M1425 520V525H1426V520H1431V519H1426V514H1425V519H1420V520H1425Z" fill="#1A3B37"/>
<path d="M1425 770V775H1426V770H1431V769H1426V764H1425V769H1420V770H1425Z" fill="#1A3B37"/>
<path d="M1425 1020V1025H1426V1020H1431V1019H1426V1014H1425V1019H1420V1020H1425Z" fill="#1A3B37"/>
<path d="M1425 1270V1275H1426V1270H1431V1269H1426V1264H1425V1269H1420V1270H1425Z" fill="#1A3B37"/>
<path d="M1425 1520V1525H1426V1520H1431V1519H1426V1514H1425V1519H1420V1520H1425Z" fill="#1A3B37"/>
<path d="M2425 270V275H2426V270H2431V269H2426V264H2425V269H2420V270H2425Z" fill="#1A3B37"/>
<path d="M2425 520V525H2426V520H2431V519H2426V514H2425V519H2420V520H2425Z" fill="#1A3B37"/>
<path d="M2425 770V775H2426V770H2431V769H2426V764H2425V769H2420V770H2425Z" fill="#1A3B37"/>
<path d="M2425 1020V1025H2426V1020H2431V1019H2426V1014H2425V1019H2420V1020H2425Z" fill="#1A3B37"/>
<path d="M2425 1270V1275H2426V1270H2431V1269H2426V1264H2425V1269H2420V1270H2425Z" fill="#1A3B37"/>
<path d="M2425 1520V1525H2426V1520H2431V1519H2426V1514H2425V1519H2420V1520H2425Z" fill="#1A3B37"/>
<path d="M924 270V275H925V270H930V269H925V264H924V269H919V270H924Z" fill="#1A3B37"/>
<path d="M924 520V525H925V520H930V519H925V514H924V519H919V520H924Z" fill="#1A3B37"/>
<path d="M924 770V775H925V770H930V769H925V764H924V769H919V770H924Z" fill="#1A3B37"/>
<path d="M924 1020V1025H925V1020H930V1019H925V1014H924V1019H919V1020H924Z" fill="#1A3B37"/>
<path d="M924 1270V1275H925V1270H930V1269H925V1264H924V1269H919V1270H924Z" fill="#1A3B37"/>
<path d="M924 1520V1525H925V1520H930V1519H925V1514H924V1519H919V1520H924Z" fill="#1A3B37"/>
<path d="M1925 270V275H1926V270H1931V269H1926V264H1925V269H1920V270H1925Z" fill="#1A3B37"/>
<path d="M1925 520V525H1926V520H1931V519H1926V514H1925V519H1920V520H1925Z" fill="#1A3B37"/>
<path d="M1925 770V775H1926V770H1931V769H1926V764H1925V769H1920V770H1925Z" fill="#1A3B37"/>
<path d="M1925 1020V1025H1926V1020H1931V1019H1926V1014H1925V1019H1920V1020H1925Z" fill="#1A3B37"/>
<path d="M1925 1270V1275H1926V1270H1931V1269H1926V1264H1925V1269H1920V1270H1925Z" fill="#1A3B37"/>
<path d="M1925 1520V1525H1926V1520H1931V1519H1926V1514H1925V1519H1920V1520H1925Z" fill="#1A3B37"/>
<path d="M173 270V275H174V270H179V269H174V264H173V269H168V270H173Z" fill="#1A3B37"/>
<path d="M673 270V275H674V270H679V269H674V264H673V269H668V270H673Z" fill="#1A3B37"/>
<path d="M424 270V275H425V270H430V269H425V264H424V269H419V270H424Z" fill="#1A3B37"/>
</g>
<defs>
<clipPath id="clip0_2_32808">
<rect width="2800" height="1752" fill="white"/>
</clipPath>
</defs>
</svg>
