<svg width="1015" height="1015" viewBox="0 0 1015 1015" fill="none" xmlns="http://www.w3.org/2000/svg">
<g opacity="0.2">
<rect x="1015" y="501" width="9" height="9" transform="rotate(90 1015 501)" fill="#5ED1C5" fill-opacity="0.4"/>
<rect x="1013" y="552" width="9" height="9" transform="rotate(95.7437 1013 552)" fill="#5ED1C5" fill-opacity="0.4"/>
<rect x="1006" y="607" width="9" height="9" transform="rotate(101.893 1006 607)" fill="#5ED1C5" fill-opacity="0.4"/>
<rect x="992" y="658" width="9" height="9" transform="rotate(107.98 992 658)" fill="#5ED1C5" fill-opacity="0.4"/>
<rect x="974" y="707" width="9" height="9" transform="rotate(113.995 974 707)" fill="#5ED1C5" fill-opacity="0.4"/>
<rect x="951" y="755" width="9" height="9" transform="rotate(119.939 951 755)" fill="#5ED1C5" fill-opacity="0.4"/>
<rect x="922" y="801" width="9" height="9" transform="rotate(126.033 922 801)" fill="#5ED1C5" fill-opacity="0.4"/>
<rect x="890" y="842" width="9" height="9" transform="rotate(131.877 890 842)" fill="#5ED1C5" fill-opacity="0.4"/>
<rect x="852" y="881" width="9" height="9" transform="rotate(137.915 852 881)" fill="#5ED1C5" fill-opacity="0.4"/>
<rect x="812" y="913" width="9" height="9" transform="rotate(143.758 812 913)" fill="#5ED1C5" fill-opacity="0.4"/>
<rect x="768" y="944" width="9" height="9" transform="rotate(149.85 768 944)" fill="#5ED1C5" fill-opacity="0.4"/>
<rect x="721" y="969" width="9" height="9" transform="rotate(155.791 721 969)" fill="#5ED1C5" fill-opacity="0.4"/>
<rect x="671" y="988" width="9" height="9" transform="rotate(161.804 671 988)" fill="#5ED1C5" fill-opacity="0.4"/>
<rect x="620" y="1003" width="9" height="9" transform="rotate(167.889 620 1003)" fill="#5ED1C5" fill-opacity="0.4"/>
<rect x="567" y="1011" width="9" height="9" transform="rotate(174.036 567 1011)" fill="#5ED1C5" fill-opacity="0.4"/>
<rect x="513" y="1015" width="9" height="9" transform="rotate(-179.779 513 1015)" fill="#5ED1C5" fill-opacity="0.4"/>
<rect x="459" y="1013" width="9" height="9" transform="rotate(-174.036 459 1013)" fill="#5ED1C5"/>
<rect x="406" y="1005" width="9" height="9" transform="rotate(-167.889 406 1005)" fill="#5ED1C5"/>
<rect x="355" y="991" width="9" height="9" transform="rotate(-161.804 355 991)" fill="#5ED1C5"/>
<rect x="305" y="974" width="9" height="9" transform="rotate(-155.791 305 974)" fill="#5ED1C5"/>
<rect x="258" y="949" width="9" height="9" transform="rotate(-149.85 258 949)" fill="#5ED1C5"/>
<rect x="214" y="921" width="9" height="9" transform="rotate(-143.758 214 921)" fill="#5ED1C5"/>
<rect x="172" y="888" width="9" height="9" transform="rotate(-137.915 172 888)" fill="#5ED1C5"/>
<rect x="134" y="850" width="9" height="9" transform="rotate(-131.877 134 850)" fill="#5ED1C5"/>
<rect x="100" y="810" width="9" height="9" transform="rotate(-125.824 100 810)" fill="#5ED1C5"/>
<rect x="71" y="766" width="9" height="9" transform="rotate(-119.939 71 766)" fill="#5ED1C5"/>
<rect x="46" y="719" width="9" height="9" transform="rotate(-113.995 46 719)" fill="#5ED1C5"/>
<rect x="26" y="669" width="9" height="9" transform="rotate(-107.764 26 669)" fill="#5ED1C5"/>
<rect x="12" y="619" width="9" height="9" transform="rotate(-101.893 12 619)" fill="#5ED1C5"/>
<rect x="4" y="565" width="9" height="9" transform="rotate(-95.7437 4 565)" fill="#5ED1C5"/>
<rect y="511" width="9" height="9" transform="rotate(-89.5577 0 511)" fill="#5ED1C5"/>
<rect x="2" y="459" width="9" height="9" transform="rotate(-83.8155 2 459)" fill="#5ED1C5"/>
<rect x="10" y="405" width="9" height="9" transform="rotate(-77.6702 10 405)" fill="#5ED1C5"/>
<rect x="24" y="354" width="9" height="9" transform="rotate(-71.5876 24 354)" fill="#5ED1C5"/>
<rect x="42" y="304" width="9" height="9" transform="rotate(-65.5779 42 304)" fill="#5ED1C5"/>
<rect x="66" y="258" width="9" height="9" transform="rotate(-59.6388 66 258)" fill="#5ED1C5"/>
<rect x="95" y="212" width="9" height="9" transform="rotate(-53.5487 95 212)" fill="#5ED1C5"/>
<rect x="127" y="172" width="9" height="9" transform="rotate(-47.7066 127 172)" fill="#5ED1C5"/>
<rect x="165" y="134" width="9" height="9" transform="rotate(-41.6685 165 134)" fill="#5ED1C5"/>
<rect x="207" y="99" width="9" height="9" transform="rotate(-35.6142 207 99)" fill="#5ED1C5"/>
<rect x="249" y="71" width="9" height="9" transform="rotate(-29.7279 249 71)" fill="#5ED1C5"/>
<rect x="295" y="46" width="9" height="9" transform="rotate(-23.7818 295 46)" fill="#5ED1C5"/>
<rect x="348" y="25" width="9" height="9" transform="rotate(-17.5479 348 25)" fill="#5ED1C5"/>
<rect x="396" y="12" width="9" height="9" transform="rotate(-11.6741 396 12)" fill="#5ED1C5"/>
<rect x="451" y="4" width="9" height="9" transform="rotate(-5.52323 451 4)" fill="#5ED1C5"/>
<rect x="506" width="9" height="9" transform="rotate(0.663504 506 0)" fill="#5ED1C5"/>
<rect x="556" y="2" width="9" height="9" transform="rotate(6.40485 556 2)" fill="#5ED1C5"/>
<rect x="611" y="11" width="9" height="9" transform="rotate(12.5483 611 11)" fill="#5ED1C5"/>
<rect x="663" y="24" width="9" height="9" transform="rotate(18.6284 663 24)" fill="#5ED1C5"/>
<rect x="712" y="43" width="9" height="9" transform="rotate(24.6354 712 43)" fill="#5ED1C5"/>
<rect x="759" y="67" width="9" height="9" transform="rotate(30.5721 759 67)" fill="#5ED1C5"/>
<rect x="804" y="96" width="9" height="9" transform="rotate(36.6605 804 96)" fill="#5ED1C5"/>
<rect x="845" y="128" width="9" height="9" transform="rotate(42.5016 845 128)" fill="#5ED1C5"/>
<rect x="883" y="167" width="9" height="9" transform="rotate(48.5398 883 167)" fill="#5ED1C5"/>
<rect x="918" y="208" width="9" height="9" transform="rotate(54.5952 918 208)" fill="#5ED1C5"/>
<rect x="946" y="251" width="9" height="9" transform="rotate(60.4833 946 251)" fill="#5ED1C5"/>
<rect x="971" y="301" width="9" height="9" transform="rotate(66.6456 971 301)" fill="#5ED1C5"/>
<rect x="990" y="350" width="9" height="9" transform="rotate(72.6685 990 350)" fill="#5ED1C5"/>
<rect x="1004" y="399" width="9" height="9" transform="rotate(78.5446 1004 399)" fill="#5ED1C5"/>
<rect x="1012" y="453" width="9" height="9" transform="rotate(84.6973 1012 453)" fill="#5ED1C5"/>
<rect x="765" y="502" width="14" height="14" transform="rotate(90 765 502)" fill="#5ED1C5" fill-opacity="0.4"/>
<rect x="764" y="526" width="14" height="14" transform="rotate(95.0821 764 526)" fill="#5ED1C5" fill-opacity="0.4"/>
<rect x="760" y="549" width="14" height="14" transform="rotate(100.361 760 549)" fill="#5ED1C5" fill-opacity="0.4"/>
<rect x="756" y="573" width="14" height="14" transform="rotate(105.814 756 573)" fill="#5ED1C5" fill-opacity="0.4"/>
<rect x="749" y="594" width="14" height="14" transform="rotate(110.997 749 594)" fill="#5ED1C5" fill-opacity="0.4"/>
<rect x="740" y="617" width="14" height="14" transform="rotate(116.338 740 617)" fill="#5ED1C5" fill-opacity="0.4"/>
<rect x="729" y="639" width="14" height="14" transform="rotate(121.626 729 639)" fill="#5ED1C5" fill-opacity="0.4"/>
<rect x="715" y="658" width="14" height="14" transform="rotate(127.079 715 658)" fill="#5ED1C5" fill-opacity="0.4"/>
<rect x="700" y="677" width="14" height="14" transform="rotate(132.293 700 677)" fill="#5ED1C5" fill-opacity="0.4"/>
<rect x="684" y="694" width="14" height="14" transform="rotate(137.498 684 694)" fill="#5ED1C5" fill-opacity="0.4"/>
<rect x="667" y="709" width="14" height="14" transform="rotate(142.712 667 709)" fill="#5ED1C5" fill-opacity="0.4"/>
<rect x="646" y="724" width="14" height="14" transform="rotate(148.164 646 724)" fill="#5ED1C5" fill-opacity="0.4"/>
<rect x="625" y="735" width="14" height="14" transform="rotate(153.449 625 735)" fill="#5ED1C5" fill-opacity="0.4"/>
<rect x="605" y="746" width="14" height="14" transform="rotate(158.788 605 746)" fill="#5ED1C5" fill-opacity="0.4"/>
<rect x="583" y="754" width="14" height="14" transform="rotate(163.969 583 754)" fill="#5ED1C5" fill-opacity="0.4"/>
<rect x="559" y="759" width="14" height="14" transform="rotate(169.42 559 759)" fill="#5ED1C5"/>
<rect x="536" y="764" width="14" height="14" transform="rotate(174.697 536 764)" fill="#5ED1C5"/>
<rect x="511" y="765" width="14" height="14" transform="rotate(-179.779 511 765)" fill="#5ED1C5"/>
<rect x="488" y="764" width="14" height="14" transform="rotate(-174.697 488 764)" fill="#5ED1C5"/>
<rect x="464" y="760" width="14" height="14" transform="rotate(-169.42 464 760)" fill="#5ED1C5"/>
<rect x="441" y="756" width="14" height="14" transform="rotate(-163.969 441 756)" fill="#5ED1C5"/>
<rect x="418" y="749" width="14" height="14" transform="rotate(-158.788 418 749)" fill="#5ED1C5"/>
<rect x="397" y="739" width="14" height="14" transform="rotate(-153.449 397 739)" fill="#5ED1C5"/>
<rect x="376" y="729" width="14" height="14" transform="rotate(-148.164 376 729)" fill="#5ED1C5"/>
<rect x="356" y="715" width="14" height="14" transform="rotate(-142.712 356 715)" fill="#5ED1C5"/>
<rect x="336" y="700" width="14" height="14" transform="rotate(-137.498 336 700)" fill="#5ED1C5"/>
<rect x="321" y="683" width="14" height="14" transform="rotate(-132.293 321 683)" fill="#5ED1C5"/>
<rect x="305" y="665" width="14" height="14" transform="rotate(-127.079 305 665)" fill="#5ED1C5"/>
<rect x="291" y="646" width="14" height="14" transform="rotate(-121.626 291 646)" fill="#5ED1C5"/>
<rect x="280" y="625" width="14" height="14" transform="rotate(-116.338 280 625)" fill="#5ED1C5"/>
<rect x="269" y="604" width="14" height="14" transform="rotate(-110.997 269 604)" fill="#5ED1C5"/>
<rect x="261" y="582" width="14" height="14" transform="rotate(-105.814 261 582)" fill="#5ED1C5"/>
<rect x="256" y="558" width="14" height="14" transform="rotate(-100.361 256 558)" fill="#5ED1C5"/>
<rect x="251" y="534" width="14" height="14" transform="rotate(-95.0821 251 534)" fill="#5ED1C5"/>
<rect x="250" y="509" width="14" height="14" transform="rotate(-89.5577 250 509)" fill="#5ED1C5"/>
<rect x="251" y="488" width="14" height="14" transform="rotate(-84.4768 251 488)" fill="#5ED1C5"/>
<rect x="255" y="464" width="14" height="14" transform="rotate(-79.2013 255 464)" fill="#5ED1C5"/>
<rect x="259" y="441" width="14" height="14" transform="rotate(-73.7518 259 441)" fill="#5ED1C5"/>
<rect x="266" y="417" width="14" height="14" transform="rotate(-68.3589 266 417)" fill="#5ED1C5"/>
<rect x="275" y="397" width="14" height="14" transform="rotate(-63.2367 275 397)" fill="#5ED1C5"/>
<rect x="289" y="375" width="14" height="14" transform="rotate(-57.743 289 375)" fill="#5ED1C5"/>
<rect x="300" y="356" width="14" height="14" transform="rotate(-52.5034 300 356)" fill="#5ED1C5"/>
<rect x="315" y="336" width="14" height="14" transform="rotate(-47.2901 315 336)" fill="#5ED1C5"/>
<rect x="331" y="321" width="14" height="14" transform="rotate(-42.0851 331 321)" fill="#5ED1C5"/>
<rect x="350" y="305" width="14" height="14" transform="rotate(-36.6605 350 305)" fill="#5ED1C5"/>
<rect x="369" y="291" width="14" height="14" transform="rotate(-31.4151 369 291)" fill="#5ED1C5"/>
<rect x="390" y="280" width="14" height="14" transform="rotate(-26.1259 390 280)" fill="#5ED1C5"/>
<rect x="411" y="269" width="14" height="14" transform="rotate(-20.7822 411 269)" fill="#5ED1C5"/>
<rect x="433" y="261" width="14" height="14" transform="rotate(-15.5971 433 261)" fill="#5ED1C5"/>
<rect x="457" y="256" width="14" height="14" transform="rotate(-10.1414 457 256)" fill="#5ED1C5"/>
<rect x="481" y="251" width="14" height="14" transform="rotate(-4.86151 481 251)" fill="#5ED1C5"/>
<rect x="506" y="250" width="14" height="14" transform="rotate(0.663504 506 250)" fill="#5ED1C5"/>
<rect x="527" y="251" width="14" height="14" transform="rotate(5.74371 527 251)" fill="#5ED1C5"/>
<rect x="551" y="255" width="14" height="14" transform="rotate(11.0177 551 255)" fill="#5ED1C5"/>
<rect x="576" y="260" width="14" height="14" transform="rotate(16.465 576 260)" fill="#5ED1C5"/>
<rect x="599" y="267" width="14" height="14" transform="rotate(21.8556 599 267)" fill="#5ED1C5"/>
<rect x="619" y="276" width="14" height="14" transform="rotate(27.1878 619 276)" fill="#5ED1C5"/>
<rect x="642" y="289" width="14" height="14" transform="rotate(32.4673 642 289)" fill="#5ED1C5" fill-opacity="0.4"/>
<rect x="660" y="301" width="14" height="14" transform="rotate(37.7055 660 301)" fill="#5ED1C5" fill-opacity="0.4"/>
<rect x="679" y="316" width="14" height="14" transform="rotate(42.9181 679 316)" fill="#5ED1C5" fill-opacity="0.4"/>
<rect x="694" y="332" width="14" height="14" transform="rotate(48.1232 694 332)" fill="#5ED1C5" fill-opacity="0.4"/>
<rect x="710" y="351" width="14" height="14" transform="rotate(53.5487 710 351)" fill="#5ED1C5" fill-opacity="0.4"/>
<rect x="725" y="371" width="14" height="14" transform="rotate(58.7955 725 371)" fill="#5ED1C5" fill-opacity="0.4"/>
<rect x="737" y="391" width="14" height="14" transform="rotate(64.0868 737 391)" fill="#5ED1C5" fill-opacity="0.4"/>
<rect x="746" y="413" width="14" height="14" transform="rotate(69.4327 746 413)" fill="#5ED1C5" fill-opacity="0.4"/>
<rect x="754" y="435" width="14" height="14" transform="rotate(74.6201 754 435)" fill="#5ED1C5" fill-opacity="0.4"/>
<rect x="759" y="458" width="14" height="14" transform="rotate(80.0779 759 458)" fill="#5ED1C5" fill-opacity="0.4"/>
<rect x="764" y="482" width="14" height="14" transform="rotate(85.3591 764 482)" fill="#5ED1C5" fill-opacity="0.4"/>
<rect x="903" y="499" width="9" height="9" transform="rotate(90 903 499)" fill="#5ED1C5"/>
<rect x="900" y="535" width="9" height="9" transform="rotate(95.0821 900 535)" fill="#5ED1C5"/>
<rect x="896" y="571" width="9" height="9" transform="rotate(100.361 896 571)" fill="#5ED1C5"/>
<rect x="889" y="608" width="9" height="9" transform="rotate(105.814 889 608)" fill="#5ED1C5"/>
<rect x="878" y="642" width="9" height="9" transform="rotate(110.997 878 642)" fill="#5ED1C5"/>
<rect x="865" y="675" width="9" height="9" transform="rotate(116.338 865 675)" fill="#5ED1C5"/>
<rect x="846" y="709" width="9" height="9" transform="rotate(121.626 846 709)" fill="#5ED1C5"/>
<rect x="826" y="738" width="9" height="9" transform="rotate(127.079 826 738)" fill="#5ED1C5"/>
<rect x="804" y="768" width="9" height="9" transform="rotate(132.293 804 768)" fill="#5ED1C5"/>
<rect x="779" y="795" width="9" height="9" transform="rotate(137.498 779 795)" fill="#5ED1C5"/>
<rect x="752" y="818" width="9" height="9" transform="rotate(142.712 752 818)" fill="#5ED1C5"/>
<rect x="720" y="840" width="9" height="9" transform="rotate(148.164 720 840)" fill="#5ED1C5"/>
<rect x="689" y="858" width="9" height="9" transform="rotate(153.449 689 858)" fill="#5ED1C5"/>
<rect x="658" y="874" width="9" height="9" transform="rotate(158.788 658 874)" fill="#5ED1C5"/>
<rect x="624" y="885" width="9" height="9" transform="rotate(163.969 624 885)" fill="#5ED1C5"/>
<rect x="587" y="895" width="9" height="9" transform="rotate(169.42 587 895)" fill="#5ED1C5"/>
<rect x="552" y="900" width="9" height="9" transform="rotate(174.697 552 900)" fill="#5ED1C5"/>
<rect x="513" y="903" width="9" height="9" transform="rotate(-179.779 513 903)" fill="#5ED1C5"/>
<rect x="477" y="900" width="9" height="9" transform="rotate(-174.697 477 900)" fill="#5ED1C5"/>
<rect x="441" y="896" width="9" height="9" transform="rotate(-169.42 441 896)" fill="#5ED1C5"/>
<rect x="406" y="889" width="9" height="9" transform="rotate(-163.969 406 889)" fill="#5ED1C5"/>
<rect x="372" y="878" width="9" height="9" transform="rotate(-158.788 372 878)" fill="#5ED1C5"/>
<rect x="337" y="862" width="9" height="9" transform="rotate(-153.449 337 862)" fill="#5ED1C5"/>
<rect x="306" y="846" width="9" height="9" transform="rotate(-148.164 306 846)" fill="#5ED1C5"/>
<rect x="274" y="826" width="9" height="9" transform="rotate(-142.712 274 826)" fill="#5ED1C5" fill-opacity="0.4"/>
<rect x="246" y="804" width="9" height="9" transform="rotate(-137.498 246 804)" fill="#5ED1C5" fill-opacity="0.4"/>
<rect x="220" y="777" width="9" height="9" transform="rotate(-132.293 220 777)" fill="#5ED1C5" fill-opacity="0.4"/>
<rect x="195" y="750" width="9" height="9" transform="rotate(-127.079 195 750)" fill="#5ED1C5" fill-opacity="0.4"/>
<rect x="175" y="720" width="9" height="9" transform="rotate(-121.626 175 720)" fill="#5ED1C5" fill-opacity="0.4"/>
<rect x="157" y="689" width="9" height="9" transform="rotate(-116.338 157 689)" fill="#5ED1C5" fill-opacity="0.4"/>
<rect x="141" y="655" width="9" height="9" transform="rotate(-110.997 141 655)" fill="#5ED1C5" fill-opacity="0.4"/>
<rect x="130" y="621" width="9" height="9" transform="rotate(-105.814 130 621)" fill="#5ED1C5" fill-opacity="0.4"/>
<rect x="120" y="586" width="9" height="9" transform="rotate(-100.361 120 586)" fill="#5ED1C5" fill-opacity="0.4"/>
<rect x="115" y="549" width="9" height="9" transform="rotate(-95.0821 115 549)" fill="#5ED1C5" fill-opacity="0.4"/>
<rect x="112" y="511" width="9" height="9" transform="rotate(-89.5577 112 511)" fill="#5ED1C5" fill-opacity="0.4"/>
<rect x="115" y="477" width="9" height="9" transform="rotate(-84.4768 115 477)" fill="#5ED1C5" fill-opacity="0.4"/>
<rect x="119" y="441" width="9" height="9" transform="rotate(-79.2013 119 441)" fill="#5ED1C5" fill-opacity="0.4"/>
<rect x="126" y="406" width="9" height="9" transform="rotate(-73.7518 126 406)" fill="#5ED1C5" fill-opacity="0.4"/>
<rect x="137" y="369" width="9" height="9" transform="rotate(-68.3589 137 369)" fill="#5ED1C5" fill-opacity="0.4"/>
<rect x="150" y="337" width="9" height="9" transform="rotate(-63.2367 150 337)" fill="#5ED1C5" fill-opacity="0.4"/>
<rect x="170" y="303" width="9" height="9" transform="rotate(-57.743 170 303)" fill="#5ED1C5" fill-opacity="0.4"/>
<rect x="189" y="274" width="9" height="9" transform="rotate(-52.5034 189 274)" fill="#5ED1C5" fill-opacity="0.4"/>
<rect x="211" y="246" width="9" height="9" transform="rotate(-47.2901 211 246)" fill="#5ED1C5" fill-opacity="0.4"/>
<rect x="236" y="220" width="9" height="9" transform="rotate(-42.0851 236 220)" fill="#5ED1C5" fill-opacity="0.4"/>
<rect x="265" y="195" width="9" height="9" transform="rotate(-36.6605 265 195)" fill="#5ED1C5" fill-opacity="0.4"/>
<rect x="295" y="175" width="9" height="9" transform="rotate(-31.4151 295 175)" fill="#5ED1C5" fill-opacity="0.4"/>
<rect x="326" y="157" width="9" height="9" transform="rotate(-26.1259 326 157)" fill="#5ED1C5" fill-opacity="0.4"/>
<rect x="360" y="141" width="9" height="9" transform="rotate(-20.7822 360 141)" fill="#5ED1C5" fill-opacity="0.4"/>
<rect x="394" y="130" width="9" height="9" transform="rotate(-15.5971 394 130)" fill="#5ED1C5" fill-opacity="0.4"/>
<rect x="429" y="120" width="9" height="9" transform="rotate(-10.1414 429 120)" fill="#5ED1C5" fill-opacity="0.4"/>
<rect x="466" y="115" width="9" height="9" transform="rotate(-4.86151 466 115)" fill="#5ED1C5" fill-opacity="0.4"/>
<rect x="502" y="112" width="9" height="9" transform="rotate(0.663504 502 112)" fill="#5ED1C5" fill-opacity="0.4"/>
<rect x="538" y="115" width="9" height="9" transform="rotate(5.74371 538 115)" fill="#5ED1C5"/>
<rect x="574" y="119" width="9" height="9" transform="rotate(11.0177 574 119)" fill="#5ED1C5"/>
<rect x="612" y="128" width="9" height="9" transform="rotate(16.465 612 128)" fill="#5ED1C5"/>
<rect x="648" y="139" width="9" height="9" transform="rotate(21.8556 648 139)" fill="#5ED1C5"/>
<rect x="680" y="153" width="9" height="9" transform="rotate(27.1878 680 153)" fill="#5ED1C5"/>
<rect x="714" y="170" width="9" height="9" transform="rotate(32.4673 714 170)" fill="#5ED1C5"/>
<rect x="743" y="192" width="9" height="9" transform="rotate(37.7055 743 192)" fill="#5ED1C5"/>
<rect x="769" y="214" width="9" height="9" transform="rotate(42.9181 769 214)" fill="#5ED1C5"/>
<rect x="795" y="238" width="9" height="9" transform="rotate(48.1232 795 238)" fill="#5ED1C5"/>
<rect x="820" y="267" width="9" height="9" transform="rotate(53.5487 820 267)" fill="#5ED1C5"/>
<rect x="842" y="297" width="9" height="9" transform="rotate(58.7955 842 297)" fill="#5ED1C5"/>
<rect x="860" y="329" width="9" height="9" transform="rotate(64.0868 860 329)" fill="#5ED1C5"/>
<rect x="874" y="362" width="9" height="9" transform="rotate(69.4327 874 362)" fill="#5ED1C5"/>
<rect x="885" y="395" width="9" height="9" transform="rotate(74.6201 885 395)" fill="#5ED1C5"/>
<rect x="895" y="432" width="9" height="9" transform="rotate(80.0779 895 432)" fill="#5ED1C5"/>
<rect x="900" y="468" width="9" height="9" transform="rotate(85.3591 900 468)" fill="#5ED1C5"/>
</g>
</svg>
