<svg width="791" height="791" viewBox="0 0 791 791" fill="none" xmlns="http://www.w3.org/2000/svg">
<rect x="791" y="387" width="9" height="9" transform="rotate(90 791 387)" fill="#6291FF"/>
<rect x="788" y="423" width="9" height="9" transform="rotate(95.0821 788 423)" fill="#6291FF"/>
<rect x="784" y="459" width="9" height="9" transform="rotate(100.361 784 459)" fill="#6291FF"/>
<rect x="777" y="496" width="9" height="9" transform="rotate(105.814 777 496)" fill="#6291FF"/>
<rect x="766" y="530" width="9" height="9" transform="rotate(110.997 766 530)" fill="#6291FF"/>
<rect x="753" y="563" width="9" height="9" transform="rotate(116.338 753 563)" fill="#6291FF"/>
<rect x="734" y="597" width="9" height="9" transform="rotate(121.626 734 597)" fill="#6291FF"/>
<rect x="714" y="626" width="9" height="9" transform="rotate(127.079 714 626)" fill="#6291FF"/>
<rect x="692" y="656" width="9" height="9" transform="rotate(132.293 692 656)" fill="#6291FF"/>
<rect x="667" y="683" width="9" height="9" transform="rotate(137.498 667 683)" fill="#6291FF"/>
<rect x="640" y="706" width="9" height="9" transform="rotate(142.712 640 706)" fill="#6291FF"/>
<rect x="608" y="728" width="9" height="9" transform="rotate(148.164 608 728)" fill="#6291FF"/>
<rect x="577" y="746" width="9" height="9" transform="rotate(153.449 577 746)" fill="#6291FF"/>
<rect x="546" y="762" width="9" height="9" transform="rotate(158.788 546 762)" fill="#6291FF"/>
<rect x="512" y="773" width="9" height="9" transform="rotate(163.969 512 773)" fill="#6291FF"/>
<rect x="475" y="783" width="9" height="9" transform="rotate(169.42 475 783)" fill="#6291FF"/>
<rect x="440" y="788" width="9" height="9" transform="rotate(174.697 440 788)" fill="#6291FF"/>
<rect x="401" y="791" width="9" height="9" transform="rotate(-179.779 401 791)" fill="#6291FF"/>
<rect x="365" y="788" width="9" height="9" transform="rotate(-174.697 365 788)" fill="#6291FF"/>
<rect x="329" y="784" width="9" height="9" transform="rotate(-169.42 329 784)" fill="#6291FF"/>
<rect x="294" y="777" width="9" height="9" transform="rotate(-163.969 294 777)" fill="#6291FF"/>
<rect x="260" y="766" width="9" height="9" transform="rotate(-158.788 260 766)" fill="#6291FF"/>
<rect x="225" y="750" width="9" height="9" transform="rotate(-153.449 225 750)" fill="#6291FF"/>
<rect x="194" y="734" width="9" height="9" transform="rotate(-148.164 194 734)" fill="#6291FF"/>
<rect x="162" y="714" width="9" height="9" transform="rotate(-142.712 162 714)" fill="#6291FF" fill-opacity="0.4"/>
<rect x="134" y="692" width="9" height="9" transform="rotate(-137.498 134 692)" fill="#6291FF" fill-opacity="0.4"/>
<rect x="108" y="665" width="9" height="9" transform="rotate(-132.293 108 665)" fill="#6291FF" fill-opacity="0.4"/>
<rect x="83" y="638" width="9" height="9" transform="rotate(-127.079 83 638)" fill="#6291FF" fill-opacity="0.4"/>
<rect x="63" y="608" width="9" height="9" transform="rotate(-121.626 63 608)" fill="#6291FF" fill-opacity="0.4"/>
<rect x="45" y="577" width="9" height="9" transform="rotate(-116.338 45 577)" fill="#6291FF" fill-opacity="0.4"/>
<rect x="29" y="543" width="9" height="9" transform="rotate(-110.997 29 543)" fill="#6291FF" fill-opacity="0.4"/>
<rect x="18" y="509" width="9" height="9" transform="rotate(-105.814 18 509)" fill="#6291FF" fill-opacity="0.4"/>
<rect x="8" y="474" width="9" height="9" transform="rotate(-100.361 8 474)" fill="#6291FF" fill-opacity="0.4"/>
<rect x="3" y="437" width="9" height="9" transform="rotate(-95.0821 3 437)" fill="#6291FF" fill-opacity="0.4"/>
<rect y="399" width="9" height="9" transform="rotate(-89.5577 0 399)" fill="#6291FF" fill-opacity="0.4"/>
<rect x="3" y="365" width="9" height="9" transform="rotate(-84.4768 3 365)" fill="#6291FF" fill-opacity="0.4"/>
<rect x="7" y="329" width="9" height="9" transform="rotate(-79.2013 7 329)" fill="#6291FF" fill-opacity="0.4"/>
<rect x="14" y="294" width="9" height="9" transform="rotate(-73.7518 14 294)" fill="#6291FF" fill-opacity="0.4"/>
<rect x="25" y="257" width="9" height="9" transform="rotate(-68.3589 25 257)" fill="#6291FF" fill-opacity="0.4"/>
<rect x="38" y="225" width="9" height="9" transform="rotate(-63.2367 38 225)" fill="#6291FF" fill-opacity="0.4"/>
<rect x="58" y="191" width="9" height="9" transform="rotate(-57.743 58 191)" fill="#6291FF" fill-opacity="0.4"/>
<rect x="77" y="162" width="9" height="9" transform="rotate(-52.5034 77 162)" fill="#6291FF" fill-opacity="0.4"/>
<rect x="99" y="134" width="9" height="9" transform="rotate(-47.2901 99 134)" fill="#6291FF" fill-opacity="0.4"/>
<rect x="124" y="108" width="9" height="9" transform="rotate(-42.0851 124 108)" fill="#6291FF" fill-opacity="0.4"/>
<rect x="153" y="83" width="9" height="9" transform="rotate(-36.6605 153 83)" fill="#6291FF" fill-opacity="0.4"/>
<rect x="183" y="63" width="9" height="9" transform="rotate(-31.4151 183 63)" fill="#6291FF" fill-opacity="0.4"/>
<rect x="214" y="45" width="9" height="9" transform="rotate(-26.1259 214 45)" fill="#6291FF" fill-opacity="0.4"/>
<rect x="248" y="29" width="9" height="9" transform="rotate(-20.7822 248 29)" fill="#6291FF" fill-opacity="0.4"/>
<rect x="282" y="18" width="9" height="9" transform="rotate(-15.5971 282 18)" fill="#6291FF" fill-opacity="0.4"/>
<rect x="317" y="8" width="9" height="9" transform="rotate(-10.1414 317 8)" fill="#6291FF" fill-opacity="0.4"/>
<rect x="354" y="3" width="9" height="9" transform="rotate(-4.86151 354 3)" fill="#6291FF" fill-opacity="0.4"/>
<rect x="390" width="9" height="9" transform="rotate(0.663504 390 0)" fill="#6291FF" fill-opacity="0.4"/>
<rect x="426" y="3" width="9" height="9" transform="rotate(5.74371 426 3)" fill="#6291FF"/>
<rect x="462" y="7" width="9" height="9" transform="rotate(11.0177 462 7)" fill="#6291FF"/>
<rect x="500" y="16" width="9" height="9" transform="rotate(16.465 500 16)" fill="#6291FF"/>
<rect x="536" y="27" width="9" height="9" transform="rotate(21.8556 536 27)" fill="#6291FF"/>
<rect x="568" y="41" width="9" height="9" transform="rotate(27.1878 568 41)" fill="#6291FF"/>
<rect x="602" y="58" width="9" height="9" transform="rotate(32.4673 602 58)" fill="#6291FF"/>
<rect x="631" y="80" width="9" height="9" transform="rotate(37.7055 631 80)" fill="#6291FF"/>
<rect x="657" y="102" width="9" height="9" transform="rotate(42.9181 657 102)" fill="#6291FF"/>
<rect x="683" y="126" width="9" height="9" transform="rotate(48.1232 683 126)" fill="#6291FF"/>
<rect x="708" y="155" width="9" height="9" transform="rotate(53.5487 708 155)" fill="#6291FF"/>
<rect x="730" y="185" width="9" height="9" transform="rotate(58.7955 730 185)" fill="#6291FF"/>
<rect x="748" y="217" width="9" height="9" transform="rotate(64.0868 748 217)" fill="#6291FF"/>
<rect x="762" y="250" width="9" height="9" transform="rotate(69.4327 762 250)" fill="#6291FF"/>
<rect x="773" y="283" width="9" height="9" transform="rotate(74.6201 773 283)" fill="#6291FF"/>
<rect x="783" y="320" width="9" height="9" transform="rotate(80.0779 783 320)" fill="#6291FF"/>
<rect x="788" y="356" width="9" height="9" transform="rotate(85.3591 788 356)" fill="#6291FF"/>
</svg>
