<svg width="2800" height="254" viewBox="0 0 2800 254" fill="none" xmlns="http://www.w3.org/2000/svg">
<rect x="-70.5" y="-2.5" width="245" height="251" stroke="#5ED1C5" stroke-opacity="0.2"/>
<path d="M180 -3L180 -2L175 -2L175 3L174 3L174 -2L169 -2L169 -3L174 -3L174 -8L175 -8L175 -3H180Z" fill="#5ED1C5" fill-opacity="0.4"/>
<path d="M180 248L180 249L175 249L175 254L174 254L174 249L169 249L169 248L174 248L174 243L175 243L175 248H180Z" fill="#5ED1C5" fill-opacity="0.4"/>
<g opacity="0.25">
<rect x="17.6666" y="21" width="4" height="4" fill="#5ED1C5"/>
<rect x="82.3334" y="21" width="4" height="4" fill="#5ED1C5"/>
<rect x="147" y="21" width="4" height="4" fill="#5ED1C5"/>
<rect x="17.6666" y="71" width="4" height="4" fill="#5ED1C5"/>
<rect x="82.3334" y="71" width="4" height="4" fill="#5ED1C5"/>
<rect x="147" y="71" width="4" height="4" fill="#5ED1C5"/>
<rect x="17.6666" y="121" width="4" height="4" fill="#5ED1C5"/>
<rect x="82.3334" y="121" width="4" height="4" fill="#5ED1C5"/>
<rect x="147" y="121" width="4" height="4" fill="#5ED1C5"/>
<rect x="17.6666" y="171" width="4" height="4" fill="#5ED1C5"/>
<rect x="82.3334" y="171" width="4" height="4" fill="#5ED1C5"/>
<rect x="147" y="171" width="4" height="4" fill="#5ED1C5"/>
<rect x="17.6666" y="221" width="4" height="4" fill="#5ED1C5"/>
<rect x="82.3334" y="221" width="4" height="4" fill="#5ED1C5"/>
<rect x="147" y="221" width="4" height="4" fill="#5ED1C5"/>
</g>
<rect x="174.5" y="-2.5" width="245" height="251" stroke="#5ED1C5" stroke-opacity="0.2"/>
<path d="M180 -3L180 -2L175 -2L175 3L174 3L174 -2L169 -2L169 -3L174 -3L174 -8L175 -8L175 -3H180Z" fill="#5ED1C5" fill-opacity="0.4"/>
<path d="M425 -3L425 -2L420 -2L420 3L419 3L419 -2L414 -2L414 -3L419 -3L419 -8L420 -8L420 -3H425Z" fill="#5ED1C5" fill-opacity="0.4"/>
<path d="M425 248L425 249L420 249L420 254L419 254L419 249L414 249L414 248L419 248L419 243L420 243L420 248H425Z" fill="#5ED1C5" fill-opacity="0.4"/>
<path d="M180 248L180 249L175 249L175 254L174 254L174 249L169 249L169 248L174 248L174 243L175 243L175 248H180Z" fill="#5ED1C5" fill-opacity="0.4"/>
<g opacity="0.25">
<rect x="198" y="21" width="4" height="4" fill="#5ED1C5"/>
<rect x="262.667" y="21" width="4" height="4" fill="#5ED1C5"/>
<rect x="327.333" y="21" width="4" height="4" fill="#5ED1C5"/>
<rect x="392" y="21" width="4" height="4" fill="#5ED1C5"/>
<rect x="198" y="71" width="4" height="4" fill="#5ED1C5"/>
<rect x="262.667" y="71" width="4" height="4" fill="#5ED1C5"/>
<rect x="327.333" y="71" width="4" height="4" fill="#5ED1C5"/>
<rect x="392" y="71" width="4" height="4" fill="#5ED1C5"/>
<rect x="198" y="121" width="4" height="4" fill="#5ED1C5"/>
<rect x="262.667" y="121" width="4" height="4" fill="#5ED1C5"/>
<rect x="327.333" y="121" width="4" height="4" fill="#5ED1C5"/>
<rect x="392" y="121" width="4" height="4" fill="#5ED1C5"/>
<rect x="198" y="171" width="4" height="4" fill="#5ED1C5"/>
<rect x="262.667" y="171" width="4" height="4" fill="#5ED1C5"/>
<rect x="327.333" y="171" width="4" height="4" fill="#5ED1C5"/>
<rect x="392" y="171" width="4" height="4" fill="#5ED1C5"/>
<rect x="198" y="221" width="4" height="4" fill="#5ED1C5"/>
<rect x="262.667" y="221" width="4" height="4" fill="#5ED1C5"/>
<rect x="327.333" y="221" width="4" height="4" fill="#5ED1C5"/>
<rect x="392" y="221" width="4" height="4" fill="#5ED1C5"/>
</g>
<rect x="419.5" y="-2.5" width="245" height="251" stroke="#5ED1C5" stroke-opacity="0.2"/>
<path d="M425 -3L425 -2L420 -2L420 3L419 3L419 -2L414 -2L414 -3L419 -3L419 -8L420 -8L420 -3H425Z" fill="#5ED1C5" fill-opacity="0.4"/>
<path d="M670 -3L670 -2L665 -2L665 3L664 3L664 -2L659 -2L659 -3L664 -3L664 -8L665 -8L665 -3H670Z" fill="#5ED1C5" fill-opacity="0.4"/>
<path d="M670 248L670 249L665 249L665 254L664 254L664 249L659 249L659 248L664 248L664 243L665 243L665 248H670Z" fill="#5ED1C5" fill-opacity="0.4"/>
<path d="M425 248L425 249L420 249L420 254L419 254L419 249L414 249L414 248L419 248L419 243L420 243L420 248H425Z" fill="#5ED1C5" fill-opacity="0.4"/>
<g opacity="0.25">
<rect x="443" y="21" width="4" height="4" fill="#5ED1C5"/>
<rect x="507.667" y="21" width="4" height="4" fill="#5ED1C5"/>
<rect x="572.333" y="21" width="4" height="4" fill="#5ED1C5"/>
<rect x="637" y="21" width="4" height="4" fill="#5ED1C5"/>
<rect x="443" y="71" width="4" height="4" fill="#5ED1C5"/>
<rect x="507.667" y="71" width="4" height="4" fill="#5ED1C5"/>
<rect x="572.333" y="71" width="4" height="4" fill="#5ED1C5"/>
<rect x="637" y="71" width="4" height="4" fill="#5ED1C5"/>
<rect x="443" y="121" width="4" height="4" fill="#5ED1C5"/>
<rect x="507.667" y="121" width="4" height="4" fill="#5ED1C5"/>
<rect x="572.333" y="121" width="4" height="4" fill="#5ED1C5"/>
<rect x="637" y="121" width="4" height="4" fill="#5ED1C5"/>
<rect x="443" y="171" width="4" height="4" fill="#5ED1C5"/>
<rect x="507.667" y="171" width="4" height="4" fill="#5ED1C5"/>
<rect x="572.333" y="171" width="4" height="4" fill="#5ED1C5"/>
<rect x="637" y="171" width="4" height="4" fill="#5ED1C5"/>
<rect x="443" y="221" width="4" height="4" fill="#5ED1C5"/>
<rect x="507.667" y="221" width="4" height="4" fill="#5ED1C5"/>
<rect x="572.333" y="221" width="4" height="4" fill="#5ED1C5"/>
<rect x="637" y="221" width="4" height="4" fill="#5ED1C5"/>
</g>
<rect x="664.5" y="-2.5" width="245" height="251" stroke="#5ED1C5" stroke-opacity="0.2"/>
<path d="M670 -3L670 -2L665 -2L665 3L664 3L664 -2L659 -2L659 -3L664 -3L664 -8L665 -8L665 -3H670Z" fill="#5ED1C5" fill-opacity="0.4"/>
<path d="M915 -3L915 -2L910 -2L910 3L909 3L909 -2L904 -2L904 -3L909 -3L909 -8L910 -8L910 -3H915Z" fill="#5ED1C5" fill-opacity="0.4"/>
<path d="M915 248L915 249L910 249L910 254L909 254L909 249L904 249L904 248L909 248L909 243L910 243L910 248H915Z" fill="#5ED1C5" fill-opacity="0.4"/>
<path d="M670 248L670 249L665 249L665 254L664 254L664 249L659 249L659 248L664 248L664 243L665 243L665 248H670Z" fill="#5ED1C5" fill-opacity="0.4"/>
<g opacity="0.25">
<rect x="688" y="21" width="4" height="4" fill="#5ED1C5"/>
<rect x="752.667" y="21" width="4" height="4" fill="#5ED1C5"/>
<rect x="817.333" y="21" width="4" height="4" fill="#5ED1C5"/>
<rect x="882" y="21" width="4" height="4" fill="#5ED1C5"/>
<rect x="688" y="71" width="4" height="4" fill="#5ED1C5"/>
<rect x="752.667" y="71" width="4" height="4" fill="#5ED1C5"/>
<rect x="817.333" y="71" width="4" height="4" fill="#5ED1C5"/>
<rect x="882" y="71" width="4" height="4" fill="#5ED1C5"/>
<rect x="688" y="121" width="4" height="4" fill="#5ED1C5"/>
<rect x="752.667" y="121" width="4" height="4" fill="#5ED1C5"/>
<rect x="817.333" y="121" width="4" height="4" fill="#5ED1C5"/>
<rect x="882" y="121" width="4" height="4" fill="#5ED1C5"/>
<rect x="688" y="171" width="4" height="4" fill="#5ED1C5"/>
<rect x="752.667" y="171" width="4" height="4" fill="#5ED1C5"/>
<rect x="817.333" y="171" width="4" height="4" fill="#5ED1C5"/>
<rect x="882" y="171" width="4" height="4" fill="#5ED1C5"/>
<rect x="688" y="221" width="4" height="4" fill="#5ED1C5"/>
<rect x="752.667" y="221" width="4" height="4" fill="#5ED1C5"/>
<rect x="817.333" y="221" width="4" height="4" fill="#5ED1C5"/>
<rect x="882" y="221" width="4" height="4" fill="#5ED1C5"/>
</g>
<rect x="909.5" y="-2.5" width="245" height="251" stroke="#5ED1C5" stroke-opacity="0.2"/>
<path d="M915 -3L915 -2L910 -2L910 3L909 3L909 -2L904 -2L904 -3L909 -3L909 -8L910 -8L910 -3H915Z" fill="#5ED1C5" fill-opacity="0.4"/>
<path d="M1160 -3L1160 -2L1155 -2L1155 3L1154 3L1154 -2L1149 -2L1149 -3L1154 -3L1154 -8L1155 -8L1155 -3H1160Z" fill="#5ED1C5" fill-opacity="0.4"/>
<path d="M1160 248L1160 249L1155 249L1155 254L1154 254L1154 249L1149 249L1149 248L1154 248L1154 243L1155 243L1155 248H1160Z" fill="#5ED1C5" fill-opacity="0.4"/>
<path d="M915 248L915 249L910 249L910 254L909 254L909 249L904 249L904 248L909 248L909 243L910 243L910 248H915Z" fill="#5ED1C5" fill-opacity="0.4"/>
<g opacity="0.25">
<rect x="933" y="21" width="4" height="4" fill="#5ED1C5"/>
<rect x="997.667" y="21" width="4" height="4" fill="#5ED1C5"/>
<rect x="1062.33" y="21" width="4" height="4" fill="#5ED1C5"/>
<rect x="1127" y="21" width="4" height="4" fill="#5ED1C5"/>
<rect x="933" y="71" width="4" height="4" fill="#5ED1C5"/>
<rect x="997.667" y="71" width="4" height="4" fill="#5ED1C5"/>
<rect x="1062.33" y="71" width="4" height="4" fill="#5ED1C5"/>
<rect x="1127" y="71" width="4" height="4" fill="#5ED1C5"/>
<rect x="933" y="121" width="4" height="4" fill="#5ED1C5"/>
<rect x="997.667" y="121" width="4" height="4" fill="#5ED1C5"/>
<rect x="1062.33" y="121" width="4" height="4" fill="#5ED1C5"/>
<rect x="1127" y="121" width="4" height="4" fill="#5ED1C5"/>
<rect x="933" y="171" width="4" height="4" fill="#5ED1C5"/>
<rect x="997.667" y="171" width="4" height="4" fill="#5ED1C5"/>
<rect x="1062.33" y="171" width="4" height="4" fill="#5ED1C5"/>
<rect x="1127" y="171" width="4" height="4" fill="#5ED1C5"/>
<rect x="933" y="221" width="4" height="4" fill="#5ED1C5"/>
<rect x="997.667" y="221" width="4" height="4" fill="#5ED1C5"/>
<rect x="1062.33" y="221" width="4" height="4" fill="#5ED1C5"/>
<rect x="1127" y="221" width="4" height="4" fill="#5ED1C5"/>
</g>
<rect x="1154.5" y="-2.5" width="245" height="251" stroke="#5ED1C5" stroke-opacity="0.2"/>
<path d="M1160 -3L1160 -2L1155 -2L1155 3L1154 3L1154 -2L1149 -2L1149 -3L1154 -3L1154 -8L1155 -8L1155 -3H1160Z" fill="#5ED1C5" fill-opacity="0.4"/>
<path d="M1405 -3L1405 -2L1400 -2L1400 3L1399 3L1399 -2L1394 -2L1394 -3L1399 -3L1399 -8L1400 -8L1400 -3H1405Z" fill="#5ED1C5" fill-opacity="0.4"/>
<path d="M1405 248L1405 249L1400 249L1400 254L1399 254L1399 249L1394 249L1394 248L1399 248L1399 243L1400 243L1400 248H1405Z" fill="#5ED1C5" fill-opacity="0.4"/>
<path d="M1160 248L1160 249L1155 249L1155 254L1154 254L1154 249L1149 249L1149 248L1154 248L1154 243L1155 243L1155 248H1160Z" fill="#5ED1C5" fill-opacity="0.4"/>
<g opacity="0.25">
<rect x="1178" y="21" width="4" height="4" fill="#5ED1C5"/>
<rect x="1242.67" y="21" width="4" height="4" fill="#5ED1C5"/>
<rect x="1307.33" y="21" width="4" height="4" fill="#5ED1C5"/>
<rect x="1372" y="21" width="4" height="4" fill="#5ED1C5"/>
<rect x="1178" y="71" width="4" height="4" fill="#5ED1C5"/>
<rect x="1242.67" y="71" width="4" height="4" fill="#5ED1C5"/>
<rect x="1307.33" y="71" width="4" height="4" fill="#5ED1C5"/>
<rect x="1372" y="71" width="4" height="4" fill="#5ED1C5"/>
<rect x="1178" y="121" width="4" height="4" fill="#5ED1C5"/>
<rect x="1242.67" y="121" width="4" height="4" fill="#5ED1C5"/>
<rect x="1307.33" y="121" width="4" height="4" fill="#5ED1C5"/>
<rect x="1372" y="121" width="4" height="4" fill="#5ED1C5"/>
<rect x="1178" y="171" width="4" height="4" fill="#5ED1C5"/>
<rect x="1242.67" y="171" width="4" height="4" fill="#5ED1C5"/>
<rect x="1307.33" y="171" width="4" height="4" fill="#5ED1C5"/>
<rect x="1372" y="171" width="4" height="4" fill="#5ED1C5"/>
<rect x="1178" y="221" width="4" height="4" fill="#5ED1C5"/>
<rect x="1242.67" y="221" width="4" height="4" fill="#5ED1C5"/>
<rect x="1307.33" y="221" width="4" height="4" fill="#5ED1C5"/>
<rect x="1372" y="221" width="4" height="4" fill="#5ED1C5"/>
</g>
<rect x="1399.5" y="-2.5" width="245" height="251" stroke="#5ED1C5" stroke-opacity="0.2"/>
<path d="M1405 -3L1405 -2L1400 -2L1400 3L1399 3L1399 -2L1394 -2L1394 -3L1399 -3L1399 -8L1400 -8L1400 -3H1405Z" fill="#5ED1C5" fill-opacity="0.4"/>
<path d="M1650 -3L1650 -2L1645 -2L1645 3L1644 3L1644 -2L1639 -2L1639 -3L1644 -3L1644 -8L1645 -8L1645 -3H1650Z" fill="#5ED1C5" fill-opacity="0.4"/>
<path d="M1650 248L1650 249L1645 249L1645 254L1644 254L1644 249L1639 249L1639 248L1644 248L1644 243L1645 243L1645 248H1650Z" fill="#5ED1C5" fill-opacity="0.4"/>
<path d="M1405 248L1405 249L1400 249L1400 254L1399 254L1399 249L1394 249L1394 248L1399 248L1399 243L1400 243L1400 248H1405Z" fill="#5ED1C5" fill-opacity="0.4"/>
<g opacity="0.25">
<rect x="1423" y="21" width="4" height="4" fill="#5ED1C5"/>
<rect x="1487.67" y="21" width="4" height="4" fill="#5ED1C5"/>
<rect x="1552.33" y="21" width="4" height="4" fill="#5ED1C5"/>
<rect x="1617" y="21" width="4" height="4" fill="#5ED1C5"/>
<rect x="1423" y="71" width="4" height="4" fill="#5ED1C5"/>
<rect x="1487.67" y="71" width="4" height="4" fill="#5ED1C5"/>
<rect x="1552.33" y="71" width="4" height="4" fill="#5ED1C5"/>
<rect x="1617" y="71" width="4" height="4" fill="#5ED1C5"/>
<rect x="1423" y="121" width="4" height="4" fill="#5ED1C5"/>
<rect x="1487.67" y="121" width="4" height="4" fill="#5ED1C5"/>
<rect x="1552.33" y="121" width="4" height="4" fill="#5ED1C5"/>
<rect x="1617" y="121" width="4" height="4" fill="#5ED1C5"/>
<rect x="1423" y="171" width="4" height="4" fill="#5ED1C5"/>
<rect x="1487.67" y="171" width="4" height="4" fill="#5ED1C5"/>
<rect x="1552.33" y="171" width="4" height="4" fill="#5ED1C5"/>
<rect x="1617" y="171" width="4" height="4" fill="#5ED1C5"/>
<rect x="1423" y="221" width="4" height="4" fill="#5ED1C5"/>
<rect x="1487.67" y="221" width="4" height="4" fill="#5ED1C5"/>
<rect x="1552.33" y="221" width="4" height="4" fill="#5ED1C5"/>
<rect x="1617" y="221" width="4" height="4" fill="#5ED1C5"/>
</g>
<rect x="1644.5" y="-2.5" width="245" height="251" stroke="#5ED1C5" stroke-opacity="0.2"/>
<path d="M1650 -3L1650 -2L1645 -2L1645 3L1644 3L1644 -2L1639 -2L1639 -3L1644 -3L1644 -8L1645 -8L1645 -3H1650Z" fill="#5ED1C5" fill-opacity="0.4"/>
<path d="M1895 -3L1895 -2L1890 -2L1890 3L1889 3L1889 -2L1884 -2L1884 -3L1889 -3L1889 -8L1890 -8L1890 -3H1895Z" fill="#5ED1C5" fill-opacity="0.4"/>
<path d="M1895 248L1895 249L1890 249L1890 254L1889 254L1889 249L1884 249L1884 248L1889 248L1889 243L1890 243L1890 248H1895Z" fill="#5ED1C5" fill-opacity="0.4"/>
<path d="M1650 248L1650 249L1645 249L1645 254L1644 254L1644 249L1639 249L1639 248L1644 248L1644 243L1645 243L1645 248H1650Z" fill="#5ED1C5" fill-opacity="0.4"/>
<g opacity="0.25">
<rect x="1668" y="21" width="4" height="4" fill="#5ED1C5"/>
<rect x="1732.67" y="21" width="4" height="4" fill="#5ED1C5"/>
<rect x="1797.33" y="21" width="4" height="4" fill="#5ED1C5"/>
<rect x="1862" y="21" width="4" height="4" fill="#5ED1C5"/>
<rect x="1668" y="71" width="4" height="4" fill="#5ED1C5"/>
<rect x="1732.67" y="71" width="4" height="4" fill="#5ED1C5"/>
<rect x="1797.33" y="71" width="4" height="4" fill="#5ED1C5"/>
<rect x="1862" y="71" width="4" height="4" fill="#5ED1C5"/>
<rect x="1668" y="121" width="4" height="4" fill="#5ED1C5"/>
<rect x="1732.67" y="121" width="4" height="4" fill="#5ED1C5"/>
<rect x="1797.33" y="121" width="4" height="4" fill="#5ED1C5"/>
<rect x="1862" y="121" width="4" height="4" fill="#5ED1C5"/>
<rect x="1668" y="171" width="4" height="4" fill="#5ED1C5"/>
<rect x="1732.67" y="171" width="4" height="4" fill="#5ED1C5"/>
<rect x="1797.33" y="171" width="4" height="4" fill="#5ED1C5"/>
<rect x="1862" y="171" width="4" height="4" fill="#5ED1C5"/>
<rect x="1668" y="221" width="4" height="4" fill="#5ED1C5"/>
<rect x="1732.67" y="221" width="4" height="4" fill="#5ED1C5"/>
<rect x="1797.33" y="221" width="4" height="4" fill="#5ED1C5"/>
<rect x="1862" y="221" width="4" height="4" fill="#5ED1C5"/>
</g>
<rect x="1889.5" y="-2.5" width="245" height="251" stroke="#5ED1C5" stroke-opacity="0.2"/>
<path d="M1895 -3L1895 -2L1890 -2L1890 3L1889 3L1889 -2L1884 -2L1884 -3L1889 -3L1889 -8L1890 -8L1890 -3H1895Z" fill="#5ED1C5" fill-opacity="0.4"/>
<path d="M2140 -3L2140 -2L2135 -2L2135 3L2134 3L2134 -2L2129 -2L2129 -3L2134 -3L2134 -8L2135 -8L2135 -3H2140Z" fill="#5ED1C5" fill-opacity="0.4"/>
<path d="M2140 248L2140 249L2135 249L2135 254L2134 254L2134 249L2129 249L2129 248L2134 248L2134 243L2135 243L2135 248H2140Z" fill="#5ED1C5" fill-opacity="0.4"/>
<path d="M1895 248L1895 249L1890 249L1890 254L1889 254L1889 249L1884 249L1884 248L1889 248L1889 243L1890 243L1890 248H1895Z" fill="#5ED1C5" fill-opacity="0.4"/>
<g opacity="0.25">
<rect x="1913" y="21" width="4" height="4" fill="#5ED1C5"/>
<rect x="1977.67" y="21" width="4" height="4" fill="#5ED1C5"/>
<rect x="2042.33" y="21" width="4" height="4" fill="#5ED1C5"/>
<rect x="2107" y="21" width="4" height="4" fill="#5ED1C5"/>
<rect x="1913" y="71" width="4" height="4" fill="#5ED1C5"/>
<rect x="1977.67" y="71" width="4" height="4" fill="#5ED1C5"/>
<rect x="2042.33" y="71" width="4" height="4" fill="#5ED1C5"/>
<rect x="2107" y="71" width="4" height="4" fill="#5ED1C5"/>
<rect x="1913" y="121" width="4" height="4" fill="#5ED1C5"/>
<rect x="1977.67" y="121" width="4" height="4" fill="#5ED1C5"/>
<rect x="2042.33" y="121" width="4" height="4" fill="#5ED1C5"/>
<rect x="2107" y="121" width="4" height="4" fill="#5ED1C5"/>
<rect x="1913" y="171" width="4" height="4" fill="#5ED1C5"/>
<rect x="1977.67" y="171" width="4" height="4" fill="#5ED1C5"/>
<rect x="2042.33" y="171" width="4" height="4" fill="#5ED1C5"/>
<rect x="2107" y="171" width="4" height="4" fill="#5ED1C5"/>
<rect x="1913" y="221" width="4" height="4" fill="#5ED1C5"/>
<rect x="1977.67" y="221" width="4" height="4" fill="#5ED1C5"/>
<rect x="2042.33" y="221" width="4" height="4" fill="#5ED1C5"/>
<rect x="2107" y="221" width="4" height="4" fill="#5ED1C5"/>
</g>
<rect x="2134.5" y="-2.5" width="245" height="251" stroke="#5ED1C5" stroke-opacity="0.2"/>
<path d="M2140 -3L2140 -2L2135 -2L2135 3L2134 3L2134 -2L2129 -2L2129 -3L2134 -3L2134 -8L2135 -8L2135 -3H2140Z" fill="#5ED1C5" fill-opacity="0.4"/>
<path d="M2385 -3L2385 -2L2380 -2L2380 3L2379 3L2379 -2L2374 -2L2374 -3L2379 -3L2379 -8L2380 -8L2380 -3H2385Z" fill="#5ED1C5" fill-opacity="0.4"/>
<path d="M2385 248L2385 249L2380 249L2380 254L2379 254L2379 249L2374 249L2374 248L2379 248L2379 243L2380 243L2380 248H2385Z" fill="#5ED1C5" fill-opacity="0.4"/>
<path d="M2140 248L2140 249L2135 249L2135 254L2134 254L2134 249L2129 249L2129 248L2134 248L2134 243L2135 243L2135 248H2140Z" fill="#5ED1C5" fill-opacity="0.4"/>
<g opacity="0.25">
<rect x="2158" y="21" width="4" height="4" fill="#5ED1C5"/>
<rect x="2222.67" y="21" width="4" height="4" fill="#5ED1C5"/>
<rect x="2287.33" y="21" width="4" height="4" fill="#5ED1C5"/>
<rect x="2352" y="21" width="4" height="4" fill="#5ED1C5"/>
<rect x="2158" y="71" width="4" height="4" fill="#5ED1C5"/>
<rect x="2222.67" y="71" width="4" height="4" fill="#5ED1C5"/>
<rect x="2287.33" y="71" width="4" height="4" fill="#5ED1C5"/>
<rect x="2352" y="71" width="4" height="4" fill="#5ED1C5"/>
<rect x="2158" y="121" width="4" height="4" fill="#5ED1C5"/>
<rect x="2222.67" y="121" width="4" height="4" fill="#5ED1C5"/>
<rect x="2287.33" y="121" width="4" height="4" fill="#5ED1C5"/>
<rect x="2352" y="121" width="4" height="4" fill="#5ED1C5"/>
<rect x="2158" y="171" width="4" height="4" fill="#5ED1C5"/>
<rect x="2222.67" y="171" width="4" height="4" fill="#5ED1C5"/>
<rect x="2287.33" y="171" width="4" height="4" fill="#5ED1C5"/>
<rect x="2352" y="171" width="4" height="4" fill="#5ED1C5"/>
<rect x="2158" y="221" width="4" height="4" fill="#5ED1C5"/>
<rect x="2222.67" y="221" width="4" height="4" fill="#5ED1C5"/>
<rect x="2287.33" y="221" width="4" height="4" fill="#5ED1C5"/>
<rect x="2352" y="221" width="4" height="4" fill="#5ED1C5"/>
</g>
<rect x="2379.5" y="-2.5" width="245" height="251" stroke="#5ED1C5" stroke-opacity="0.2"/>
<path d="M2385 -3L2385 -2L2380 -2L2380 3L2379 3L2379 -2L2374 -2L2374 -3L2379 -3L2379 -8L2380 -8L2380 -3H2385Z" fill="#5ED1C5" fill-opacity="0.4"/>
<path d="M2630 -3L2630 -2L2625 -2L2625 3L2624 3L2624 -2L2619 -2L2619 -3L2624 -3L2624 -8L2625 -8L2625 -3H2630Z" fill="#5ED1C5" fill-opacity="0.4"/>
<path d="M2630 248L2630 249L2625 249L2625 254L2624 254L2624 249L2619 249L2619 248L2624 248L2624 243L2625 243L2625 248H2630Z" fill="#5ED1C5" fill-opacity="0.4"/>
<path d="M2385 248L2385 249L2380 249L2380 254L2379 254L2379 249L2374 249L2374 248L2379 248L2379 243L2380 243L2380 248H2385Z" fill="#5ED1C5" fill-opacity="0.4"/>
<g opacity="0.25">
<rect x="2403" y="21" width="4" height="4" fill="#5ED1C5"/>
<rect x="2467.67" y="21" width="4" height="4" fill="#5ED1C5"/>
<rect x="2532.33" y="21" width="4" height="4" fill="#5ED1C5"/>
<rect x="2597" y="21" width="4" height="4" fill="#5ED1C5"/>
<rect x="2403" y="71" width="4" height="4" fill="#5ED1C5"/>
<rect x="2467.67" y="71" width="4" height="4" fill="#5ED1C5"/>
<rect x="2532.33" y="71" width="4" height="4" fill="#5ED1C5"/>
<rect x="2597" y="71" width="4" height="4" fill="#5ED1C5"/>
<rect x="2403" y="121" width="4" height="4" fill="#5ED1C5"/>
<rect x="2467.67" y="121" width="4" height="4" fill="#5ED1C5"/>
<rect x="2532.33" y="121" width="4" height="4" fill="#5ED1C5"/>
<rect x="2597" y="121" width="4" height="4" fill="#5ED1C5"/>
<rect x="2403" y="171" width="4" height="4" fill="#5ED1C5"/>
<rect x="2467.67" y="171" width="4" height="4" fill="#5ED1C5"/>
<rect x="2532.33" y="171" width="4" height="4" fill="#5ED1C5"/>
<rect x="2597" y="171" width="4" height="4" fill="#5ED1C5"/>
<rect x="2403" y="221" width="4" height="4" fill="#5ED1C5"/>
<rect x="2467.67" y="221" width="4" height="4" fill="#5ED1C5"/>
<rect x="2532.33" y="221" width="4" height="4" fill="#5ED1C5"/>
<rect x="2597" y="221" width="4" height="4" fill="#5ED1C5"/>
</g>
<rect x="2624.5" y="-2.5" width="245" height="251" stroke="#5ED1C5" stroke-opacity="0.2"/>
<path d="M2630 -3L2630 -2L2625 -2L2625 3L2624 3L2624 -2L2619 -2L2619 -3L2624 -3L2624 -8L2625 -8L2625 -3H2630Z" fill="#5ED1C5" fill-opacity="0.4"/>
<path d="M2630 248L2630 249L2625 249L2625 254L2624 254L2624 249L2619 249L2619 248L2624 248L2624 243L2625 243L2625 248H2630Z" fill="#5ED1C5" fill-opacity="0.4"/>
<g opacity="0.25">
<rect x="2648" y="21" width="4" height="4" fill="#5ED1C5"/>
<rect x="2712.67" y="21" width="4" height="4" fill="#5ED1C5"/>
<rect x="2777.33" y="21" width="4" height="4" fill="#5ED1C5"/>
<rect x="2648" y="71" width="4" height="4" fill="#5ED1C5"/>
<rect x="2712.67" y="71" width="4" height="4" fill="#5ED1C5"/>
<rect x="2777.33" y="71" width="4" height="4" fill="#5ED1C5"/>
<rect x="2648" y="121" width="4" height="4" fill="#5ED1C5"/>
<rect x="2712.67" y="121" width="4" height="4" fill="#5ED1C5"/>
<rect x="2777.33" y="121" width="4" height="4" fill="#5ED1C5"/>
<rect x="2648" y="171" width="4" height="4" fill="#5ED1C5"/>
<rect x="2712.67" y="171" width="4" height="4" fill="#5ED1C5"/>
<rect x="2777.33" y="171" width="4" height="4" fill="#5ED1C5"/>
<rect x="2648" y="221" width="4" height="4" fill="#5ED1C5"/>
<rect x="2712.67" y="221" width="4" height="4" fill="#5ED1C5"/>
<rect x="2777.33" y="221" width="4" height="4" fill="#5ED1C5"/>
</g>
</svg>
