<svg width="160" height="48" viewBox="0 0 160 48" fill="none" xmlns="http://www.w3.org/2000/svg">
<rect width="3.69231" height="3.69231" transform="matrix(-1 0 0 1 137.846 22.1539)" fill="white"/>
<rect width="3.69231" height="3.69231" transform="matrix(-1 0 0 1 123.077 7.38464)" fill="white"/>
<rect width="3.69231" height="3.69231" transform="matrix(-1 0 0 1 130.462 14.7692)" fill="white"/>
<rect width="3.69231" height="3.69231" transform="matrix(-1 0 0 1 115.692 0)" fill="white"/>
<rect width="3.69231" height="3.69231" transform="matrix(-1 0 0 1 101.846 22.1539)" fill="white"/>
<rect width="3.69231" height="3.69231" transform="matrix(-1 0 0 1 87.0769 7.38464)" fill="white"/>
<rect width="3.69231" height="3.69231" transform="matrix(-1 0 0 1 94.4615 14.7692)" fill="white"/>
<rect width="3.69231" height="3.69231" transform="matrix(-1 0 0 1 79.6923 0)" fill="white"/>
<rect width="3.69231" height="3.69231" transform="matrix(-1 0 0 1 65.8462 22.1539)" fill="white"/>
<rect width="3.69231" height="3.69231" transform="matrix(-1 0 0 1 51.0769 7.38464)" fill="white"/>
<rect width="3.69231" height="3.69231" transform="matrix(-1 0 0 1 58.4615 14.7692)" fill="white"/>
<rect width="3.69231" height="3.69231" transform="matrix(-1 0 0 1 43.6923 0)" fill="white"/>
<rect width="3.69231" height="3.69231" transform="matrix(-1 0 0 1 29.8462 22.1539)" fill="white"/>
<rect width="3.69231" height="3.69231" transform="matrix(-1 0 0 1 15.0769 7.38464)" fill="white"/>
<rect width="3.69231" height="3.69231" transform="matrix(-1 0 0 1 22.4615 14.7692)" fill="white"/>
<rect width="3.69231" height="3.69231" transform="matrix(-1 0 0 1 7.69226 0)" fill="white"/>
</svg>
