<svg width="156" height="48" viewBox="0 0 156 48" fill="none" xmlns="http://www.w3.org/2000/svg">
<rect x="22.1538" y="22.1539" width="3.69231" height="3.69231" fill="white"/>
<rect x="36.9231" y="7.38464" width="3.69231" height="3.69231" fill="white"/>
<rect x="29.5385" y="14.7692" width="3.69231" height="3.69231" fill="white"/>
<rect x="44.3077" width="3.69231" height="3.69231" fill="white"/>
<rect x="58.1538" y="22.1539" width="3.69231" height="3.69231" fill="white"/>
<rect x="72.9231" y="7.38464" width="3.69231" height="3.69231" fill="white"/>
<rect x="65.5385" y="14.7692" width="3.69231" height="3.69231" fill="white"/>
<rect x="80.3077" width="3.69231" height="3.69231" fill="white"/>
<rect x="94.1538" y="22.1539" width="3.69231" height="3.69231" fill="white"/>
<rect x="108.923" y="7.38464" width="3.69231" height="3.69231" fill="white"/>
<rect x="101.538" y="14.7692" width="3.69231" height="3.69231" fill="white"/>
<rect x="116.308" width="3.69231" height="3.69231" fill="white"/>
<rect x="130.154" y="22.1539" width="3.69231" height="3.69231" fill="white"/>
<rect x="144.923" y="7.38464" width="3.69231" height="3.69231" fill="white"/>
<rect x="137.538" y="14.7692" width="3.69231" height="3.69231" fill="white"/>
<rect x="152.308" width="3.69231" height="3.69231" fill="white"/>
</svg>
