<svg width="517" height="517" viewBox="0 0 517 517" fill="none" xmlns="http://www.w3.org/2000/svg">
<rect x="516" y="253" width="14" height="14" transform="rotate(90 516 253)" fill="#6291FF" fill-opacity="0.4"/>
<rect x="515" y="277" width="14" height="14" transform="rotate(95.0821 515 277)" fill="#6291FF" fill-opacity="0.4"/>
<rect x="511" y="300" width="14" height="14" transform="rotate(100.361 511 300)" fill="#6291FF" fill-opacity="0.4"/>
<rect x="507" y="324" width="14" height="14" transform="rotate(105.814 507 324)" fill="#6291FF" fill-opacity="0.4"/>
<rect x="500" y="345" width="14" height="14" transform="rotate(110.997 500 345)" fill="#6291FF" fill-opacity="0.4"/>
<rect x="491" y="368" width="14" height="14" transform="rotate(116.338 491 368)" fill="#6291FF" fill-opacity="0.4"/>
<rect x="480" y="390" width="14" height="14" transform="rotate(121.626 480 390)" fill="#6291FF" fill-opacity="0.4"/>
<rect x="466" y="409" width="14" height="14" transform="rotate(127.079 466 409)" fill="#6291FF" fill-opacity="0.4"/>
<rect x="451" y="428" width="14" height="14" transform="rotate(132.293 451 428)" fill="#6291FF" fill-opacity="0.4"/>
<rect x="435" y="445" width="14" height="14" transform="rotate(137.498 435 445)" fill="#6291FF" fill-opacity="0.4"/>
<rect x="418" y="460" width="14" height="14" transform="rotate(142.712 418 460)" fill="#6291FF" fill-opacity="0.4"/>
<rect x="397" y="475" width="14" height="14" transform="rotate(148.164 397 475)" fill="#6291FF" fill-opacity="0.4"/>
<rect x="376" y="486" width="14" height="14" transform="rotate(153.449 376 486)" fill="#6291FF" fill-opacity="0.4"/>
<rect x="356" y="497" width="14" height="14" transform="rotate(158.788 356 497)" fill="#6291FF" fill-opacity="0.4"/>
<rect x="334" y="505" width="14" height="14" transform="rotate(163.969 334 505)" fill="#6291FF" fill-opacity="0.4"/>
<rect x="310" y="510" width="14" height="14" transform="rotate(169.42 310 510)" fill="#6291FF"/>
<rect x="287" y="515" width="14" height="14" transform="rotate(174.697 287 515)" fill="#6291FF"/>
<rect x="262" y="516" width="14" height="14" transform="rotate(-179.779 262 516)" fill="#6291FF"/>
<rect x="239" y="515" width="14" height="14" transform="rotate(-174.697 239 515)" fill="#6291FF"/>
<rect x="215" y="511" width="14" height="14" transform="rotate(-169.42 215 511)" fill="#6291FF"/>
<rect x="192" y="507" width="14" height="14" transform="rotate(-163.969 192 507)" fill="#6291FF"/>
<rect x="169" y="500" width="14" height="14" transform="rotate(-158.788 169 500)" fill="#6291FF"/>
<rect x="148" y="490" width="14" height="14" transform="rotate(-153.449 148 490)" fill="#6291FF"/>
<rect x="127" y="480" width="14" height="14" transform="rotate(-148.164 127 480)" fill="#6291FF"/>
<rect x="107" y="466" width="14" height="14" transform="rotate(-142.712 107 466)" fill="#6291FF"/>
<rect x="86.9999" y="451" width="14" height="14" transform="rotate(-137.498 86.9999 451)" fill="#6291FF"/>
<rect x="71.9999" y="434" width="14" height="14" transform="rotate(-132.293 71.9999 434)" fill="#6291FF"/>
<rect x="55.9999" y="416" width="14" height="14" transform="rotate(-127.079 55.9999 416)" fill="#6291FF"/>
<rect x="41.9999" y="397" width="14" height="14" transform="rotate(-121.626 41.9999 397)" fill="#6291FF"/>
<rect x="30.9999" y="376" width="14" height="14" transform="rotate(-116.338 30.9999 376)" fill="#6291FF"/>
<rect x="19.9999" y="355" width="14" height="14" transform="rotate(-110.997 19.9999 355)" fill="#6291FF"/>
<rect x="11.9999" y="333" width="14" height="14" transform="rotate(-105.814 11.9999 333)" fill="#6291FF"/>
<rect x="6.99994" y="309" width="14" height="14" transform="rotate(-100.361 6.99994 309)" fill="#6291FF"/>
<rect x="1.99994" y="285" width="14" height="14" transform="rotate(-95.0821 1.99994 285)" fill="#6291FF"/>
<rect x="1" y="260" width="14" height="14" transform="rotate(-89.5577 1 260)" fill="#6291FF"/>
<rect x="2" y="239" width="14" height="14" transform="rotate(-84.4768 2 239)" fill="#6291FF"/>
<rect x="6" y="215" width="14" height="14" transform="rotate(-79.2013 6 215)" fill="#6291FF"/>
<rect x="10" y="192" width="14" height="14" transform="rotate(-73.7518 10 192)" fill="#6291FF"/>
<rect x="17" y="168" width="14" height="14" transform="rotate(-68.3589 17 168)" fill="#6291FF"/>
<rect x="26" y="148" width="14" height="14" transform="rotate(-63.2367 26 148)" fill="#6291FF"/>
<rect x="40" y="126" width="14" height="14" transform="rotate(-57.743 40 126)" fill="#6291FF"/>
<rect x="51" y="107" width="14" height="14" transform="rotate(-52.5034 51 107)" fill="#6291FF"/>
<rect x="66" y="86.9999" width="14" height="14" transform="rotate(-47.2901 66 86.9999)" fill="#6291FF"/>
<rect x="82" y="71.9999" width="14" height="14" transform="rotate(-42.0851 82 71.9999)" fill="#6291FF"/>
<rect x="101" y="55.9999" width="14" height="14" transform="rotate(-36.6605 101 55.9999)" fill="#6291FF"/>
<rect x="120" y="41.9999" width="14" height="14" transform="rotate(-31.4151 120 41.9999)" fill="#6291FF"/>
<rect x="141" y="30.9999" width="14" height="14" transform="rotate(-26.1259 141 30.9999)" fill="#6291FF"/>
<rect x="162" y="19.9999" width="14" height="14" transform="rotate(-20.7822 162 19.9999)" fill="#6291FF"/>
<rect x="184" y="11.9999" width="14" height="14" transform="rotate(-15.5971 184 11.9999)" fill="#6291FF"/>
<rect x="208" y="6.99994" width="14" height="14" transform="rotate(-10.1414 208 6.99994)" fill="#6291FF"/>
<rect x="232" y="1.99994" width="14" height="14" transform="rotate(-4.86151 232 1.99994)" fill="#6291FF"/>
<rect x="257" y="1" width="14" height="14" transform="rotate(0.663504 257 1)" fill="#6291FF"/>
<rect x="278" y="2" width="14" height="14" transform="rotate(5.74371 278 2)" fill="#6291FF"/>
<rect x="302" y="6" width="14" height="14" transform="rotate(11.0177 302 6)" fill="#6291FF"/>
<rect x="327" y="11" width="14" height="14" transform="rotate(16.465 327 11)" fill="#6291FF"/>
<rect x="350" y="18" width="14" height="14" transform="rotate(21.8556 350 18)" fill="#6291FF"/>
<rect x="370" y="27" width="14" height="14" transform="rotate(27.1878 370 27)" fill="#6291FF"/>
<rect x="393" y="40" width="14" height="14" transform="rotate(32.4673 393 40)" fill="#6291FF" fill-opacity="0.4"/>
<rect x="411" y="52" width="14" height="14" transform="rotate(37.7055 411 52)" fill="#6291FF" fill-opacity="0.4"/>
<rect x="430" y="67" width="14" height="14" transform="rotate(42.9181 430 67)" fill="#6291FF" fill-opacity="0.4"/>
<rect x="445" y="83" width="14" height="14" transform="rotate(48.1232 445 83)" fill="#6291FF" fill-opacity="0.4"/>
<rect x="461" y="102" width="14" height="14" transform="rotate(53.5487 461 102)" fill="#6291FF" fill-opacity="0.4"/>
<rect x="476" y="122" width="14" height="14" transform="rotate(58.7955 476 122)" fill="#6291FF" fill-opacity="0.4"/>
<rect x="488" y="142" width="14" height="14" transform="rotate(64.0868 488 142)" fill="#6291FF" fill-opacity="0.4"/>
<rect x="497" y="164" width="14" height="14" transform="rotate(69.4327 497 164)" fill="#6291FF" fill-opacity="0.4"/>
<rect x="505" y="186" width="14" height="14" transform="rotate(74.6201 505 186)" fill="#6291FF" fill-opacity="0.4"/>
<rect x="510" y="209" width="14" height="14" transform="rotate(80.0779 510 209)" fill="#6291FF" fill-opacity="0.4"/>
<rect x="515" y="233" width="14" height="14" transform="rotate(85.3591 515 233)" fill="#6291FF" fill-opacity="0.4"/>
</svg>
