<svg viewBox="0 0 408 48" fill="none" xmlns="http://www.w3.org/2000/svg">
    <rect x="11.0769" y="22.1538" width="3.69231" height="3.69231" fill="white"/>
    <rect x="25.8462" y="7.38462" width="3.69231" height="3.69231" fill="white"/>
    <rect x="18.4615" y="14.7692" width="3.69231" height="3.69231" fill="white"/>
    <rect x="33.2307" width="3.69231" height="3.69231" fill="white"/>
    <rect width="3.69231" height="3.69231" transform="matrix(1 0 0 -1 25.8462 40.6154)" fill="white"/>
    <rect width="3.69231" height="3.69231" transform="matrix(1 0 0 -1 18.4615 33.2308)" fill="white"/>
    <rect width="3.69231" height="3.69231" transform="matrix(1 0 0 -1 33.2307 48)" fill="white"/>
    <rect x="51.0769" y="22.1538" width="3.69231" height="3.69231" fill="white"/>
    <rect x="65.8462" y="7.38462" width="3.69231" height="3.69231" fill="white"/>
    <rect x="58.4615" y="14.7692" width="3.69231" height="3.69231" fill="white"/>
    <rect x="73.2307" width="3.69231" height="3.69231" fill="white"/>
    <rect width="3.69231" height="3.69231" transform="matrix(1 0 0 -1 65.8462 40.6154)" fill="white"/>
    <rect width="3.69231" height="3.69231" transform="matrix(1 0 0 -1 58.4615 33.2308)" fill="white"/>
    <rect width="3.69231" height="3.69231" transform="matrix(1 0 0 -1 73.2307 48)" fill="white"/>
    <rect x="91.0769" y="22.1538" width="3.69231" height="3.69231" fill="white"/>
    <rect x="105.846" y="7.38462" width="3.69231" height="3.69231" fill="white"/>
    <rect x="98.4615" y="14.7692" width="3.69231" height="3.69231" fill="white"/>
    <rect x="113.231" width="3.69231" height="3.69231" fill="white"/>
    <rect width="3.69231" height="3.69231" transform="matrix(1 0 0 -1 105.846 40.6154)" fill="white"/>
    <rect width="3.69231" height="3.69231" transform="matrix(1 0 0 -1 98.4615 33.2308)" fill="white"/>
    <rect width="3.69231" height="3.69231" transform="matrix(1 0 0 -1 113.231 48)" fill="white"/>
    <rect x="131.077" y="22.1538" width="3.69231" height="3.69231" fill="white"/>
    <rect x="145.846" y="7.38462" width="3.69231" height="3.69231" fill="white"/>
    <rect x="138.462" y="14.7692" width="3.69231" height="3.69231" fill="white"/>
    <rect x="153.231" width="3.69231" height="3.69231" fill="white"/>
    <rect width="3.69231" height="3.69231" transform="matrix(1 0 0 -1 145.846 40.6154)" fill="white"/>
    <rect width="3.69231" height="3.69231" transform="matrix(1 0 0 -1 138.462 33.2308)" fill="white"/>
    <rect width="3.69231" height="3.69231" transform="matrix(1 0 0 -1 153.231 48)" fill="white"/>
    <rect x="171.077" y="22.1538" width="3.69231" height="3.69231" fill="white"/>
    <rect x="185.846" y="7.38462" width="3.69231" height="3.69231" fill="white"/>
    <rect x="178.462" y="14.7692" width="3.69231" height="3.69231" fill="white"/>
    <rect x="193.231" width="3.69231" height="3.69231" fill="white"/>
    <rect width="3.69231" height="3.69231" transform="matrix(1 0 0 -1 185.846 40.6154)" fill="white"/>
    <rect width="3.69231" height="3.69231" transform="matrix(1 0 0 -1 178.462 33.2308)" fill="white"/>
    <rect width="3.69231" height="3.69231" transform="matrix(1 0 0 -1 193.231 48)" fill="white"/>
    <rect x="211.077" y="22.1538" width="3.69231" height="3.69231" fill="white"/>
    <rect x="225.846" y="7.38462" width="3.69231" height="3.69231" fill="white"/>
    <rect x="218.462" y="14.7692" width="3.69231" height="3.69231" fill="white"/>
    <rect x="233.231" width="3.69231" height="3.69231" fill="white"/>
    <rect width="3.69231" height="3.69231" transform="matrix(1 0 0 -1 225.846 40.6154)" fill="white"/>
    <rect width="3.69231" height="3.69231" transform="matrix(1 0 0 -1 218.462 33.2308)" fill="white"/>
    <rect width="3.69231" height="3.69231" transform="matrix(1 0 0 -1 233.231 48)" fill="white"/>
    <rect x="251.077" y="22.1538" width="3.69231" height="3.69231" fill="white"/>
    <rect x="265.846" y="7.38462" width="3.69231" height="3.69231" fill="white"/>
    <rect x="258.462" y="14.7692" width="3.69231" height="3.69231" fill="white"/>
    <rect x="273.231" width="3.69231" height="3.69231" fill="white"/>
    <rect width="3.69231" height="3.69231" transform="matrix(1 0 0 -1 265.846 40.6154)" fill="white"/>
    <rect width="3.69231" height="3.69231" transform="matrix(1 0 0 -1 258.462 33.2308)" fill="white"/>
    <rect width="3.69231" height="3.69231" transform="matrix(1 0 0 -1 273.231 48)" fill="white"/>
    <rect x="291.077" y="22.1538" width="3.69231" height="3.69231" fill="white"/>
    <rect x="305.846" y="7.38462" width="3.69231" height="3.69231" fill="white"/>
    <rect x="298.462" y="14.7692" width="3.69231" height="3.69231" fill="white"/>
    <rect x="313.231" width="3.69231" height="3.69231" fill="white"/>
    <rect width="3.69231" height="3.69231" transform="matrix(1 0 0 -1 305.846 40.6154)" fill="white"/>
    <rect width="3.69231" height="3.69231" transform="matrix(1 0 0 -1 298.462 33.2308)" fill="white"/>
    <rect width="3.69231" height="3.69231" transform="matrix(1 0 0 -1 313.231 48)" fill="white"/>
    <rect x="331.077" y="22.1538" width="3.69231" height="3.69231" fill="white"/>
    <rect x="345.846" y="7.38462" width="3.69231" height="3.69231" fill="white"/>
    <rect x="338.462" y="14.7692" width="3.69231" height="3.69231" fill="white"/>
    <rect x="353.231" width="3.69231" height="3.69231" fill="white"/>
    <rect width="3.69231" height="3.69231" transform="matrix(1 0 0 -1 345.846 40.6154)" fill="white"/>
    <rect width="3.69231" height="3.69231" transform="matrix(1 0 0 -1 338.462 33.2308)" fill="white"/>
    <rect width="3.69231" height="3.69231" transform="matrix(1 0 0 -1 353.231 48)" fill="white"/>
    <rect x="371.077" y="22.1538" width="3.69231" height="3.69231" fill="white"/>
    <rect x="385.846" y="7.38462" width="3.69231" height="3.69231" fill="white"/>
    <rect x="378.462" y="14.7692" width="3.69231" height="3.69231" fill="white"/>
    <rect x="393.231" width="3.69231" height="3.69231" fill="white"/>
    <rect width="3.69231" height="3.69231" transform="matrix(1 0 0 -1 385.846 40.6154)" fill="white"/>
    <rect width="3.69231" height="3.69231" transform="matrix(1 0 0 -1 378.462 33.2308)" fill="white"/>
    <rect width="3.69231" height="3.69231" transform="matrix(1 0 0 -1 393.231 48)" fill="white"/>
</svg>
