<svg viewBox="0 0 408 48" fill="none" xmlns="http://www.w3.org/2000/svg">
    <rect width="3.69231" height="3.69231" transform="matrix(-1 0 0 1 396.923 22.1538)" fill="white"/>
    <rect width="3.69231" height="3.69231" transform="matrix(-1 0 0 1 382.154 7.38462)" fill="white"/>
    <rect width="3.69231" height="3.69231" transform="matrix(-1 0 0 1 389.538 14.7692)" fill="white"/>
    <rect width="3.69231" height="3.69231" transform="matrix(-1 0 0 1 374.769 0)" fill="white"/>
    <rect x="382.154" y="40.6154" width="3.69231" height="3.69231" transform="rotate(180 382.154 40.6154)" fill="white"/>
    <rect x="389.538" y="33.2308" width="3.69231" height="3.69231" transform="rotate(180 389.538 33.2308)" fill="white"/>
    <rect x="374.769" y="48" width="3.69231" height="3.69231" transform="rotate(180 374.769 48)" fill="white"/>
    <rect width="3.69231" height="3.69231" transform="matrix(-1 0 0 1 356.923 22.1538)" fill="white"/>
    <rect width="3.69231" height="3.69231" transform="matrix(-1 0 0 1 342.154 7.38462)" fill="white"/>
    <rect width="3.69231" height="3.69231" transform="matrix(-1 0 0 1 349.538 14.7692)" fill="white"/>
    <rect width="3.69231" height="3.69231" transform="matrix(-1 0 0 1 334.769 0)" fill="white"/>
    <rect x="342.154" y="40.6154" width="3.69231" height="3.69231" transform="rotate(180 342.154 40.6154)" fill="white"/>
    <rect x="349.538" y="33.2308" width="3.69231" height="3.69231" transform="rotate(180 349.538 33.2308)" fill="white"/>
    <rect x="334.769" y="48" width="3.69231" height="3.69231" transform="rotate(180 334.769 48)" fill="white"/>
    <rect width="3.69231" height="3.69231" transform="matrix(-1 0 0 1 316.923 22.1538)" fill="white"/>
    <rect width="3.69231" height="3.69231" transform="matrix(-1 0 0 1 302.154 7.38462)" fill="white"/>
    <rect width="3.69231" height="3.69231" transform="matrix(-1 0 0 1 309.538 14.7692)" fill="white"/>
    <rect width="3.69231" height="3.69231" transform="matrix(-1 0 0 1 294.769 0)" fill="white"/>
    <rect x="302.154" y="40.6154" width="3.69231" height="3.69231" transform="rotate(180 302.154 40.6154)" fill="white"/>
    <rect x="309.538" y="33.2308" width="3.69231" height="3.69231" transform="rotate(180 309.538 33.2308)" fill="white"/>
    <rect x="294.769" y="48" width="3.69231" height="3.69231" transform="rotate(180 294.769 48)" fill="white"/>
    <rect width="3.69231" height="3.69231" transform="matrix(-1 0 0 1 276.923 22.1538)" fill="white"/>
    <rect width="3.69231" height="3.69231" transform="matrix(-1 0 0 1 262.154 7.38462)" fill="white"/>
    <rect width="3.69231" height="3.69231" transform="matrix(-1 0 0 1 269.538 14.7692)" fill="white"/>
    <rect width="3.69231" height="3.69231" transform="matrix(-1 0 0 1 254.769 0)" fill="white"/>
    <rect x="262.154" y="40.6154" width="3.69231" height="3.69231" transform="rotate(180 262.154 40.6154)" fill="white"/>
    <rect x="269.538" y="33.2308" width="3.69231" height="3.69231" transform="rotate(180 269.538 33.2308)" fill="white"/>
    <rect x="254.769" y="48" width="3.69231" height="3.69231" transform="rotate(180 254.769 48)" fill="white"/>
    <rect width="3.69231" height="3.69231" transform="matrix(-1 0 0 1 236.923 22.1538)" fill="white"/>
    <rect width="3.69231" height="3.69231" transform="matrix(-1 0 0 1 222.154 7.38462)" fill="white"/>
    <rect width="3.69231" height="3.69231" transform="matrix(-1 0 0 1 229.538 14.7692)" fill="white"/>
    <rect width="3.69231" height="3.69231" transform="matrix(-1 0 0 1 214.769 0)" fill="white"/>
    <rect x="222.154" y="40.6154" width="3.69231" height="3.69231" transform="rotate(180 222.154 40.6154)" fill="white"/>
    <rect x="229.538" y="33.2308" width="3.69231" height="3.69231" transform="rotate(180 229.538 33.2308)" fill="white"/>
    <rect x="214.769" y="48" width="3.69231" height="3.69231" transform="rotate(180 214.769 48)" fill="white"/>
    <rect width="3.69231" height="3.69231" transform="matrix(-1 0 0 1 196.923 22.1538)" fill="white"/>
    <rect width="3.69231" height="3.69231" transform="matrix(-1 0 0 1 182.154 7.38462)" fill="white"/>
    <rect width="3.69231" height="3.69231" transform="matrix(-1 0 0 1 189.538 14.7692)" fill="white"/>
    <rect width="3.69231" height="3.69231" transform="matrix(-1 0 0 1 174.769 0)" fill="white"/>
    <rect x="182.154" y="40.6154" width="3.69231" height="3.69231" transform="rotate(180 182.154 40.6154)" fill="white"/>
    <rect x="189.538" y="33.2308" width="3.69231" height="3.69231" transform="rotate(180 189.538 33.2308)" fill="white"/>
    <rect x="174.769" y="48" width="3.69231" height="3.69231" transform="rotate(180 174.769 48)" fill="white"/>
    <rect width="3.69231" height="3.69231" transform="matrix(-1 0 0 1 156.923 22.1538)" fill="white"/>
    <rect width="3.69231" height="3.69231" transform="matrix(-1 0 0 1 142.154 7.38462)" fill="white"/>
    <rect width="3.69231" height="3.69231" transform="matrix(-1 0 0 1 149.538 14.7692)" fill="white"/>
    <rect width="3.69231" height="3.69231" transform="matrix(-1 0 0 1 134.769 0)" fill="white"/>
    <rect x="142.154" y="40.6154" width="3.69231" height="3.69231" transform="rotate(180 142.154 40.6154)" fill="white"/>
    <rect x="149.538" y="33.2308" width="3.69231" height="3.69231" transform="rotate(180 149.538 33.2308)" fill="white"/>
    <rect x="134.769" y="48" width="3.69231" height="3.69231" transform="rotate(180 134.769 48)" fill="white"/>
    <rect width="3.69231" height="3.69231" transform="matrix(-1 0 0 1 116.923 22.1538)" fill="white"/>
    <rect width="3.69231" height="3.69231" transform="matrix(-1 0 0 1 102.154 7.38462)" fill="white"/>
    <rect width="3.69231" height="3.69231" transform="matrix(-1 0 0 1 109.538 14.7692)" fill="white"/>
    <rect width="3.69231" height="3.69231" transform="matrix(-1 0 0 1 94.7692 0)" fill="white"/>
    <rect x="102.154" y="40.6154" width="3.69231" height="3.69231" transform="rotate(180 102.154 40.6154)" fill="white"/>
    <rect x="109.538" y="33.2308" width="3.69231" height="3.69231" transform="rotate(180 109.538 33.2308)" fill="white"/>
    <rect x="94.7692" y="48" width="3.69231" height="3.69231" transform="rotate(180 94.7692 48)" fill="white"/>
    <rect width="3.69231" height="3.69231" transform="matrix(-1 0 0 1 76.9231 22.1538)" fill="white"/>
    <rect width="3.69231" height="3.69231" transform="matrix(-1 0 0 1 62.1539 7.38462)" fill="white"/>
    <rect width="3.69231" height="3.69231" transform="matrix(-1 0 0 1 69.5385 14.7692)" fill="white"/>
    <rect width="3.69231" height="3.69231" transform="matrix(-1 0 0 1 54.7692 0)" fill="white"/>
    <rect x="62.1539" y="40.6154" width="3.69231" height="3.69231" transform="rotate(180 62.1539 40.6154)" fill="white"/>
    <rect x="69.5385" y="33.2308" width="3.69231" height="3.69231" transform="rotate(180 69.5385 33.2308)" fill="white"/>
    <rect x="54.7692" y="48" width="3.69231" height="3.69231" transform="rotate(180 54.7692 48)" fill="white"/>
    <rect width="3.69231" height="3.69231" transform="matrix(-1 0 0 1 36.9231 22.1538)" fill="white"/>
    <rect width="3.69231" height="3.69231" transform="matrix(-1 0 0 1 22.1539 7.38462)" fill="white"/>
    <rect width="3.69231" height="3.69231" transform="matrix(-1 0 0 1 29.5385 14.7692)" fill="white"/>
    <rect width="3.69231" height="3.69231" transform="matrix(-1 0 0 1 14.7692 0)" fill="white"/>
    <rect x="22.1539" y="40.6154" width="3.69231" height="3.69231" transform="rotate(180 22.1539 40.6154)" fill="white"/>
    <rect x="29.5385" y="33.2308" width="3.69231" height="3.69231" transform="rotate(180 29.5385 33.2308)" fill="white"/>
    <rect x="14.7692" y="48" width="3.69231" height="3.69231" transform="rotate(180 14.7692 48)" fill="white"/>
</svg>
