<svg width="128" height="96" viewBox="0 0 128 96" fill="none" xmlns="http://www.w3.org/2000/svg">
<g id="Hint_icon">
<path id="Vector 5" opacity="0.8" d="M117.332 22.5254L104.24 4.73535L23.0676 4.73536L9.97537 22.5254L51.8707 91.1444L75.4368 91.1444L117.332 22.5254Z" stroke="url(#paint0_linear_2014_7488)" stroke-width="2.61846"/>
<path id="!" d="M61.0733 54.1314C60.774 54.1314 60.5246 54.0566 60.3251 53.907C60.1755 53.7075 60.1007 53.4581 60.1007 53.1588V21.7972C60.1007 21.4481 60.1755 21.1987 60.3251 21.049C60.5246 20.8994 60.774 20.8246 61.0733 20.8246H64.889C65.2382 20.8246 65.4876 20.8994 65.6372 21.049C65.8367 21.1987 65.9365 21.4481 65.9365 21.7972V53.1588C65.9365 53.4581 65.8367 53.7075 65.6372 53.907C65.4876 54.0566 65.2382 54.1314 64.889 54.1314H61.0733ZM60.6992 69.1972C60.3999 69.1972 60.1505 69.1224 59.951 68.9728C59.8014 68.7733 59.7266 68.5239 59.7266 68.2246V63.0621C59.7266 62.713 59.8014 62.4636 59.951 62.314C60.1505 62.1643 60.3999 62.0895 60.6992 62.0895H65.2631C65.6123 62.0895 65.8616 62.1643 66.0113 62.314C66.2108 62.4636 66.3106 62.713 66.3106 63.0621V68.2246C66.3106 68.5239 66.2108 68.7733 66.0113 68.9728C65.8616 69.1224 65.6123 69.1972 65.2631 69.1972H60.6992Z" fill="white"/>
</g>
<defs>
<linearGradient id="paint0_linear_2014_7488" x1="63.5" y1="96.5" x2="63.5" y2="1.5" gradientUnits="userSpaceOnUse">
<stop stop-color="#D80027" stop-opacity="0"/>
<stop offset="0.620034" stop-color="#D80027"/>
<stop offset="1" stop-color="#D80027" stop-opacity="0"/>
</linearGradient>
</defs>
</svg>
