<svg width="24" height="150" viewBox="0 0 24 150" fill="none" xmlns="http://www.w3.org/2000/svg">
<rect x="20" y="4" width="4" height="4" transform="rotate(-90 20 4)" fill="white" fill-opacity="0.4"/>
<rect x="16" y="8" width="4" height="4" transform="rotate(-90 16 8)" fill="white" fill-opacity="0.4"/>
<rect x="12" y="12" width="4" height="4" transform="rotate(-90 12 12)" fill="white" fill-opacity="0.4"/>
<rect x="8" y="16" width="4" height="4" transform="rotate(-90 8 16)" fill="white" fill-opacity="0.4"/>
<rect x="4" y="20" width="4" height="4" transform="rotate(-90 4 20)" fill="white" fill-opacity="0.4"/>
<rect y="24" width="4" height="4" transform="rotate(-90 0 24)" fill="white" fill-opacity="0.4"/>
<rect x="20" y="20" width="4" height="4" transform="rotate(-90 20 20)" fill="white" fill-opacity="0.4"/>
<rect x="16" y="24" width="4" height="4" transform="rotate(-90 16 24)" fill="white" fill-opacity="0.4"/>
<rect x="12" y="28" width="4" height="4" transform="rotate(-90 12 28)" fill="white" fill-opacity="0.4"/>
<rect x="8" y="32" width="4" height="4" transform="rotate(-90 8 32)" fill="white" fill-opacity="0.4"/>
<rect x="4" y="36" width="4" height="4" transform="rotate(-90 4 36)" fill="white" fill-opacity="0.4"/>
<rect y="40" width="4" height="4" transform="rotate(-90 0 40)" fill="white" fill-opacity="0.4"/>
</svg>
