<svg width="88" height="88" viewBox="0 0 88 88" fill="none" xmlns="http://www.w3.org/2000/svg">
<mask id="path-1-inside-1_8366_13607" fill="white">
<path d="M0 0H88V88H0V0Z"/>
</mask>
<path d="M0 0H88V88H0V0Z" fill="#0F0F0F"/>
<path d="M0 0V-2H-2V0H0ZM0 88H-2V90H0V88ZM0 2H88V-2H0V2ZM88 86H0V90H88V86ZM2 88V0H-2V88H2Z" fill="#787878" mask="url(#path-1-inside-1_8366_13607)"/>
<path d="M48.4999 25.5001L62.4999 39.5003H48.5002L48.4999 25.5001ZM25.4999 48.5003L39.4999 62.5001L39.5002 48.5003H25.4999ZM39.5002 25.5001L25.4999 39.5003H39.5002V25.5001ZM48.5002 48.5003C48.5002 53.1669 48.4996 57.8335 48.4999 62.5001L62.4999 48.5003C62.4999 48.5003 53.1668 48.5003 48.5002 48.5003Z" fill="#787878"/>
</svg>
