<svg width="56" height="56" viewBox="0 0 56 56" fill="none" xmlns="http://www.w3.org/2000/svg">
<path d="M53.8127 28C53.8127 42.2558 42.256 53.8125 28.0002 53.8125M53.8127 28C53.8127 13.7441 42.256 2.1875 28.0002 2.1875M53.8127 28H2.18768M28.0002 53.8125C13.7443 53.8125 2.18768 42.2558 2.18768 28M28.0002 53.8125C36.5779 53.8125 43.5314 42.2558 43.5314 28C43.5314 13.7441 36.5779 2.1875 28.0002 2.1875M28.0002 53.8125C19.4225 53.8125 12.4689 42.2558 12.4689 28C12.4689 13.7441 19.4225 2.1875 28.0002 2.1875M28.0002 53.8125C30.8997 53.8125 33.2502 42.2558 33.2502 28C33.2502 13.7441 30.8997 2.1875 28.0002 2.1875M28.0002 53.8125C25.1007 53.8125 22.7502 42.2558 22.7502 28C22.7502 13.7441 25.1007 2.1875 28.0002 2.1875M2.18768 28C2.18768 13.7441 13.7443 2.1875 28.0002 2.1875M8.75018 10.9375H47.3596M8.64081 45.0625H47.3596" stroke="white" stroke-width="1.25"/>
</svg>
