<svg width="88" height="88" viewBox="0 0 88 88" fill="none" xmlns="http://www.w3.org/2000/svg">
<rect width="88" height="88" fill="#6291FF"/>
<path d="M44 24.5C40.1433 24.5 36.3731 25.6437 33.1664 27.7863C29.9596 29.929 27.4603 32.9745 25.9844 36.5377C24.5084 40.1008 24.1223 44.0216 24.8747 47.8043C25.6271 51.5869 27.4843 55.0615 30.2114 57.7886C32.9386 60.5157 36.4131 62.3729 40.1957 63.1253C43.9784 63.8777 47.8992 63.4916 51.4623 62.0156C55.0255 60.5397 58.071 58.0404 60.2137 54.8336C62.3564 51.6269 63.5 47.8567 63.5 44C63.4945 38.83 61.4383 33.8732 57.7826 30.2174C54.1268 26.5617 49.1701 24.5055 44 24.5ZM31.6794 54.9631L32.1519 54.6538C32.5645 54.3816 32.9034 54.0117 33.1386 53.577C33.3738 53.1423 33.498 52.6561 33.5 52.1619L33.5394 45.3688L37.4694 39.5C37.4886 39.5148 37.5087 39.5286 37.5294 39.5413L41.2175 41.9544C41.8356 42.3906 42.5961 42.5762 43.3456 42.4738L49.25 41.6731C49.9781 41.576 50.6453 41.215 51.125 40.6588L55.2819 35.8287C55.7468 35.2841 56.0015 34.5911 56 33.875V32.6881C58.0289 34.8346 59.4434 37.487 60.0956 40.3677C60.7477 43.2484 60.6135 46.2515 59.7069 49.0625L56.6806 46.295C56.2599 45.9088 55.7377 45.6508 55.1754 45.5511C54.6131 45.4515 54.034 45.5144 53.5063 45.7325L47.795 48.1044C47.3175 48.3048 46.8996 48.6249 46.5817 49.0338C46.2638 49.4427 46.0566 49.9265 45.98 50.4387L45.5319 53.4744C45.4242 54.205 45.5898 54.9498 45.997 55.5659C46.4042 56.1821 47.0244 56.6264 47.7388 56.8138L51.7625 57.875L52.205 58.3194C48.9193 60.2046 45.0843 60.9001 41.3458 60.2888C37.6072 59.6775 34.1935 57.7967 31.6794 54.9631Z" fill="black"/>
</svg>
