<svg width="90" height="90" viewBox="0 0 90 90" fill="none" xmlns="http://www.w3.org/2000/svg">
<path d="M1 1H89V89H1V68V22V1Z" fill="#0F0F0F" stroke="#787878" stroke-width="2"/>
<path d="M42.614 50.02C42.386 50.02 42.2087 49.9694 42.082 49.868C41.9807 49.7414 41.93 49.564 41.93 49.336V43.636C41.93 43.408 41.9807 43.2434 42.082 43.142C42.2087 43.0407 42.386 42.99 42.614 42.99H47.592C48.5294 42.99 49.2007 42.7874 49.606 42.382C50.0367 41.9514 50.252 41.2674 50.252 40.33V37.746C50.252 36.8087 50.0367 36.1374 49.606 35.732C49.2007 35.3014 48.5294 35.086 47.592 35.086H41.55C40.6127 35.086 39.9287 35.3014 39.498 35.732C39.0927 36.1374 38.89 36.8087 38.89 37.746V38.848C38.89 39.0507 38.8394 39.2154 38.738 39.342C38.6367 39.4434 38.472 39.494 38.244 39.494H34.9C34.6974 39.494 34.5327 39.4434 34.406 39.342C34.3047 39.2154 34.254 39.0507 34.254 38.848V37.594C34.254 36.0994 34.4694 34.8834 34.9 33.946C35.356 33.0087 36.0527 32.3247 36.99 31.894C37.9274 31.438 39.156 31.21 40.676 31.21H48.466C49.9607 31.21 51.1767 31.438 52.114 31.894C53.0514 32.3247 53.7354 33.0087 54.166 33.946C54.622 34.8834 54.85 36.0994 54.85 37.594V40.178C54.85 41.6727 54.622 42.9014 54.166 43.864C53.7354 44.8014 53.0514 45.498 52.114 45.954C51.1767 46.3847 49.9607 46.6 48.466 46.6H46.452V49.336C46.452 49.564 46.4014 49.7414 46.3 49.868C46.1987 49.9694 46.034 50.02 45.806 50.02H42.614ZM42.424 58C42.196 58 42.0187 57.9494 41.892 57.848C41.7907 57.7214 41.74 57.544 41.74 57.316V53.82C41.74 53.5667 41.7907 53.3894 41.892 53.288C42.0187 53.1867 42.196 53.136 42.424 53.136H45.996C46.224 53.136 46.3887 53.1867 46.49 53.288C46.5914 53.3894 46.642 53.5667 46.642 53.82V57.316C46.642 57.544 46.5914 57.7214 46.49 57.848C46.3887 57.9494 46.224 58 45.996 58H42.424Z" fill="#787878"/>
</svg>
