<svg width="88" height="88" viewBox="0 0 88 88" fill="none" xmlns="http://www.w3.org/2000/svg">
<rect width="88" height="88" fill="#5ED1C5"/>
<path d="M23.6835 30.762L23.5525 33.1625L23.2906 34.0343L22.6787 35.6919L22.1548 36.4777V36.9586L21.9809 37.3515L22.1118 38.0923L21.8929 38.7042L21.5 39.2711L21.7189 39.9259L21.588 40.9737L22.1998 42.3694L22.1568 43.0691L22.5067 43.593L22.2858 44.0289L22.8977 45.3386L22.9856 46.2984L23.7714 46.6463L24.1194 47.1702L24.7312 47.3012L25.3431 48.2179L25.4741 49.1347L26.7387 49.3087L27.6555 49.3517L29.0512 50.3994L30.7088 51.2713L31.7116 51.4902L33.2832 51.6642L33.3712 51.2283L34.9858 51.4022L35.2047 51.7951L35.6856 52.231L35.8165 52.5809L36.4284 53.2358L36.6043 53.9336L37.0402 54.3265L37.7381 54.7194L38.086 54.3715L38.5669 53.8476L39.3956 53.8495L40.0935 54.5044L40.6174 55.8141L41.1842 57.3379L41.2272 57.9498L41.6201 58.6476L41.9251 58.8216L42.4059 58.9526L43.0178 59.0405L43.4537 59.1715L43.1918 58.1237L43.4107 56.2949L43.9346 55.7281L44.6324 55.2042L45.2872 54.8562L45.9851 54.2894L46.6399 54.0274L47.2518 53.9395L48.0805 54.1154L48.8233 54.1584L49.4782 54.5513L50.0021 54.5083L50.35 54.1604L50.9169 54.5963L51.0909 54.3773L50.6549 53.9414L50.567 53.4606L50.9599 53.1107L51.6577 53.0677L52.2246 53.1107L52.7054 53.0227L53.7102 52.8468L54.582 53.3707L56.3678 55.1087L56.7157 54.9348L57.3706 55.2847L58.0254 55.7206L58.2443 57.1163L58.4633 57.5522L59.0301 58.164L59.642 58.9928L60.4278 59.5597H60.9087L61.1276 59.0358V58.164L60.8226 57.2472L60.4297 56.6354L59.9059 55.5876L58.294 52.6278L57.9891 51.756L58.0321 51.0151L58.294 50.3173L58.7299 49.8364L59.2108 49.3126L59.6037 48.7457L59.8226 48.1788L60.5204 47.8309L60.6514 47.35L61.0443 46.9571L61.7871 46.5212L61.5682 46.2163L61.3942 45.9543L61.9611 45.8664L62.049 45.4735L61.7871 44.9926L61.6092 44.3339L61.1284 43.984L61.6522 43.5481L61.9572 42.8072L61.9142 42.1953L62.0882 41.6285L62.3501 40.9736L62.526 40.5377L62.1331 40.0138L62.526 39.7519L63.2238 39.5779L63.7477 39.0971L64.2286 38.4852L64.6645 38.0044L64.1836 37.3495L64.4026 36.9996L64.1406 36.6947L64.3146 35.7349L64.9264 35.385L65.1024 34.8181H65.4953L66.5 34.0323L65.8881 33.7704L65.7572 33.3345L65.4522 33.2465L65.0163 31.8939H64.2755L63.8826 31.7629L63.4897 32.6796L63.5776 33.5964L63.3157 34.2942L62.9228 34.5131L62.8309 34.7751L60.3875 35.4729L59.7327 36.2587L59.4277 36.6086L59.2968 37.0445L57.5512 37.6114L57.7251 38.3092L56.8964 39.138L56.1555 39.3139L55.3267 40.0997L54.6289 39.8378L54.6738 39.4879L55.0668 39.007L55.1547 37.8283L54.6738 36.2137L53.7571 35.7778L53.4522 35.5158L53.1902 35.1659L52.8853 35.1229L49.83 33.5513L49.1752 34.0322L48.6513 33.8133L48.0844 33.7702L47.6485 33.9892L47.2556 33.6842L46.9937 33.7722L46.5578 33.2053L45.9029 33.5103L45.3361 33.3363C45.3361 33.3363 45.0311 32.3765 45.0311 32.5075C45.0311 32.6385 44.8571 32.9884 44.8571 32.9884L41.8019 33.0763L39.7513 32.9024L37.394 32.7714L34.9935 32.5525L32.5501 32.1166L30.4116 31.7237L28.1422 31.2428L26.3536 30.8499L24.825 30.5L24.782 30.9359L24.651 31.2838L23.6835 30.762Z" fill="black"/>
</svg>
