<svg width="88" height="88" viewBox="0 0 88 88" fill="none" xmlns="http://www.w3.org/2000/svg">
<mask id="path-1-inside-1_4591_81200" fill="white">
<path d="M0 0H88V88H0V0Z"/>
</mask>
<path d="M0 0H88V88H0V0Z" fill="#0F0F0F"/>
<path d="M88 0H90V-2H88V0ZM88 88V90H90V88H88ZM0 2H88V-2H0V2ZM86 0V88H90V0H86ZM88 86H0V90H88V86Z" fill="#787878" mask="url(#path-1-inside-1_4591_81200)"/>
<path d="M40.0005 60.5H27.5006L27.5006 48L40.0005 60.5ZM27.5 27.5014L27.5002 40L40.0002 27.5L27.5 27.5014ZM60.5005 48L48.0005 60.5015H60.5002L60.5005 48ZM48.0004 27.5L60.5002 40C60.5002 35.8339 60.5002 31.6677 60.5002 27.5016C56.3336 27.5012 52.167 27.5006 48.0004 27.5Z" fill="#787878"/>
</svg>
