<svg width="24" height="150" viewBox="0 0 24 150" fill="none" xmlns="http://www.w3.org/2000/svg">
<rect x="20" y="4" width="4" height="4" transform="rotate(-90 20 4)" fill="white" fill-opacity="0.4"/>
<rect x="16" y="8" width="4" height="4" transform="rotate(-90 16 8)" fill="white" fill-opacity="0.4"/>
<rect x="12" y="12" width="4" height="4" transform="rotate(-90 12 12)" fill="white" fill-opacity="0.4"/>
<rect x="8" y="16" width="4" height="4" transform="rotate(-90 8 16)" fill="white" fill-opacity="0.4"/>
<rect x="4" y="20" width="4" height="4" transform="rotate(-90 4 20)" fill="white" fill-opacity="0.4"/>
<rect y="24" width="4" height="4" transform="rotate(-90 0 24)" fill="white" fill-opacity="0.4"/>
<rect x="20" y="20" width="4" height="4" transform="rotate(-90 20 20)" fill="white" fill-opacity="0.4"/>
<rect x="16" y="24" width="4" height="4" transform="rotate(-90 16 24)" fill="white" fill-opacity="0.4"/>
<rect x="12" y="28" width="4" height="4" transform="rotate(-90 12 28)" fill="white" fill-opacity="0.4"/>
<rect x="8" y="32" width="4" height="4" transform="rotate(-90 8 32)" fill="white" fill-opacity="0.4"/>
<rect x="4" y="36" width="4" height="4" transform="rotate(-90 4 36)" fill="white" fill-opacity="0.4"/>
<rect y="40" width="4" height="4" transform="rotate(-90 0 40)" fill="white" fill-opacity="0.4"/>
<rect x="20" y="36" width="4" height="4" transform="rotate(-90 20 36)" fill="white" fill-opacity="0.4"/>
<rect x="16" y="40" width="4" height="4" transform="rotate(-90 16 40)" fill="white" fill-opacity="0.4"/>
<rect x="12" y="44" width="4" height="4" transform="rotate(-90 12 44)" fill="white" fill-opacity="0.4"/>
<rect x="8" y="48" width="4" height="4" transform="rotate(-90 8 48)" fill="white" fill-opacity="0.4"/>
<rect x="4" y="52" width="4" height="4" transform="rotate(-90 4 52)" fill="white" fill-opacity="0.4"/>
<rect y="56" width="4" height="4" transform="rotate(-90 0 56)" fill="white" fill-opacity="0.4"/>
<rect x="20" y="52" width="4" height="4" transform="rotate(-90 20 52)" fill="white" fill-opacity="0.4"/>
<rect x="16" y="56" width="4" height="4" transform="rotate(-90 16 56)" fill="white" fill-opacity="0.4"/>
<rect x="12" y="60" width="4" height="4" transform="rotate(-90 12 60)" fill="white" fill-opacity="0.4"/>
<rect x="8" y="64" width="4" height="4" transform="rotate(-90 8 64)" fill="white" fill-opacity="0.4"/>
<rect x="4" y="68" width="4" height="4" transform="rotate(-90 4 68)" fill="white" fill-opacity="0.4"/>
<rect y="72" width="4" height="4" transform="rotate(-90 0 72)" fill="white" fill-opacity="0.4"/>
<rect x="20" y="68" width="4" height="4" transform="rotate(-90 20 68)" fill="white" fill-opacity="0.4"/>
<rect x="16" y="72" width="4" height="4" transform="rotate(-90 16 72)" fill="white" fill-opacity="0.4"/>
<rect x="12" y="76" width="4" height="4" transform="rotate(-90 12 76)" fill="white" fill-opacity="0.4"/>
<rect x="8" y="80" width="4" height="4" transform="rotate(-90 8 80)" fill="white" fill-opacity="0.4"/>
<rect x="4" y="84" width="4" height="4" transform="rotate(-90 4 84)" fill="white" fill-opacity="0.4"/>
<rect y="88" width="4" height="4" transform="rotate(-90 0 88)" fill="white" fill-opacity="0.4"/>
<rect x="20" y="84" width="4" height="4" transform="rotate(-90 20 84)" fill="white" fill-opacity="0.4"/>
<rect x="16" y="88" width="4" height="4" transform="rotate(-90 16 88)" fill="white" fill-opacity="0.4"/>
<rect x="12" y="92" width="4" height="4" transform="rotate(-90 12 92)" fill="white" fill-opacity="0.4"/>
<rect x="8" y="96" width="4" height="4" transform="rotate(-90 8 96)" fill="white" fill-opacity="0.4"/>
<rect x="4" y="100" width="4" height="4" transform="rotate(-90 4 100)" fill="white" fill-opacity="0.4"/>
<rect y="104" width="4" height="4" transform="rotate(-90 0 104)" fill="white" fill-opacity="0.4"/>
<rect x="20" y="100" width="4" height="4" transform="rotate(-90 20 100)" fill="white" fill-opacity="0.4"/>
<rect x="16" y="104" width="4" height="4" transform="rotate(-90 16 104)" fill="white" fill-opacity="0.4"/>
<rect x="12" y="108" width="4" height="4" transform="rotate(-90 12 108)" fill="white" fill-opacity="0.4"/>
<rect x="8" y="112" width="4" height="4" transform="rotate(-90 8 112)" fill="white" fill-opacity="0.4"/>
<rect x="4" y="116" width="4" height="4" transform="rotate(-90 4 116)" fill="white" fill-opacity="0.4"/>
<rect y="120" width="4" height="4" transform="rotate(-90 0 120)" fill="white" fill-opacity="0.4"/>
</svg>
