<svg xmlns="http://www.w3.org/2000/svg" width="48" height="48" viewBox="0 0 48 48" fill="none">
    <g clip-path="url(#clip0_6005_92039)">
        <path d="M0 0H48V48H0V0Z" fill="url(#paint0_linear_6005_92039)"/>
        <path d="M34.4187 28.1627C33.6933 27.2454 33.1333 26.5894 33.1333 24.8267V18.9734C33.1333 16.5041 32.9653 14.1921 31.1467 12.4987C29.6907 11.1574 27.2933 10.6641 25.4 10.6641C21.4 10.6641 17.8267 12.2907 16.952 16.6641C16.8773 17.1601 17.2427 17.3707 17.5333 17.4427L21.3253 17.7894C21.6907 17.7894 21.9093 17.4374 21.9813 17.0854C22.2747 15.6027 23.5867 14.3574 25.0427 14.3574C25.8427 14.3574 27.4213 15.1627 27.4213 16.8561V18.9734C25.0907 18.9734 22.4907 19.1307 20.4533 19.9761C18.0533 20.9654 16 22.8614 16 25.8961C16 29.7761 18.9867 31.8961 22.1867 31.8961C24.88 31.8961 26.3467 31.1974 28.4533 29.1494C29.112 30.1361 29.5173 30.8401 30.7547 31.8961C31.048 32.0401 31.4107 32.0401 31.6267 31.8294C32.352 31.1894 33.6213 29.8561 34.4187 29.2214C34.784 28.9361 34.712 28.5147 34.4187 28.1627ZM27.4213 22.6641C27.4213 24.0747 27.1467 27.5947 23.5813 27.5947C21.7493 27.5947 21.712 25.4347 21.712 25.4347C21.712 22.6614 24.656 21.7387 27.4213 21.7387V22.6641Z" fill="white"/>
        <path d="M34.9918 34.3922C32.0318 36.2136 27.6025 37.3336 24.0105 37.3336C19.2448 37.3571 14.6011 35.8285 10.7811 32.9789C10.4985 32.7442 10.7811 32.5096 11.0638 32.6269C15.0821 34.5489 19.4843 35.5337 23.9385 35.5069C27.1785 35.5069 31.2611 34.9202 34.5678 33.7442C35.0585 33.6269 35.4825 34.0962 34.9918 34.3922ZM36.0478 33.1549C35.6958 32.7442 33.5838 32.9789 32.6691 33.0376C32.3838 33.0376 32.3171 32.8616 32.5971 32.6856C34.2158 31.6829 36.9598 31.9789 37.2425 32.3309C37.5225 32.6856 37.1705 34.9789 35.6238 36.0376C35.4105 36.2162 35.1305 36.0962 35.2718 35.9229C35.6238 35.2136 36.3998 33.5682 36.0451 33.1549H36.0478Z" fill="#FFB300"/>
    </g>
    <defs>
        <linearGradient id="paint0_linear_6005_92039" x1="8.93067" y1="8.32533" x2="58.4107" y2="65.1573" gradientUnits="userSpaceOnUse">
            <stop stop-color="#1A1E21"/>
            <stop offset="1" stop-color="#06060A"/>
        </linearGradient>
        <clipPath id="clip0_6005_92039">
            <rect width="48" height="48" rx="24" fill="white"/>
        </clipPath>
    </defs>
</svg>