<svg xmlns="http://www.w3.org/2000/svg" width="48" height="48" viewBox="0 0 48 48" fill="none">
    <g clip-path="url(#clip0_6005_92032)">
        <path d="M0 0H48V48H0V0Z" fill="url(#paint0_linear_6005_92032)"/>
        <path d="M34.6693 28.2561C34.2433 29.4848 33.6337 30.6419 32.8613 31.6881C32.1439 32.6561 31.5573 33.3254 31.1066 33.6961C30.4079 34.3094 29.6559 34.6214 28.8533 34.6374C28.2746 34.6374 27.5786 34.4801 26.7679 34.1654C26.0566 33.8722 25.2972 33.7131 24.5279 33.6961C23.8133 33.6961 23.0453 33.8507 22.2239 34.1654C21.3999 34.4801 20.7359 34.6454 20.2293 34.6614C19.4613 34.6934 18.6906 34.3734 17.9253 33.6961C17.4346 33.2934 16.8239 32.5974 16.0906 31.6161C15.2674 30.5003 14.6133 29.2693 14.1493 27.9627C13.6268 26.5723 13.3516 25.1013 13.3359 23.6161C13.3359 22.0081 13.7039 20.6187 14.4373 19.4561C15.0123 18.5332 15.8108 17.7704 16.7589 17.2381C17.707 16.7057 18.774 16.4212 19.8613 16.4107C20.4746 16.4107 21.2773 16.5921 22.2746 16.9441C23.2693 17.2987 23.9066 17.4774 24.1866 17.4774C24.3973 17.4774 25.1066 17.2667 26.3093 16.8481C27.4453 16.4614 28.4079 16.3014 29.1946 16.3627C31.3253 16.5281 32.9253 17.3227 33.9893 18.7574C32.0853 19.8507 31.1413 21.3841 31.1599 23.3494C31.1786 24.8801 31.7626 26.1574 32.9146 27.1681C33.4373 27.6374 34.0213 27.9974 34.6693 28.2561ZM29.3093 10.6641C29.3253 10.8241 29.3359 10.9841 29.3359 11.1441C29.3359 12.3441 28.8719 13.4641 27.9493 14.5041C26.8373 15.7361 25.4906 16.4507 24.0293 16.3361C24.0107 16.1857 24.0018 16.0343 24.0026 15.8827C24.0026 14.7281 24.5306 13.4961 25.4693 12.4881C25.9386 11.9761 26.5359 11.5547 27.2586 11.2134C27.9006 10.9006 28.5968 10.7141 29.3093 10.6641Z" fill="white"/>
    </g>
    <defs>
        <linearGradient id="paint0_linear_6005_92032" x1="8.93067" y1="8.32533" x2="58.4107" y2="65.1573" gradientUnits="userSpaceOnUse">
            <stop stop-color="#1A1E21"/>
            <stop offset="1" stop-color="#06060A"/>
        </linearGradient>
        <clipPath id="clip0_6005_92032">
            <rect width="48" height="48" rx="24" fill="white"/>
        </clipPath>
    </defs>
</svg>