<svg xmlns="http://www.w3.org/2000/svg" width="48" height="48" viewBox="0 0 48 48" fill="none">
    <g clip-path="url(#clip0_6005_86249)">
        <path d="M0 0H48V48H0V0Z" fill="#ED1B2D"/>
        <path d="M8 32V16H18.6667V18.6667H10.6667V22.6667H18.6667V25.3333H10.6667V29.376H18.6667V32H8ZM29.488 26.016L31.5573 28.5547L26.6667 34.6667H30.1333L33.3067 30.7013L36.5333 34.6667H40L35.024 28.5547L40.8 21.3333H37.3333L33.2747 26.408L31.1867 23.8453L37.3333 16H33.8667L29.4213 21.6747L24.8 16H21.3333L27.7227 23.8453L21.3333 32H24.8L29.488 26.016Z" fill="#F8F9FD"/>
    </g>
    <defs>
        <clipPath id="clip0_6005_86249">
            <rect width="48" height="48" rx="24" fill="white"/>
        </clipPath>
    </defs>
</svg>