<svg xmlns="http://www.w3.org/2000/svg" width="48" height="48" viewBox="0 0 48 48" fill="none">
    <g clip-path="url(#clip0_6005_92024)">
        <path d="M0 0H48V48H0V0Z" fill="#F0F3FA"/>
        <path d="M37.0694 22.0934H23.9974V26.8774H31.5334C30.4321 29.9814 27.4801 31.9974 23.9974 31.9974C22.7007 31.9998 21.4228 31.687 20.2738 31.0858C19.1248 30.4847 18.1392 29.6132 17.4018 28.5466C16.6644 27.4799 16.1974 26.25 16.0409 24.9627C15.8845 23.6754 16.0433 22.3694 16.5037 21.1572C16.964 19.9449 17.7122 18.8627 18.6837 18.0038C19.6552 17.1449 20.821 16.5351 22.0805 16.2268C23.3401 15.9185 24.6557 15.921 25.9141 16.2341C27.1724 16.5472 28.3358 17.1615 29.3041 18.0241L33.0747 14.2534C30.6149 11.9471 27.3693 10.6637 23.9974 10.6641C21.3603 10.6641 18.7825 11.446 16.5898 12.9111C14.3971 14.3762 12.6882 16.4586 11.679 18.8949C10.6698 21.3313 10.4058 24.0122 10.9203 26.5986C11.4347 29.185 12.7046 31.5608 14.5693 33.4255C16.434 35.2902 18.8098 36.5601 21.3962 37.0745C23.9826 37.589 26.6635 37.325 29.0998 36.3158C31.5362 35.3066 33.6186 33.5977 35.0837 31.405C36.5487 29.2123 37.3307 26.6345 37.3307 23.9974C37.3307 23.2774 37.2401 22.9387 37.0694 22.0934Z" fill="#FFC107"/>
        <path d="M12.2031 17.7921L16.5871 21.0054C17.1827 19.5267 18.2067 18.2597 19.5277 17.3674C20.8487 16.475 22.4063 15.9979 24.0005 15.9974C26.0405 15.9974 27.8938 16.7654 29.3071 18.0241L33.0778 14.2534C30.618 11.9471 27.3724 10.6637 24.0005 10.6641C21.5711 10.6639 19.1879 11.3279 17.1086 12.5842C15.0293 13.8406 13.333 15.6414 12.2031 17.7921Z" fill="#FF3D00"/>
        <path d="M24.0021 37.3325C27.3088 37.332 30.4962 36.0977 32.9408 33.8711L28.8155 30.3778C27.4316 31.4302 25.7408 31.9998 24.0021 31.9991C20.5355 31.9991 17.5915 29.7858 16.4821 26.7031L12.1328 30.0525C13.2474 32.2425 14.946 34.0817 17.0407 35.3665C19.1355 36.6513 21.5448 37.3317 24.0021 37.3325Z" fill="#4CAF50"/>
        <path d="M37.072 22.0938H24V26.8777H31.536C31.008 28.3711 30.048 29.4404 28.8107 30.3791L32.9387 33.8724C32.648 34.1311 37.3333 30.6644 37.3333 23.9977C37.3333 23.1044 37.2427 22.9391 37.072 22.0938Z" fill="#1976D2"/>
    </g>
    <defs>
        <clipPath id="clip0_6005_92024">
            <rect width="48" height="48" rx="24" fill="white"/>
        </clipPath>
    </defs>
</svg>