<svg xmlns="http://www.w3.org/2000/svg" width="48" height="48" viewBox="0 0 48 48" fill="none">
    <g clip-path="url(#clip0_6005_86492)">
        <path d="M0 0H48V48H0V0Z" fill="url(#paint0_linear_6005_86492)"/>
        <path d="M18.6641 32C23.0823 32 26.6641 28.4183 26.6641 24C26.6641 19.5817 23.0823 16 18.6641 16C14.2458 16 10.6641 19.5817 10.6641 24C10.6641 28.4183 14.2458 32 18.6641 32Z" fill="#EB001B"/>
        <path d="M29.3359 32C33.7542 32 37.3359 28.4183 37.3359 24C37.3359 19.5817 33.7542 16 29.3359 16C24.9177 16 21.3359 19.5817 21.3359 24C21.3359 28.4183 24.9177 32 29.3359 32Z" fill="#F79E1B"/>
        <path d="M24.0026 29.9644C25.6399 28.4977 26.6693 26.3724 26.6693 24.0017C26.6693 21.6337 25.6399 19.5031 24.0026 18.0391C22.3653 19.5057 21.3359 21.6337 21.3359 24.0017C21.3359 26.3724 22.3653 28.5004 24.0026 29.9644Z" fill="#FF5F00"/>
    </g>
    <defs>
        <linearGradient id="paint0_linear_6005_86492" x1="8.93067" y1="8.32533" x2="58.4107" y2="65.1573" gradientUnits="userSpaceOnUse">
            <stop stop-color="#1A1E21"/>
            <stop offset="1" stop-color="#06060A"/>
        </linearGradient>
        <clipPath id="clip0_6005_86492">
            <rect width="48" height="48" rx="24" fill="white"/>
        </clipPath>
    </defs>
</svg>