<svg xmlns="http://www.w3.org/2000/svg" width="48" height="48" viewBox="0 0 48 48" fill="none">
    <g clip-path="url(#clip0_6005_92067)">
        <path d="M0 0H48V48H0V0Z" fill="#BD0017"/>
        <path d="M29.8241 9.89333C32.1174 9.89333 34.6641 20.968 34.6641 34.656L37.3307 34.6667C37.3307 19.9307 33.9521 8 29.8134 8C27.4507 8 25.3761 11.7173 23.9974 17.3333C22.6187 11.7173 20.5147 8 18.1707 8C14.0321 8 10.6641 19.92 10.6641 34.656L13.3307 34.6667C13.3307 20.9787 15.8561 9.89333 18.1521 9.89333C20.4454 9.89333 22.6641 22.0373 22.6641 34.6667H25.3307C25.3307 22.0373 27.5094 9.89333 29.8054 9.89333" fill="#FFCC00"/>
    </g>
    <defs>
        <clipPath id="clip0_6005_92067">
            <rect width="48" height="48" rx="24" fill="white"/>
        </clipPath>
    </defs>
</svg>