<svg xmlns="http://www.w3.org/2000/svg" width="48" height="48" viewBox="0 0 48 48" fill="none">
    <g clip-path="url(#clip0_6005_92055)">
        <path d="M0 0H48V48H0V0Z" fill="#F0F3FA"/>
        <path d="M30.9653 13.3359C28.3413 13.3359 26.2907 15.3173 24.432 17.8373C21.88 14.5786 19.7493 13.3359 17.1947 13.3359C11.9893 13.3359 8 20.1333 8 27.3279C8 31.8293 10.1707 34.6693 13.808 34.6693C16.424 34.6693 18.3067 33.4319 21.6533 27.5626L24.008 23.3893C24.344 23.9333 24.696 24.5199 25.0693 25.1493L26.64 27.7973C29.696 32.9279 31.3973 34.6693 34.4853 34.6693C38.0293 34.6693 40 31.7893 40 27.1973C40 19.6639 35.92 13.3359 30.9653 13.3359ZM19.1013 25.9759C16.3893 30.2426 15.448 31.1973 13.9387 31.1973C12.384 31.1973 11.4587 29.8266 11.4587 27.3839C11.4587 22.1626 14.056 16.8239 17.1493 16.8239C18.8267 16.8239 20.2267 17.7919 22.3707 20.8719C20.336 24.0079 19.1013 25.9759 19.1013 25.9759ZM29.3413 25.4373L27.464 22.2986C26.9921 21.5263 26.5049 20.7635 26.0027 20.0106C27.6933 17.3946 29.088 16.0879 30.7467 16.0879C34.192 16.0879 36.9493 21.1786 36.9493 27.4319C36.9493 29.8133 36.1707 31.1973 34.56 31.1973C33.0133 31.1973 32.2747 30.1733 29.3413 25.4373Z" fill="#0281FB"/>
    </g>
    <defs>
        <clipPath id="clip0_6005_92055">
            <rect width="48" height="48" rx="24" fill="white"/>
        </clipPath>
    </defs>
</svg>