<svg xmlns="http://www.w3.org/2000/svg" width="48" height="48" viewBox="0 0 48 48" fill="none">
    <g clip-path="url(#clip0_6005_86218)">
        <path d="M0 0H48V48H0V0Z" fill="url(#paint0_linear_6005_86218)"/>
        <path d="M11.2693 22.5199C11.2693 22.5199 14.224 18.0079 20 17.5626V16.0026C13.6 16.5199 8 22.1893 8 22.1893C8 22.1893 11.2 31.1679 20 32.0026V30.3439C13.5413 29.5253 11.2693 22.5199 11.2693 22.5199ZM20 27.2133V28.7306C15.12 27.8533 13.704 22.7413 13.704 22.7413C13.704 22.7413 16.1067 20.1279 20 19.7013V21.3679C17.9573 21.1199 16.2933 23.0426 16.2933 23.0426C16.2933 23.0426 17.248 26.2799 20 27.2106V27.2133ZM20 13.3359V16.0026C20.1867 15.9893 20.3147 15.9759 20.504 15.9706C27.7787 15.7226 32.5173 22.1919 32.5173 22.1919C32.5173 22.1919 27.0747 28.8586 21.4027 28.8586C20.8827 28.8586 20.456 28.8133 20 28.7306V30.3439C20.392 30.3946 20.736 30.4239 21.1573 30.4239C26.4373 30.4239 30.2507 27.8746 33.9493 24.6586C34.5627 25.1546 37.0693 26.3573 37.5867 26.8826C34.072 29.8479 25.88 32.0719 21.24 32.0719C20.792 32.0719 20.4213 32.0453 20 32.0026V34.6693H40V13.3359H20ZM20 19.7013V17.5626C20.1867 17.5493 20.312 17.5386 20.504 17.5359C25.736 17.3679 29.168 22.2746 29.168 22.2746C29.168 22.2746 25.4613 27.4613 21.488 27.4613C20.9147 27.4613 20.4613 27.3679 20 27.2106V21.3679C22.0373 21.6133 22.3867 22.5226 23.6107 24.5786L26.3307 22.2666C26.3307 22.2666 24.3467 19.6399 20.9947 19.6399C20.6293 19.6399 20.3413 19.6666 20 19.7013Z" fill="#76B900"/>
    </g>
    <defs>
        <linearGradient id="paint0_linear_6005_86218" x1="8.93067" y1="8.32533" x2="58.4107" y2="65.1573" gradientUnits="userSpaceOnUse">
            <stop stop-color="#1A1E21"/>
            <stop offset="1" stop-color="#06060A"/>
        </linearGradient>
        <clipPath id="clip0_6005_86218">
            <rect width="48" height="48" rx="24" fill="white"/>
        </clipPath>
    </defs>
</svg>