<svg width="181" height="53" viewBox="0 0 181 53" fill="none" xmlns="http://www.w3.org/2000/svg">
<path d="M110 11.0002V42.5336H78.5714V11.0002H110ZM70.7143 11.0002V42.5336H39.2857V11.0002H70.7143ZM31.4286 11.0002V42.5336H0V11.0002H31.4286ZM95.7449 17.7198C94.3231 17.7198 93.051 17.9451 91.9286 18.358C90.8435 18.7334 89.8333 19.3716 89.0102 20.1975C88.1871 20.9858 87.551 21.9618 87.1395 23.0505C86.6905 24.1767 86.5034 25.4155 86.5034 26.7669C86.5034 28.1934 86.7279 29.4322 87.1395 30.5584C87.551 31.6846 88.1497 32.6231 88.9354 33.4114C89.7211 34.1998 90.6565 34.8004 91.8163 35.2133C92.9388 35.6263 94.2109 35.8515 95.6327 35.8515C96.6803 35.8515 97.7279 35.7389 98.6633 35.5137C99.5612 35.326 100.422 34.9881 101.207 34.5376V31.1591C99.6735 32.0975 97.915 32.6231 96.1565 32.5856C94.9592 32.5856 93.949 32.3603 93.0884 31.9098C92.2653 31.4594 91.5918 30.7837 91.1803 29.9202C90.7313 29.0568 90.5068 28.0057 90.5068 26.7669C90.5068 25.5281 90.7313 24.477 91.1803 23.6136C91.6292 22.7877 92.3027 22.0745 93.1633 21.6615C94.0238 21.211 95.0714 20.9858 96.2687 20.9858C97.1667 20.9858 97.9898 21.0984 98.7755 21.3237C99.5612 21.5489 100.31 21.8868 100.983 22.3748V18.8836C100.197 18.4706 99.4116 18.1703 98.551 17.9826C97.6156 17.7949 96.6803 17.7198 95.7449 17.7198ZM54.7755 17.9075H48.1531V35.6263H55.1871C56.5714 35.6263 57.7687 35.4386 58.7789 34.9881C59.7891 34.5752 60.5374 33.9745 61.0612 33.2237C61.585 32.4729 61.8843 31.5345 61.8843 30.4833C61.8843 29.3947 61.6224 28.4937 61.0612 27.7429C60.5 26.9921 59.7143 26.4291 58.6667 26.0912C59.415 25.7158 59.9762 25.2278 60.3878 24.6271C60.7619 23.989 60.949 23.2757 60.949 22.4498C60.949 20.9858 60.4252 19.8596 59.3401 19.0713C58.2551 18.2829 56.7211 17.9075 54.7755 17.9075ZM15.4898 17.9075H8.82993V35.6263H15.8639C17.2483 35.6263 18.4456 35.4386 19.4558 34.9881C20.466 34.5752 21.2143 33.9745 21.7381 33.2237C22.2619 32.4729 22.5612 31.5345 22.5612 30.4833C22.5612 29.3947 22.2993 28.4937 21.7381 27.7429C21.1769 26.9921 20.3912 26.4291 19.3435 26.0912C20.0918 25.7158 20.6531 25.2278 21.0646 24.6271C21.4388 23.989 21.6258 23.2757 21.6258 22.4498C21.6258 20.9858 21.102 19.8596 20.017 19.0713C18.932 18.2829 17.4354 17.9075 15.4898 17.9075ZM54.8878 27.9682C57.0952 27.9682 58.1803 28.7941 58.1803 30.4083C58.1803 31.1591 57.881 31.7597 57.3197 32.1726C56.7585 32.5856 55.898 32.7733 54.8503 32.7733H51.7075V27.9682H54.8878ZM15.602 27.9682C17.8095 27.9682 18.8946 28.7941 18.8946 30.4083C18.8946 31.1591 18.5952 31.7597 18.034 32.1726C17.4728 32.5856 16.6122 32.7733 15.5646 32.7733H12.4218V27.9682H15.602ZM54.4388 20.7606C56.3469 20.7606 57.2823 21.4738 57.2823 22.8628C57.2823 23.576 57.0204 24.1391 56.534 24.5521C56.0476 24.965 55.3367 25.1527 54.4014 25.1527H51.6701V20.7606H54.4388ZM15.1531 20.7606C17.0612 20.7606 17.9966 21.4738 17.9966 22.8628C17.9966 23.576 17.7347 24.1391 17.2483 24.5521C16.7619 24.965 16.051 25.1527 15.1156 25.1527H12.3844V20.7606H15.1531Z" fill="white"/>
</svg>
