<svg width="181" height="53" viewBox="0 0 181 53" fill="none" xmlns="http://www.w3.org/2000/svg">
<path d="M6.49675 29.7911H12.8803V23.8251H6.49675V20.9801H14.2674L13.8427 15H0V36.8965H6.49675V29.7911ZM33.5029 36.8328H40.4879L43.6726 31.4613L46.9351 36.8398H54.083L47.1899 25.4953L53.3965 15.0354H46.3194L43.6514 19.5789L40.8842 15.0212H33.6869L40.0775 25.5448L33.5029 36.8328ZM25.3784 37.0734C31.5567 37.1583 36.638 32.2327 36.7441 26.0544C36.4823 19.7699 31.1816 14.8868 24.8901 15.1415C18.9665 15.3892 14.2249 20.1309 13.9772 26.0544C14.0763 32.2397 19.1718 37.1725 25.3571 37.0734H25.3784ZM23.3685 21.2491C23.3756 20.1663 24.2319 19.2887 25.3076 19.2392C26.4187 19.2604 27.3175 20.145 27.36 21.2491V30.5412C27.2821 31.6453 26.3267 32.4733 25.2227 32.3954C24.2248 32.3247 23.4393 31.532 23.3685 30.5412V21.2491Z" fill="white"/>
<path d="M92.9674 27.7666H86.3575V31.2132H94.5102V36.1388H81.2549V15.6649H94.4112V20.4065H86.3575V23.3859H92.9674V27.7666Z" fill="white"/>
<path d="M112.274 27.3845L114.807 15.6649H119.025L114.269 36.1388H109.613L107.214 24.405L104.885 36.1388H100.129L95.3949 15.6649H100.611L103.066 27.5048L105.423 15.6649H109.797L112.274 27.3845Z" fill="white"/>
<path d="M127.412 22.8339C129.16 23.3293 130.717 23.6619 132.075 24.9146C132.073 24.9122 132.071 24.9099 132.068 24.9075H132.075V24.9146C133.224 26.0605 133.837 27.6426 133.745 29.267C133.76 30.9372 133.144 32.5437 132.026 33.7751C130.511 35.3603 128.395 36.2308 126.201 36.1742C121.764 36.1742 118.87 33.8671 118.034 29.9818L122.932 28.9061C123.208 30.4913 124.666 31.5883 126.265 31.4043C127.475 31.4043 128.204 30.7886 128.204 30.003C128.204 28.5097 126.973 28.5664 124.651 27.8657C120.766 26.7051 118.827 25.0632 118.827 21.7299C118.827 17.8729 121.679 15.0067 126.343 15.0067C129.563 14.8652 132.45 16.9812 133.278 20.0951L128.813 21.5813C128.508 20.2933 127.305 19.4228 125.989 19.5289H125.975C125.083 19.444 124.291 20.0951 124.206 20.9868C124.206 22.1899 125.345 22.2536 127.412 22.8339Z" fill="white"/>
<path d="M68.7992 15.7569L74.8997 25.9408L74.9138 15.7286H79.9669V36.1247H75.0412L68.0774 24.2352V36.153H62.8828V15.7569H68.7992Z" fill="white"/>
</svg>
