<svg width="150" height="24" viewBox="0 0 150 24" fill="none" xmlns="http://www.w3.org/2000/svg">
<rect width="4" height="4" transform="matrix(1 3.17865e-08 3.17865e-08 -1 146 4)" fill="white" fill-opacity="0.4"/>
<rect width="4" height="4" transform="matrix(1 3.17865e-08 3.17865e-08 -1 142 8)" fill="white" fill-opacity="0.4"/>
<rect width="4" height="4" transform="matrix(1 3.17865e-08 3.17865e-08 -1 138 12)" fill="white" fill-opacity="0.4"/>
<rect width="4" height="4" transform="matrix(1 3.17865e-08 3.17865e-08 -1 134 16)" fill="white" fill-opacity="0.4"/>
<rect width="4" height="4" transform="matrix(1 3.17865e-08 3.17865e-08 -1 130 20)" fill="white" fill-opacity="0.4"/>
<rect width="4" height="4" transform="matrix(1 3.17865e-08 3.17865e-08 -1 126 24)" fill="white" fill-opacity="0.4"/>
<rect width="4" height="4" transform="matrix(1 3.17865e-08 3.17865e-08 -1 130 4)" fill="white" fill-opacity="0.4"/>
<rect width="4" height="4" transform="matrix(1 3.17865e-08 3.17865e-08 -1 126 8)" fill="white" fill-opacity="0.4"/>
<rect width="4" height="4" transform="matrix(1 3.17865e-08 3.17865e-08 -1 122 12)" fill="white" fill-opacity="0.4"/>
<rect width="4" height="4" transform="matrix(1 3.17865e-08 3.17865e-08 -1 118 16)" fill="white" fill-opacity="0.4"/>
<rect width="4" height="4" transform="matrix(1 3.17865e-08 3.17865e-08 -1 114 20)" fill="white" fill-opacity="0.4"/>
<rect width="4" height="4" transform="matrix(1 3.17865e-08 3.17865e-08 -1 110 24)" fill="white" fill-opacity="0.4"/>
<rect width="4" height="4" transform="matrix(1 3.17865e-08 3.17865e-08 -1 114 4)" fill="white" fill-opacity="0.4"/>
<rect width="4" height="4" transform="matrix(1 3.17865e-08 3.17865e-08 -1 110 8)" fill="white" fill-opacity="0.4"/>
<rect width="4" height="4" transform="matrix(1 3.17865e-08 3.17865e-08 -1 106 12)" fill="white" fill-opacity="0.4"/>
<rect width="4" height="4" transform="matrix(1 3.17865e-08 3.17865e-08 -1 102 16)" fill="white" fill-opacity="0.4"/>
<rect width="4" height="4" transform="matrix(1 3.17865e-08 3.17865e-08 -1 98 20)" fill="white" fill-opacity="0.4"/>
<rect width="4" height="4" transform="matrix(1 3.17865e-08 3.17865e-08 -1 94 24)" fill="white" fill-opacity="0.4"/>
<rect width="4" height="4" transform="matrix(1 3.17865e-08 3.17865e-08 -1 98 4)" fill="white" fill-opacity="0.4"/>
<rect width="4" height="4" transform="matrix(1 3.17865e-08 3.17865e-08 -1 94 8)" fill="white" fill-opacity="0.4"/>
<rect width="4" height="4" transform="matrix(1 3.17865e-08 3.17865e-08 -1 90 12)" fill="white" fill-opacity="0.4"/>
<rect width="4" height="4" transform="matrix(1 3.17865e-08 3.17865e-08 -1 86 16)" fill="white" fill-opacity="0.4"/>
<rect width="4" height="4" transform="matrix(1 3.17865e-08 3.17865e-08 -1 82 20)" fill="white" fill-opacity="0.4"/>
<rect width="4" height="4" transform="matrix(1 3.17865e-08 3.17865e-08 -1 78 24)" fill="white" fill-opacity="0.4"/>
<rect width="4" height="4" transform="matrix(1 3.17865e-08 3.17865e-08 -1 82 4)" fill="white" fill-opacity="0.4"/>
<rect width="4" height="4" transform="matrix(1 3.17865e-08 3.17865e-08 -1 78 8)" fill="white" fill-opacity="0.4"/>
<rect width="4" height="4" transform="matrix(1 3.17865e-08 3.17865e-08 -1 74 12)" fill="white" fill-opacity="0.4"/>
<rect width="4" height="4" transform="matrix(1 3.17865e-08 3.17865e-08 -1 70 16)" fill="white" fill-opacity="0.4"/>
<rect width="4" height="4" transform="matrix(1 3.17865e-08 3.17865e-08 -1 66 20)" fill="white" fill-opacity="0.4"/>
<rect width="4" height="4" transform="matrix(1 3.17865e-08 3.17865e-08 -1 62 24)" fill="white" fill-opacity="0.4"/>
<rect width="4" height="4" transform="matrix(1 3.17865e-08 3.17865e-08 -1 66 4)" fill="white" fill-opacity="0.4"/>
<rect width="4" height="4" transform="matrix(1 3.17865e-08 3.17865e-08 -1 62 8)" fill="white" fill-opacity="0.4"/>
<rect width="4" height="4" transform="matrix(1 3.17865e-08 3.17865e-08 -1 58 12)" fill="white" fill-opacity="0.4"/>
<rect width="4" height="4" transform="matrix(1 3.17865e-08 3.17865e-08 -1 54 16)" fill="white" fill-opacity="0.4"/>
<rect width="4" height="4" transform="matrix(1 3.17865e-08 3.17865e-08 -1 50 20)" fill="white" fill-opacity="0.4"/>
<rect width="4" height="4" transform="matrix(1 3.17865e-08 3.17865e-08 -1 46 24)" fill="white" fill-opacity="0.4"/>
<rect width="4" height="4" transform="matrix(1 3.17865e-08 3.17865e-08 -1 50 4)" fill="white" fill-opacity="0.4"/>
<rect width="4" height="4" transform="matrix(1 3.17865e-08 3.17865e-08 -1 46 8)" fill="white" fill-opacity="0.4"/>
<rect width="4" height="4" transform="matrix(1 3.17865e-08 3.17865e-08 -1 42 12)" fill="white" fill-opacity="0.4"/>
<rect width="4" height="4" transform="matrix(1 3.17865e-08 3.17865e-08 -1 38 16)" fill="white" fill-opacity="0.4"/>
<rect width="4" height="4" transform="matrix(1 3.17865e-08 3.17865e-08 -1 34 20)" fill="white" fill-opacity="0.4"/>
<rect width="4" height="4" transform="matrix(1 3.17865e-08 3.17865e-08 -1 30 24)" fill="white" fill-opacity="0.4"/>
</svg>
