<svg width="80" height="80" viewBox="0 0 80 80" fill="none" xmlns="http://www.w3.org/2000/svg">
<path d="M0 80V63.4233H1.95122V78.0574H16.5854V80H0ZM0.0128744 16.594L0.00918785 0.00865704H16.5854V1.95988H1.95122V16.594H0.0128744ZM63.4146 80V78.0488H78.0488V63.4146H80V80H63.4146ZM63.4146 1.95041V0.00571646L80 0V16.585H78.0488V1.95041H63.4146Z" fill="#6291FF"/>
<path d="M53.5 24.623H28.5C27.6712 24.623 25.375 24.623 25.375 24.623C25.375 24.623 25.375 26.9192 25.375 27.748V36.9309C25.375 51.3637 37.5781 56.1496 40.0234 56.959C40.3091 57.0538 40.607 57.1064 40.9078 57.1152C40.9391 57.1152 40.9688 57.1152 41 57.1152C41.0312 57.1152 41.0609 57.1152 41.0906 57.1152C41.3914 57.106 41.6893 57.0534 41.975 56.959C44.4219 56.1512 56.625 51.3668 56.625 36.934V27.748C56.625 26.9192 56.625 24.623 56.625 24.623C56.625 24.623 54.3288 24.623 53.5 24.623ZM52.875 36.934C52.875 36.998 52.875 37.0605 52.875 37.123H42.875V28.373H52.875V36.934ZM29.125 28.373H39.125V37.123H29.125C29.125 37.0605 29.125 36.998 29.125 36.934V28.373ZM29.5297 40.873H39.125V52.548C36.0516 51.0621 30.9875 47.6496 29.5297 40.873ZM42.875 52.548V40.873H52.4703C51.0125 47.6496 45.9484 51.0621 42.875 52.548Z" fill="white"/>
</svg>
