<svg width="181" height="53" viewBox="0 0 181 53" fill="none" xmlns="http://www.w3.org/2000/svg">
<g clip-path="url(#clip0_8213_1679)">
<path fill-rule="evenodd" clip-rule="evenodd" d="M19.0984 31.9393C19.0984 33.3251 18.5441 34.1314 15.8229 34.1314C15.4702 34.1314 15.1426 34.1062 14.8403 34.0557V15.6123C14.8403 14.2014 15.319 12.74 18.0654 12.74C18.4181 12.74 18.7709 12.7652 19.0984 12.8408V31.9393ZM30.2099 39.0698C30.5627 39.2462 31.2934 39.4729 32.2256 39.4981C33.8129 39.5233 34.6696 38.9186 35.2995 37.5076L43.7654 18.661C43.4127 18.4846 42.6316 18.2579 42.0017 18.2579C40.9182 18.2327 39.4569 18.4595 38.5246 20.6767L35.7782 27.1269L30.4115 18.3839C30.0587 18.2831 29.202 18.1319 28.5973 18.1319C26.6825 18.1319 25.6242 18.8374 24.5408 20.0216L19.3 25.7159L23.5077 32.3173C24.2888 33.5266 25.2966 34.1314 26.9596 34.1314C28.043 34.1314 28.9501 33.8794 29.3784 33.6778L24.314 26.0938L27.8918 22.2892L33.7877 31.511L30.2099 39.0698ZM8.33969 34.0054C11.7915 33.6275 13.4797 31.7377 13.4797 29.1426C13.4797 26.9001 12.0939 25.086 8.91919 24.5569L5.79486 23.9774C4.78702 23.801 4.15712 23.5742 4.15712 22.9947C4.15712 22.4404 4.81222 22.0121 6.39957 22.0121C7.30905 22.0121 8.14411 22.0618 8.85731 22.1041C9.38889 22.1357 9.85281 22.1633 10.2294 22.1633C11.3884 22.1633 12.5726 21.6846 12.5726 19.4169C12.5726 19.1146 12.5222 18.8122 12.4718 18.5351C10.7585 18.3083 7.63419 18.0059 5.08937 18.2831C1.71309 18.6358 -0.000244141 20.6767 -0.000244141 23.0955C-0.000244141 25.086 1.46113 26.9757 4.18231 27.4797L7.45779 28.1095C8.66722 28.3615 9.2719 28.6134 9.2719 29.2686C9.2719 29.7473 8.79317 30.2764 7.25621 30.2764C6.51987 30.2764 5.6531 30.2215 4.82428 30.169C4.06498 30.1209 3.33752 30.0748 2.77133 30.0748C1.61231 30.0748 0.402894 30.5787 0.402894 32.8464C0.402894 33.1235 0.453286 33.4763 0.503679 33.7534C2.21702 33.955 5.84525 34.2825 8.33969 34.0054Z" fill="white"/>
<path fill-rule="evenodd" clip-rule="evenodd" d="M122.984 10.9998H50.3182C49.2096 10.9998 48.3025 11.9068 48.3025 13.0154V39.2193C48.3025 40.3279 49.2096 41.235 50.3182 41.235H122.984C124.092 41.235 125 40.3279 125 39.2193V13.0154C125 11.9068 124.092 10.9998 122.984 10.9998ZM67.276 24.9579V32.6426C67.276 33.1969 66.9485 33.5748 65.9659 33.5748C65.5628 33.5748 65.084 33.5245 64.8321 33.4489V25.2854C64.8321 22.4383 63.4462 21.0776 61.3298 21.0776C59.6921 21.0776 57.9283 22.2115 57.1976 23.5469V32.6678C57.1976 33.2221 56.8701 33.6001 55.8874 33.6001C55.4843 33.6001 55.0055 33.5497 54.7536 33.4741V19.1628C54.9804 19.1124 55.4591 19.0368 55.8874 19.0368C56.8701 19.0368 57.1976 19.3895 57.1976 19.969V21.1785C58.2307 19.8935 59.818 18.8856 61.9093 18.8856C64.8321 18.8856 67.276 20.7249 67.276 24.9579ZM83.7034 27.176H72.6674C72.9948 29.9476 74.885 31.4846 77.7067 31.4846C78.916 31.4846 79.8735 31.2578 80.7555 30.9554C80.8712 30.9185 80.9742 30.8849 81.0666 30.8547L81.0681 30.8542C81.4785 30.7201 81.6835 30.6531 81.8893 30.6531C82.5695 30.6531 83.0232 31.2074 82.8969 32.5176C81.612 33.0719 79.6724 33.7018 77.6058 33.7018C73.1465 33.7018 70.148 30.7035 70.148 26.2438C70.148 21.9605 73.3229 18.8866 77.2029 18.8866C81.5873 18.8866 83.7542 22.288 83.7542 25.7399C83.8043 26.1682 83.7789 26.6721 83.7034 27.176ZM72.6674 25.2864H81.4356C81.3347 22.8423 79.7726 20.9527 77.253 20.9527C75.036 20.9527 73.0456 22.4644 72.6674 25.2864ZM106.18 19.3905L102.401 32.5176C102.174 33.3491 101.544 33.5506 100.637 33.5506C100.133 33.5506 99.6291 33.4499 99.2008 33.3491L95.5974 21.8093L92.2212 32.5176C91.9439 33.3491 91.2891 33.5506 90.5081 33.5506C90.0043 33.5506 89.4497 33.4499 89.0214 33.3491L84.9897 19.3905C85.3425 19.2141 85.998 19.0378 86.5272 19.0378C87.2074 19.0378 87.5601 19.2393 87.7365 19.8944L90.5835 30.8547H90.6089L94.1361 19.3905C94.539 19.1637 95.0936 19.0378 95.6482 19.0378C96.5803 19.0378 97.084 19.2393 97.3359 20.096L100.612 30.8295H100.637L103.408 19.8693C103.585 19.2141 103.937 19.0125 104.618 19.0125C105.222 19.0378 105.827 19.2141 106.18 19.3905ZM108.721 30.829C107.99 30.829 107.612 31.4841 107.789 32.7187C109.174 33.2478 111.467 33.7013 113.332 33.6762C117.489 33.6762 119.202 31.6857 119.202 29.4684C119.202 27.5787 118.043 26.2433 115.171 25.4371L112.601 24.7316C110.586 24.152 110.257 23.497 110.257 22.7915C110.257 21.7836 111.089 21.0026 113.357 21.0026C114.698 21.0026 115.79 21.2616 116.574 21.4474C117.013 21.5514 117.355 21.6325 117.59 21.6325C118.321 21.6325 118.698 20.9774 118.472 19.7679C117.161 19.264 115.02 18.8861 113.306 18.8861C109.476 18.8861 107.789 20.7758 107.789 22.9175C107.789 24.6308 108.872 26.0418 111.669 26.7725L114.188 27.4527C116.38 28.0575 116.733 28.763 116.733 29.5692C116.733 30.703 115.826 31.5597 113.382 31.5597C111.878 31.5597 110.65 31.2523 109.787 31.0363C109.32 30.9192 108.96 30.829 108.721 30.829Z" fill="white"/>
</g>
<defs>
<clipPath id="clip0_8213_1679">
<rect width="181" height="53" fill="white"/>
</clipPath>
</defs>
</svg>
