<svg width="181" height="53" viewBox="0 0 181 53" fill="none" xmlns="http://www.w3.org/2000/svg">
<path fill-rule="evenodd" clip-rule="evenodd" d="M15.2558 36.786H4.36475V36.4885L7.38565 35.0333V17.2929C7.38565 17.2929 6.4923 17.2929 5.67035 17.5156C5.2615 17.6652 4.8127 17.7791 4.1803 18.375C3.58105 18.9334 0.33575 22.2875 0.33575 22.2875L0 22.1388L0.4845 16.3613H7.49955H7.5361H18.762L19.3596 22.1388L19.0247 22.2875C19.0247 22.2875 15.7794 18.9334 15.1818 18.3741C14.5486 17.7783 14.0998 17.6644 13.6901 17.5148C12.8699 17.2921 12.1618 17.3295 12.1618 17.3295V35.0333L15.2558 36.4511V36.786Z" fill="white"/>
<path fill-rule="evenodd" clip-rule="evenodd" d="M92.4249 36.7871H81.5322V36.4896L84.5556 35.0344V17.294H84.5182C84.5182 17.294 83.6215 17.294 82.8012 17.5167C82.4289 17.6663 81.9419 17.7802 81.3469 18.3761C80.7119 18.9345 77.4675 22.2895 77.4675 22.2895L77.1309 22.1407L77.6162 16.3633H84.667H95.8938L96.527 22.1407L96.1547 22.2895C96.1547 22.2895 92.9451 18.9354 92.3127 18.3761C91.6778 17.7802 91.2307 17.6663 90.8558 17.5167C90.0381 17.294 89.3275 17.3314 89.3275 17.3314V35.0352L92.3884 36.453L92.4249 36.7871Z" fill="white"/>
<path fill-rule="evenodd" clip-rule="evenodd" d="M41.33 18.0766L43.7907 16.6597V16.3613H34.0939V16.6223L36.6295 18.0392V25.6425L27.305 25.7164V18.0766L29.8048 16.6597V16.3613H20.1055V16.6223L22.6053 18.0766V35.0724L20.1055 36.4893V36.786H29.8048V36.4519L27.305 35.0341V26.8733L36.6295 26.9107V35.0724L34.0939 36.4893V36.786H43.7907V36.4519L41.33 35.0341V18.0766Z" fill="white"/>
<path fill-rule="evenodd" clip-rule="evenodd" d="M99.7373 35.0724L97.2383 36.4893V36.7486H106.935L106.898 36.4519L104.436 35.0341V18.0766L106.898 16.6597L106.935 16.3613H97.2383V16.6223L99.7373 18.0392V35.0724Z" fill="white"/>
<path fill-rule="evenodd" clip-rule="evenodd" d="M62.0681 36.786H44.6855V36.4885L47.2219 35.0715V18.0766L44.6855 16.6223V16.3613H51.8468H61.4696L61.8437 21.6917L61.5436 21.803C61.5436 21.803 58.8584 19.0074 58.226 18.4481C57.6276 17.8905 57.1814 17.7409 56.77 17.5896C55.9506 17.366 55.0547 17.4034 55.0547 17.4034L51.9581 17.2921V25.9034C51.9581 25.9034 55.2043 25.8652 55.5392 25.8278C56.0254 25.7538 56.2107 25.7538 56.8822 24.971C57.4423 24.336 58.3009 23.2191 58.3009 23.2191H58.6731V30.0378H58.3009C58.3009 30.0378 56.6204 27.5779 56.4717 27.504C56.3603 27.3926 56.0993 27.0212 55.2051 27.0212C54.3092 27.0586 51.959 26.9838 51.959 26.9838V35.7813C51.959 35.7813 53.7874 35.8178 55.28 35.6682C56.7335 35.5577 57.5545 35.5195 58.5244 34.6992C59.4951 33.8798 62.0306 30.9354 62.0306 30.9354L62.4403 31.0451L62.0681 36.786Z" fill="white"/>
<path fill-rule="evenodd" clip-rule="evenodd" d="M153.709 31.047L153.297 30.9374C153.297 30.9374 150.762 33.8818 149.791 34.7012C148.823 35.5214 148.002 35.5597 146.548 35.6702C145.054 35.8198 143.228 35.7832 143.228 35.7832V26.9857C143.228 26.9857 145.579 27.0605 146.474 27.0231C147.367 27.0231 147.629 27.3954 147.742 27.5059C147.89 27.5807 149.568 30.0398 149.568 30.0398H149.942V23.2211H149.568C149.568 23.2211 148.709 24.3371 148.151 24.9729C147.478 25.7558 147.292 25.7558 146.808 25.8297C146.473 25.8671 143.227 25.9054 143.227 25.9054V17.294L146.322 17.4054C146.322 17.4054 147.219 17.368 148.04 17.5915C148.412 17.7428 148.899 17.8924 149.494 18.45C150.129 19.0093 152.814 21.805 152.814 21.805L153.112 21.6936L152.74 16.3633H143.117H135.953V16.6242L138.492 18.0786V35.0743L135.953 36.4913V36.7888H153.335L153.709 31.047Z" fill="white"/>
<path fill-rule="evenodd" clip-rule="evenodd" d="M122.077 30.3387L128.271 16.3613H135.096V16.6597L132.595 18.0766V35.0341L135.096 36.4519V36.7486H125.398V36.4893L127.934 35.0724V20.5722L120.586 36.4893H119.692L111.857 20.2382V35.0341L114.358 36.4519V36.7486H107.867V36.4893L110.365 35.0724V18.0392L107.867 16.6223V16.3613H115.215L122.077 30.3387Z" fill="white"/>
<path fill-rule="evenodd" clip-rule="evenodd" d="M167.511 16.6235L167.883 21.6937L167.548 21.7311C167.548 21.7311 164.042 17.9656 163.668 17.629C163.444 17.4803 161.805 16.2886 160.049 17.5551C160.049 17.5551 158.335 18.7111 159.417 20.8718C160.536 23.0342 163.782 24.5616 164.639 25.0478C165.46 25.5323 169.638 27.5808 169.116 31.7195C168.595 35.5972 165.125 36.7141 163.669 37.0116C160.574 37.5726 155.837 36.2678 155.837 36.2678L155.463 31.0123L155.874 30.9383C155.874 30.9383 159.344 35.1101 160.723 35.6346C162.102 36.1548 164.005 36.3418 165.125 34.8866C166.244 33.4339 165.311 31.4203 164.192 30.6391C162.626 29.5945 160.313 28.3628 158.708 27.3216C156.92 26.1282 155.8 24.3763 155.538 22.4375C155.202 19.6818 156.845 17.4429 158.933 16.5869C160.871 15.8389 162.438 15.9902 163.857 16.065C165.309 16.1764 167.511 16.6235 167.511 16.6235Z" fill="white"/>
</svg>
