<svg width="4" height="14" viewBox="0 0 4 14" fill="none" xmlns="http://www.w3.org/2000/svg">
    <path d="M3.60587 13.061C3.60587 13.5003 3.3862 13.72 2.94687 13.72H1.23347C0.794132 13.72 0.574465 13.5003 0.574465 13.061V11.3476C0.574465 10.9082 0.794132 10.6886 1.23347 10.6886H2.94687C3.3862 10.6886 3.60587 10.9082 3.60587 11.3476V13.061ZM3.60587 2.64877C3.60587 3.0881 3.3862 3.30777 2.94687 3.30777H1.23347C0.794132 3.30777 0.574465 3.0881 0.574465 2.64877V0.935371C0.574465 0.496037 0.794132 0.27637 1.23347 0.27637H2.94687C3.3862 0.27637 3.60587 0.496037 3.60587 0.935371V2.64877Z" fill="#5ED1C5"/>
</svg>
