<svg width="30" height="22" viewBox="0 0 30 22" fill="none" xmlns="http://www.w3.org/2000/svg">
<path fill-rule="evenodd" clip-rule="evenodd" d="M28.6955 3.457C28.6955 2.41555 27.8512 1.57129 26.8098 1.57129H10.0262C9.29744 1.57129 8.67279 1.88361 8.25637 2.50825L1.38571 10.9409L8.25637 19.3736C8.67279 19.8941 9.29744 20.3106 10.0262 20.3106H26.8098C27.8512 20.3106 28.6955 19.4663 28.6955 18.4249C28.6955 13.4356 28.6955 8.44629 28.6955 3.457Z" stroke="white" stroke-width="1.88571" stroke-linecap="square"/>
<path fill-rule="evenodd" clip-rule="evenodd" d="M19.874 15.7361C20.2422 16.1043 20.8392 16.1043 21.2074 15.7361C21.5756 15.3679 21.5756 14.7709 21.2074 14.4027L18.2762 11.4715L21.2074 8.54022C21.5756 8.17201 21.5756 7.57503 21.2074 7.20682C20.8392 6.83861 20.2422 6.83861 19.874 7.20682L16.9428 10.1381L14.0116 7.20682C13.6434 6.83861 13.0464 6.83861 12.6782 7.20682C12.31 7.57503 12.31 8.17201 12.6782 8.54022L15.6094 11.4715L12.6782 14.4027C12.31 14.7709 12.31 15.3679 12.6782 15.7361C13.0464 16.1043 13.6434 16.1043 14.0116 15.7361L16.9428 12.8049L19.874 15.7361Z" fill="white"/>
</svg>
