<svg width="26" height="26" viewBox="0 0 26 26" fill="none" xmlns="http://www.w3.org/2000/svg">
<g clip-path="url(#clip0_159_2573)">
<path d="M25 13C25 19.6274 19.6274 25 13 25M25 13C25 6.37258 19.6274 1 13 1M25 13H1M13 25C6.37258 25 1 19.6274 1 13M13 25C16.9877 25 20.2203 19.6274 20.2203 13C20.2203 6.37258 16.9877 1 13 1M13 25C9.01232 25 5.77966 19.6274 5.77966 13C5.77966 6.37258 9.01232 1 13 1M13 25C14.3479 25 15.4407 19.6274 15.4407 13C15.4407 6.37258 14.3479 1 13 1M13 25C11.6521 25 10.5593 19.6274 10.5593 13C10.5593 6.37258 11.6521 1 13 1M1 13C1 6.37258 6.37258 1 13 1M4.05085 5.0678H22M4 20.9322H22" stroke="white" stroke-width="0.589286"/>
</g>
<defs>
<clipPath id="clip0_159_2573">
<rect width="26" height="26" fill="white"/>
</clipPath>
</defs>
</svg>
