<svg width="939" height="937" viewBox="0 0 939 937" fill="none" xmlns="http://www.w3.org/2000/svg">
<rect x="938.019" y="458.564" width="20" height="20" transform="rotate(90 938.019 458.564)" fill="#5ED1C5"/>
<rect x="932.12" y="543.745" width="20" height="20" transform="rotate(100.361 932.12 543.745)" fill="#5ED1C5"/>
<rect x="910.445" y="627.567" width="20" height="20" transform="rotate(110.997 910.445 627.567)" fill="#5ED1C5" fill-opacity="0.2"/>
<rect x="873.545" y="706.065" width="20" height="20" transform="rotate(121.626 873.545 706.065)" fill="#5ED1C5" fill-opacity="0.2"/>
<rect x="822.618" y="776.639" width="20" height="20" transform="rotate(132.293 822.618 776.639)" fill="#5ED1C5" fill-opacity="0.2"/>
<rect x="760.094" y="836.193" width="20" height="20" transform="rotate(142.712 760.094 836.193)" fill="#5ED1C5" fill-opacity="0.2"/>
<rect x="687.37" y="883.552" width="20" height="20" transform="rotate(153.449 687.37 883.552)" fill="#5ED1C5" fill-opacity="0.2"/>
<rect x="607.452" y="916.508" width="20" height="20" transform="rotate(163.969 607.452 916.508)" fill="#5ED1C5" fill-opacity="0.2"/>
<rect x="522.714" y="934.17" width="20" height="20" transform="rotate(174.697 522.714 934.17)" fill="#5ED1C5" fill-opacity="0.2"/>
<rect x="434.443" y="935.851" width="20" height="20" transform="rotate(-174.697 434.443 935.851)" fill="#5ED1C5" fill-opacity="0.2"/>
<rect x="349.135" y="921.553" width="20" height="20" transform="rotate(-163.969 349.135 921.553)" fill="#5ED1C5" fill-opacity="0.2"/>
<rect x="268.111" y="891.766" width="20" height="20" transform="rotate(-153.449 268.111 891.766)" fill="#5ED1C5" fill-opacity="0.2"/>
<rect x="193.709" y="847.439" width="20" height="20" transform="rotate(-142.712 193.709 847.439)" fill="#5ED1C5" fill-opacity="0.2"/>
<rect x="129.058" y="790.532" width="20" height="20" transform="rotate(-132.293 129.058 790.532)" fill="#5ED1C5" fill-opacity="0.2"/>
<rect x="75.4806" y="722.287" width="20" height="20" transform="rotate(-121.626 75.4806 722.287)" fill="#5ED1C5" fill-opacity="0.2"/>
<rect x="35.5251" y="645.634" width="20" height="20" transform="rotate(-110.997 35.5251 645.634)" fill="#5ED1C5" fill-opacity="0.2"/>
<rect x="10.4547" y="563.099" width="20" height="20" transform="rotate(-100.361 10.4547 563.099)" fill="#5ED1C5" fill-opacity="0.2"/>
<rect x="0.955078" y="474.873" width="20" height="20" transform="rotate(-89.5577 0.955078 474.873)" fill="#5ED1C5" fill-opacity="0.2"/>
<rect x="7.40332" y="390.356" width="20" height="20" transform="rotate(-79.2013 7.40332 390.356)" fill="#5ED1C5" fill-opacity="0.2"/>
<rect x="30.187" y="305.169" width="20" height="20" transform="rotate(-68.3589 30.187 305.169)" fill="#5ED1C5"/>
<rect x="67.6763" y="227.356" width="20" height="20" transform="rotate(-57.743 67.6763 227.356)" fill="#5ED1C5"/>
<rect x="118.001" y="158.651" width="20" height="20" transform="rotate(-47.2901 118.001 158.651)" fill="#5ED1C5"/>
<rect x="181.988" y="98.511" width="20" height="20" transform="rotate(-36.6605 181.988 98.511)" fill="#5ED1C5"/>
<rect x="254.076" y="52.2988" width="20" height="20" transform="rotate(-26.1259 254.076 52.2988)" fill="#5ED1C5"/>
<rect x="332.179" y="20.3672" width="20" height="20" transform="rotate(-15.5971 332.179 20.3672)" fill="#5ED1C5"/>
<rect x="418.667" y="2.67017" width="20" height="20" transform="rotate(-4.86151 418.667 2.67017)" fill="#5ED1C5"/>
<rect x="505.739" y="1.3064" width="20" height="20" transform="rotate(5.74371 505.739 1.3064)" fill="#5ED1C5"/>
<rect x="592.41" y="16.2258" width="20" height="20" transform="rotate(16.465 592.41 16.2258)" fill="#5ED1C5"/>
<rect x="674.354" y="46.9797" width="20" height="20" transform="rotate(27.1878 674.354 46.9797)" fill="#5ED1C5"/>
<rect x="747.543" y="91.2949" width="20" height="20" transform="rotate(37.7055 747.543 91.2949)" fill="#5ED1C5"/>
<rect x="811.133" y="147.762" width="20" height="20" transform="rotate(48.1232 811.133 147.762)" fill="#5ED1C5"/>
<rect x="865.201" y="217.392" width="20" height="20" transform="rotate(58.7955 865.201 217.392)" fill="#5ED1C5"/>
<rect x="904.725" y="294.477" width="20" height="20" transform="rotate(69.4327 904.725 294.477)" fill="#5ED1C5"/>
<rect x="929.25" y="377.336" width="20" height="20" transform="rotate(80.0779 929.25 377.336)" fill="#5ED1C5"/>
</svg>
