<svg width="1316" height="1317" viewBox="0 0 1316 1317" fill="none" xmlns="http://www.w3.org/2000/svg">
<rect x="1316" y="652.5" width="12" height="12" transform="rotate(90 1316 652.5)" fill="#5ED1C5"/>
<rect x="1304.94" y="779.352" width="12" height="12" transform="rotate(101.018 1304.94 779.352)" fill="#5ED1C5" fill-opacity="0.2"/>
<rect x="1268.47" y="904.478" width="12" height="12" transform="rotate(112.499 1268.47 904.478)" fill="#5ED1C5" fill-opacity="0.2"/>
<rect x="1208.79" y="1018.51" width="12" height="12" transform="rotate(123.728 1208.79 1018.51)" fill="#5ED1C5" fill-opacity="0.2"/>
<rect x="1127.67" y="1119.18" width="12" height="12" transform="rotate(135 1127.67 1119.18)" fill="#5ED1C5" fill-opacity="0.2"/>
<rect x="1029.03" y="1201.75" width="12" height="12" transform="rotate(146.062 1029.03 1201.75)" fill="#5ED1C5" fill-opacity="0.2"/>
<rect x="915.883" y="1263.72" width="12" height="12" transform="rotate(157.287 915.883 1263.72)" fill="#5ED1C5" fill-opacity="0.2"/>
<rect x="792.697" y="1302.32" width="12" height="12" transform="rotate(168.763 792.697 1302.32)" fill="#5ED1C5" fill-opacity="0.2"/>
<rect x="661.907" y="1316.02" width="12" height="12" transform="rotate(-179.779 661.907 1316.02)" fill="#5ED1C5" fill-opacity="0.2"/>
<rect x="533.601" y="1304.16" width="12" height="12" transform="rotate(-168.763 533.601 1304.16)" fill="#5ED1C5" fill-opacity="0.2"/>
<rect x="409.999" y="1267.44" width="12" height="12" transform="rotate(-157.287 409.999 1267.44)" fill="#5ED1C5" fill-opacity="0.2"/>
<rect x="296.159" y="1207.26" width="12" height="12" transform="rotate(-146.062 296.159 1207.26)" fill="#5ED1C5" fill-opacity="0.2"/>
<rect x="196.015" y="1125.88" width="12" height="12" transform="rotate(-134.792 196.015 1125.88)" fill="#5ED1C5" fill-opacity="0.2"/>
<rect x="114.076" y="1027.3" width="12" height="12" transform="rotate(-123.728 114.076 1027.3)" fill="#5ED1C5" fill-opacity="0.2"/>
<rect x="52.7471" y="914.655" width="12" height="12" transform="rotate(-112.499 52.7471 914.655)" fill="#5ED1C5" fill-opacity="0.2"/>
<rect x="14.2588" y="790.649" width="12" height="12" transform="rotate(-101.018 14.2588 790.649)" fill="#5ED1C5" fill-opacity="0.2"/>
<rect x="0.973633" y="659.318" width="12" height="12" transform="rotate(-89.5577 0.973633 659.318)" fill="#5ED1C5"/>
<rect x="12.8325" y="533.515" width="12" height="12" transform="rotate(-78.5446 12.8325 533.515)" fill="#5ED1C5"/>
<rect x="50.248" y="408.299" width="12" height="12" transform="rotate(-67.0734 50.248 408.299)" fill="#5ED1C5"/>
<rect x="110.224" y="295.404" width="12" height="12" transform="rotate(-55.8527 110.224 295.404)" fill="#5ED1C5"/>
<rect x="192.525" y="194.589" width="12" height="12" transform="rotate(-44.5837 192.525 194.589)" fill="#5ED1C5"/>
<rect x="289.564" y="114.13" width="12" height="12" transform="rotate(-33.5178 289.564 114.13)" fill="#5ED1C5"/>
<rect x="406.006" y="51.1997" width="12" height="12" transform="rotate(-22.07 406.006 51.1997)" fill="#5ED1C5"/>
<rect x="527.986" y="13.9177" width="12" height="12" transform="rotate(-10.7987 527.986 13.9177)" fill="#5ED1C5"/>
<rect x="660.261" y="0.975342" width="12" height="12" transform="rotate(0.663504 660.261 0.975342)" fill="#5ED1C5"/>
<rect x="784.22" y="12.9509" width="12" height="12" transform="rotate(11.6741 784.22 12.9509)" fill="#5ED1C5"/>
<rect x="910.55" y="51.0073" width="12" height="12" transform="rotate(23.1406 910.55 51.0073)" fill="#5ED1C5"/>
<rect x="1023.22" y="111.298" width="12" height="12" transform="rotate(34.3571 1023.22 111.298)" fill="#5ED1C5"/>
<rect x="1124.02" y="194.134" width="12" height="12" transform="rotate(45.6245 1124.02 194.134)" fill="#5ED1C5"/>
<rect x="1204.47" y="291.936" width="12" height="12" transform="rotate(56.6922 1204.47 291.936)" fill="#5ED1C5"/>
<rect x="1266.72" y="408.23" width="12" height="12" transform="rotate(68.1444 1266.72 408.23)" fill="#5ED1C5"/>
<rect x="1303.67" y="530.992" width="12" height="12" transform="rotate(79.4203 1303.67 530.992)" fill="#5ED1C5"/>
</svg>
