<svg width="730" height="730" viewBox="0 0 730 730" fill="none" xmlns="http://www.w3.org/2000/svg">
<rect x="729.993" y="361.524" width="6" height="6" transform="rotate(90 729.993 361.524)" fill="#5ED1C5"/>
<rect x="729.391" y="385.853" width="6" height="6" transform="rotate(93.7578 729.391 385.853)" fill="#5ED1C5"/>
<rect x="727.046" y="411.179" width="6" height="6" transform="rotate(97.7257 727.046 411.179)" fill="#5ED1C5"/>
<rect x="722.771" y="437.14" width="6" height="6" transform="rotate(101.893 722.771 437.14)" fill="#5ED1C5"/>
<rect x="716.979" y="461.434" width="6" height="6" transform="rotate(105.814 716.979 461.434)" fill="#5ED1C5"/>
<rect x="709.243" y="486.079" width="6" height="6" transform="rotate(109.922 709.243 486.079)" fill="#5ED1C5"/>
<rect x="699.839" y="509.948" width="6" height="6" transform="rotate(113.995 699.839 509.948)" fill="#5ED1C5"/>
<rect x="688.823" y="532.991" width="6" height="6" transform="rotate(118.036 688.823 532.991)" fill="#5ED1C5"/>
<rect x="676.252" y="555.142" width="6" height="6" transform="rotate(122.047 676.252 555.142)" fill="#5ED1C5"/>
<rect x="662.188" y="576.33" width="6" height="6" transform="rotate(126.033 662.188 576.33)" fill="#5ED1C5"/>
<rect x="646.694" y="596.476" width="6" height="6" transform="rotate(130.001 646.694 596.476)" fill="#5ED1C5"/>
<rect x="629.84" y="615.5" width="6" height="6" transform="rotate(133.959 629.84 615.5)" fill="#5ED1C5"/>
<rect x="611.702" y="633.317" width="6" height="6" transform="rotate(137.915 611.702 633.317)" fill="#5ED1C5"/>
<rect x="592.362" y="649.843" width="6" height="6" transform="rotate(141.877 592.362 649.843)" fill="#5ED1C5"/>
<rect x="571.908" y="664.995" width="6" height="6" transform="rotate(145.853 571.908 664.995)" fill="#5ED1C5"/>
<rect x="550.439" y="678.694" width="6" height="6" transform="rotate(149.85 550.439 678.694)" fill="#5ED1C5"/>
<rect x="528.057" y="690.863" width="6" height="6" transform="rotate(153.874 528.057 690.863)" fill="#5ED1C5"/>
<rect x="504.875" y="701.435" width="6" height="6" transform="rotate(157.93 504.875 701.435)" fill="#5ED1C5"/>
<rect x="481.081" y="710.317" width="6" height="6" transform="rotate(161.804 481.081 710.317)" fill="#5ED1C5"/>
<rect x="456.631" y="717.543" width="6" height="6" transform="rotate(165.925 456.631 717.543)" fill="#5ED1C5"/>
<rect x="431.782" y="723.012" width="6" height="6" transform="rotate(169.859 431.782 723.012)" fill="#5ED1C5"/>
<rect x="406.583" y="726.744" width="6" height="6" transform="rotate(174.036 406.583 726.744)" fill="#5ED1C5"/>
<rect x="380.71" y="729.4" width="6" height="6" transform="rotate(178.01 380.71 729.4)" fill="#5ED1C5"/>
<rect x="354.5" y="729.4" width="6" height="6" transform="rotate(-178.01 354.5 729.4)" fill="#5ED1C5"/>
<rect x="328.959" y="727.218" width="6" height="6" transform="rotate(-174.036 328.959 727.218)" fill="#5ED1C5"/>
<rect x="303.726" y="723.823" width="6" height="6" transform="rotate(-169.859 303.726 723.823)" fill="#5ED1C5"/>
<rect x="278.832" y="718.665" width="6" height="6" transform="rotate(-165.925 278.832 718.665)" fill="#5ED1C5"/>
<rect x="254.316" y="711.769" width="6" height="6" transform="rotate(-161.804 254.316 711.769)" fill="#5ED1C5"/>
<rect x="230.446" y="703.192" width="6" height="6" transform="rotate(-157.93 230.446 703.192)" fill="#5ED1C5"/>
<rect x="207.166" y="692.94" width="6" height="6" transform="rotate(-153.874 207.166 692.94)" fill="#5ED1C5"/>
<rect x="184.668" y="681.087" width="6" height="6" transform="rotate(-149.85 184.668 681.087)" fill="#5ED1C5"/>
<rect x="163.066" y="667.7" width="6" height="6" transform="rotate(-145.853 163.066 667.7)" fill="#5ED1C5"/>
<rect x="142.461" y="652.854" width="6" height="6" transform="rotate(-141.877 142.461 652.854)" fill="#5ED1C5"/>
<rect x="122.951" y="636.628" width="6" height="6" transform="rotate(-137.915 122.951 636.628)" fill="#5ED1C5"/>
<rect x="104.624" y="619.105" width="6" height="6" transform="rotate(-133.959 104.624 619.105)" fill="#5ED1C5"/>
<rect x="87.5602" y="600.369" width="6" height="6" transform="rotate(-130.001 87.5602 600.369)" fill="#5ED1C5"/>
<rect x="71.4996" y="580.058" width="6" height="6" transform="rotate(-125.824 71.4996 580.058)" fill="#5ED1C5"/>
<rect x="57.172" y="559.053" width="6" height="6" transform="rotate(-121.836 57.172 559.053)" fill="#5ED1C5"/>
<rect x="44.3229" y="537.065" width="6" height="6" transform="rotate(-117.824 44.3229 537.065)" fill="#5ED1C5"/>
<rect x="33.3517" y="514.9" width="6" height="6" transform="rotate(-113.995 33.3517 514.9)" fill="#5ED1C5"/>
<rect x="23.6212" y="491.262" width="6" height="6" transform="rotate(-109.922 23.6212 491.262)" fill="#5ED1C5"/>
<rect x="15.5358" y="466.833" width="6" height="6" transform="rotate(-105.814 15.5358 466.833)" fill="#5ED1C5"/>
<rect x="9.39124" y="442.724" width="6" height="6" transform="rotate(-101.893 9.39124 442.724)" fill="#5ED1C5"/>
<rect x="4.72083" y="416.934" width="6" height="6" transform="rotate(-97.7257 4.72083 416.934)" fill="#5ED1C5" fill-opacity="0.2"/>
<rect x="1.98212" y="391.747" width="6" height="6" transform="rotate(-93.7578 1.98212 391.747)" fill="#5ED1C5" fill-opacity="0.2"/>
<rect x="0.980469" y="364.651" width="6" height="6" transform="rotate(-89.5577 0.980469 364.651)" fill="#5ED1C5" fill-opacity="0.2"/>
<rect x="1.75635" y="340.533" width="6" height="6" transform="rotate(-85.8006 1.75635 340.533)" fill="#5ED1C5" fill-opacity="0.2"/>
<rect x="4.25244" y="315.459" width="6" height="6" transform="rotate(-81.8345 4.25244 315.459)" fill="#5ED1C5" fill-opacity="0.2"/>
<rect x="8.73975" y="289.353" width="6" height="6" transform="rotate(-77.6702 8.73975 289.353)" fill="#5ED1C5" fill-opacity="0.2"/>
<rect x="14.5791" y="265.536" width="6" height="6" transform="rotate(-73.7518 14.5791 265.536)" fill="#5ED1C5" fill-opacity="0.2"/>
<rect x="22.5146" y="240.795" width="6" height="6" transform="rotate(-69.6478 22.5146 240.795)" fill="#5ED1C5" fill-opacity="0.2"/>
<rect x="32.1274" y="216.862" width="6" height="6" transform="rotate(-65.5779 32.1274 216.862)" fill="#5ED1C5" fill-opacity="0.2"/>
<rect x="43.3369" y="193.824" width="6" height="6" transform="rotate(-61.5407 43.3369 193.824)" fill="#5ED1C5" fill-opacity="0.2"/>
<rect x="56.0635" y="171.757" width="6" height="6" transform="rotate(-57.5327 56.0635 171.757)" fill="#5ED1C5" fill-opacity="0.2"/>
<rect x="70.2295" y="150.727" width="6" height="6" transform="rotate(-53.5487 70.2295 150.727)" fill="#5ED1C5" fill-opacity="0.2"/>
<rect x="85.7622" y="130.797" width="6" height="6" transform="rotate(-49.5818 85.7622 130.797)" fill="#5ED1C5" fill-opacity="0.2"/>
<rect x="102.594" y="112.023" width="6" height="6" transform="rotate(-45.6245 102.594 112.023)" fill="#5ED1C5" fill-opacity="0.2"/>
<rect x="120.664" y="94.4619" width="6" height="6" transform="rotate(-41.6685 120.664 94.4619)" fill="#5ED1C5" fill-opacity="0.2"/>
<rect x="139.917" y="78.1675" width="6" height="6" transform="rotate(-37.7055 139.917 78.1675)" fill="#5ED1C5" fill-opacity="0.2"/>
<rect x="160.305" y="63.197" width="6" height="6" transform="rotate(-33.7277 160.305 63.197)" fill="#5ED1C5" fill-opacity="0.2"/>
<rect x="181.789" y="49.6106" width="6" height="6" transform="rotate(-29.7279 181.789 49.6106)" fill="#5ED1C5" fill-opacity="0.2"/>
<rect x="204.336" y="37.4741" width="6" height="6" transform="rotate(-25.7005 204.336 37.4741)" fill="#5ED1C5" fill-opacity="0.2"/>
<rect x="227.921" y="26.8608" width="6" height="6" transform="rotate(-21.6411 227.921 26.8608)" fill="#5ED1C5" fill-opacity="0.2"/>
<rect x="252.526" y="17.8547" width="6" height="6" transform="rotate(-17.5479 252.526 17.8547)" fill="#5ED1C5" fill-opacity="0.2"/>
<rect x="275.507" y="11.1943" width="6" height="6" transform="rotate(-13.6391 275.507 11.1943)" fill="#5ED1C5" fill-opacity="0.2"/>
<rect x="302.017" y="5.51953" width="6" height="6" transform="rotate(-9.48335 302.017 5.51953)" fill="#5ED1C5" fill-opacity="0.2"/>
<rect x="326.727" y="2.04639" width="6" height="6" transform="rotate(-5.52323 326.727 2.04639)" fill="#5ED1C5" fill-opacity="0.2"/>
<rect x="352.278" y="0.245117" width="6" height="6" transform="rotate(-1.54802 352.278 0.245117)" fill="#5ED1C5" fill-opacity="0.2"/>
<rect x="376.944" y="0.17334" width="6" height="6" transform="rotate(2.43225 376.944 0.17334)" fill="#5ED1C5" fill-opacity="0.2"/>
<rect x="402.356" y="1.83789" width="6" height="6" transform="rotate(6.40485 402.356 1.83789)" fill="#5ED1C5" fill-opacity="0.2"/>
<rect x="429.67" y="5.64136" width="6" height="6" transform="rotate(10.5797 429.67 5.64136)" fill="#5ED1C5" fill-opacity="0.2"/>
<rect x="453.419" y="10.6787" width="6" height="6" transform="rotate(14.5102 453.419 10.6787)" fill="#5ED1C5" fill-opacity="0.2"/>
<rect x="478.907" y="17.999" width="6" height="6" transform="rotate(18.6284 478.907 17.999)" fill="#5ED1C5" fill-opacity="0.2"/>
<rect x="501.021" y="26.0249" width="6" height="6" transform="rotate(22.4985 501.021 26.0249)" fill="#5ED1C5" fill-opacity="0.2"/>
<rect x="524.662" y="36.4958" width="6" height="6" transform="rotate(26.5509 524.662 36.4958)" fill="#5ED1C5" fill-opacity="0.2"/>
<rect x="547.295" y="48.5046" width="6" height="6" transform="rotate(30.5721 547.295 48.5046)" fill="#5ED1C5" fill-opacity="0.2"/>
<rect x="568.892" y="61.9819" width="6" height="6" transform="rotate(34.5667 568.892 61.9819)" fill="#5ED1C5" fill-opacity="0.2"/>
<rect x="589.413" y="76.865" width="6" height="6" transform="rotate(38.5408 589.413 76.865)" fill="#5ED1C5" fill-opacity="0.2"/>
<rect x="608.814" y="93.0957" width="6" height="6" transform="rotate(42.5016 608.814 93.0957)" fill="#5ED1C5" fill-opacity="0.2"/>
<rect x="628.594" y="112.24" width="6" height="6" transform="rotate(46.6654 628.594 112.24)" fill="#5ED1C5" fill-opacity="0.2"/>
<rect x="645.436" y="131.054" width="6" height="6" transform="rotate(50.6245 645.436 131.054)" fill="#5ED1C5" fill-opacity="0.2"/>
<rect x="660.979" y="151.036" width="6" height="6" transform="rotate(54.5952 660.979 151.036)" fill="#5ED1C5" fill-opacity="0.2"/>
<rect x="675.152" y="172.128" width="6" height="6" transform="rotate(58.5849 675.152 172.128)" fill="#5ED1C5" fill-opacity="0.2"/>
<rect x="687.883" y="194.269" width="6" height="6" transform="rotate(62.6001 687.883 194.269)" fill="#5ED1C5" fill-opacity="0.2"/>
<rect x="699.09" y="217.39" width="6" height="6" transform="rotate(66.6456 699.09 217.39)" fill="#5ED1C5" fill-opacity="0.2"/>
<rect x="708.08" y="239.711" width="6" height="6" transform="rotate(70.509 708.08 239.711)" fill="#5ED1C5" fill-opacity="0.2"/>
<rect x="716.137" y="264.589" width="6" height="6" transform="rotate(74.6201 716.137 264.589)" fill="#5ED1C5" fill-opacity="0.2"/>
<rect x="722.082" y="288.569" width="6" height="6" transform="rotate(78.5446 722.082 288.569)" fill="#5ED1C5" fill-opacity="0.2"/>
<rect x="726.646" y="314.84" width="6" height="6" transform="rotate(82.7144 726.646 314.84)" fill="#5ED1C5" fill-opacity="0.2"/>
<rect x="729.199" y="340.098" width="6" height="6" transform="rotate(86.6839 729.199 340.098)" fill="#5ED1C5" fill-opacity="0.2"/>
</svg>
