<svg width="842" height="841" viewBox="0 0 842 841" fill="none" xmlns="http://www.w3.org/2000/svg">
<rect x="842" y="415.552" width="10" height="10" transform="rotate(90 842 415.552)" fill="#5ED1C5"/>
<rect x="840.221" y="463.187" width="10" height="10" transform="rotate(96.4049 840.221 463.187)" fill="#5ED1C5"/>
<rect x="832.005" y="512.228" width="10" height="10" transform="rotate(103.203 832.005 512.228)" fill="#5ED1C5"/>
<rect x="818.587" y="559.334" width="10" height="10" transform="rotate(109.922 818.587 559.334)" fill="#5ED1C5"/>
<rect x="799.882" y="604.253" width="10" height="10" transform="rotate(116.551 799.882 604.253)" fill="#5ED1C5"/>
<rect x="775.752" y="647.246" width="10" height="10" transform="rotate(123.308 775.752 647.246)" fill="#5ED1C5"/>
<rect x="746.892" y="686.961" width="10" height="10" transform="rotate(130.001 746.892 686.961)" fill="#5ED1C5"/>
<rect x="713.992" y="722.682" width="10" height="10" transform="rotate(136.457 713.992 722.682)" fill="#5ED1C5"/>
<rect x="676.814" y="754.72" width="10" height="10" transform="rotate(143.13 676.814 754.72)" fill="#5ED1C5"/>
<rect x="636.194" y="782.213" width="10" height="10" transform="rotate(149.85 636.194 782.213)" fill="#5ED1C5"/>
<rect x="592.805" y="804.704" width="10" height="10" transform="rotate(156.432 592.805 804.704)" fill="#5ED1C5"/>
<rect x="546.934" y="822.052" width="10" height="10" transform="rotate(163.318 546.934 822.052)" fill="#5ED1C5"/>
<rect x="499.493" y="833.844" width="10" height="10" transform="rotate(169.859 499.493 833.844)" fill="#5ED1C5"/>
<rect x="450.944" y="840.063" width="10" height="10" transform="rotate(176.684 450.944 840.063)" fill="#5ED1C5"/>
<rect x="400.406" y="840.545" width="10" height="10" transform="rotate(-176.684 400.406 840.545)" fill="#5ED1C5"/>
<rect x="351.762" y="835.323" width="10" height="10" transform="rotate(-169.859 351.762 835.323)" fill="#5ED1C5"/>
<rect x="304.14" y="824.469" width="10" height="10" transform="rotate(-163.318 304.14 824.469)" fill="#5ED1C5"/>
<rect x="257.983" y="808.104" width="10" height="10" transform="rotate(-156.432 257.983 808.104)" fill="#5ED1C5"/>
<rect x="214.227" y="786.524" width="10" height="10" transform="rotate(-149.85 214.227 786.524)" fill="#5ED1C5"/>
<rect x="173.136" y="759.934" width="10" height="10" transform="rotate(-143.13 173.136 759.934)" fill="#5ED1C5"/>
<rect x="135.394" y="728.754" width="10" height="10" transform="rotate(-136.457 135.394 728.754)" fill="#5ED1C5"/>
<rect x="101.859" y="693.813" width="10" height="10" transform="rotate(-130.001 101.859 693.813)" fill="#5ED1C5" fill-opacity="0.2"/>
<rect x="72.2449" y="654.851" width="10" height="10" transform="rotate(-123.308 72.2449 654.851)" fill="#5ED1C5" fill-opacity="0.2"/>
<rect x="47.2596" y="612.543" width="10" height="10" transform="rotate(-116.551 47.2596 612.543)" fill="#5ED1C5" fill-opacity="0.2"/>
<rect x="27.6302" y="568.21" width="10" height="10" transform="rotate(-109.922 27.6302 568.21)" fill="#5ED1C5" fill-opacity="0.2"/>
<rect x="13.1937" y="521.599" width="10" height="10" transform="rotate(-103.203 13.1937 521.599)" fill="#5ED1C5" fill-opacity="0.2"/>
<rect x="4.19952" y="472.916" width="10" height="10" transform="rotate(-96.4049 4.19952 472.916)" fill="#5ED1C5" fill-opacity="0.2"/>
<rect x="0.974121" y="422.238" width="10" height="10" transform="rotate(-89.5577 0.974121 422.238)" fill="#5ED1C5" fill-opacity="0.2"/>
<rect x="3.40137" y="375.049" width="10" height="10" transform="rotate(-83.1546 3.40137 375.049)" fill="#5ED1C5" fill-opacity="0.2"/>
<rect x="11.6235" y="326.074" width="10" height="10" transform="rotate(-76.3609 11.6235 326.074)" fill="#5ED1C5" fill-opacity="0.2"/>
<rect x="25.2939" y="279.255" width="10" height="10" transform="rotate(-69.6478 25.2939 279.255)" fill="#5ED1C5" fill-opacity="0.2"/>
<rect x="43.9702" y="235.073" width="10" height="10" transform="rotate(-63.0244 43.9702 235.073)" fill="#5ED1C5" fill-opacity="0.2"/>
<rect x="68.5068" y="191.887" width="10" height="10" transform="rotate(-56.2723 68.5068 191.887)" fill="#5ED1C5" fill-opacity="0.2"/>
<rect x="97.7969" y="152.086" width="10" height="10" transform="rotate(-49.5818 97.7969 152.086)" fill="#5ED1C5" fill-opacity="0.2"/>
<rect x="131.472" y="116.034" width="10" height="10" transform="rotate(-42.9181 131.472 116.034)" fill="#5ED1C5" fill-opacity="0.2"/>
<rect x="166.99" y="85.7344" width="10" height="10" transform="rotate(-36.4513 166.99 85.7344)" fill="#5ED1C5" fill-opacity="0.2"/>
<rect x="208.238" y="58.019" width="10" height="10" transform="rotate(-29.7279 208.238 58.019)" fill="#5ED1C5" fill-opacity="0.2"/>
<rect x="253.089" y="35.1001" width="10" height="10" transform="rotate(-22.9266 253.089 35.1001)" fill="#5ED1C5" fill-opacity="0.2"/>
<rect x="298.437" y="18.3098" width="10" height="10" transform="rotate(-16.2482 298.437 18.3098)" fill="#5ED1C5" fill-opacity="0.2"/>
<rect x="346.757" y="6.64478" width="10" height="10" transform="rotate(-9.48335 346.757 6.64478)" fill="#5ED1C5" fill-opacity="0.2"/>
<rect x="394.787" y="0.853516" width="10" height="10" transform="rotate(-2.87423 394.787 0.853516)" fill="#5ED1C5" fill-opacity="0.2"/>
<rect x="443.055" y="0.543213" width="10" height="10" transform="rotate(3.75782 443.055 0.543213)" fill="#5ED1C5" fill-opacity="0.2"/>
<rect x="494.024" y="6.24976" width="10" height="10" transform="rotate(10.5797 494.024 6.24976)" fill="#5ED1C5" fill-opacity="0.2"/>
<rect x="539.238" y="16.7039" width="10" height="10" transform="rotate(17.115 539.238 16.7039)" fill="#5ED1C5" fill-opacity="0.2"/>
<rect x="587.479" y="34.0425" width="10" height="10" transform="rotate(23.9953 587.479 34.0425)" fill="#5ED1C5" fill-opacity="0.2"/>
<rect x="629.914" y="55.2012" width="10" height="10" transform="rotate(30.5721 629.914 55.2012)" fill="#5ED1C5" fill-opacity="0.2"/>
<rect x="671.585" y="82.4219" width="10" height="10" transform="rotate(37.2876 671.585 82.4219)" fill="#5ED1C5" fill-opacity="0.2"/>
<rect x="709.536" y="114.145" width="10" height="10" transform="rotate(43.9591 709.536 114.145)" fill="#5ED1C5" fill-opacity="0.2"/>
<rect x="743.476" y="150.023" width="10" height="10" transform="rotate(50.6245 743.476 150.023)" fill="#5ED1C5" fill-opacity="0.2"/>
<rect x="771.765" y="187.73" width="10" height="10" transform="rotate(57.1123 771.765 187.73)" fill="#5ED1C5" fill-opacity="0.2"/>
<rect x="796.922" y="230.861" width="10" height="10" transform="rotate(63.8741 796.922 230.861)" fill="#5ED1C5" fill-opacity="0.2"/>
<rect x="816.207" y="275.114" width="10" height="10" transform="rotate(70.509 816.207 275.114)" fill="#5ED1C5" fill-opacity="0.2"/>
<rect x="830.447" y="322.109" width="10" height="10" transform="rotate(77.2334 830.447 322.109)" fill="#5ED1C5" fill-opacity="0.2"/>
<rect x="839.182" y="371.347" width="10" height="10" transform="rotate(84.0359 839.182 371.347)" fill="#5ED1C5" fill-opacity="0.2"/>
</svg>
