<svg width="406" height="407" viewBox="0 0 406 407" fill="none" xmlns="http://www.w3.org/2000/svg">
<rect x="406.009" y="197.499" width="12" height="12" transform="rotate(90 406.009 197.499)" fill="#5ED1C5"/>
<rect x="405.524" y="218.836" width="12" height="12" transform="rotate(95.9641 405.524 218.836)" fill="#5ED1C5"/>
<rect x="402.754" y="240.343" width="12" height="12" transform="rotate(102.111 402.754 240.343)" fill="#5ED1C5"/>
<rect x="397.762" y="261.185" width="12" height="12" transform="rotate(108.196 397.762 261.185)" fill="#5ED1C5"/>
<rect x="390.452" y="281.697" width="12" height="12" transform="rotate(114.422 390.452 281.697)" fill="#5ED1C5"/>
<rect x="381.215" y="300.831" width="12" height="12" transform="rotate(120.361 381.215 300.831)" fill="#5ED1C5"/>
<rect x="369.813" y="319.201" width="12" height="12" transform="rotate(126.451 369.813 319.201)" fill="#5ED1C5"/>
<rect x="356.384" y="336.435" width="12" height="12" transform="rotate(132.71 356.384 336.435)" fill="#5ED1C5"/>
<rect x="341.401" y="351.913" width="12" height="12" transform="rotate(138.748 341.401 351.913)" fill="#5ED1C5"/>
<rect x="324.854" y="365.734" width="12" height="12" transform="rotate(144.805 324.854 365.734)" fill="#5ED1C5"/>
<rect x="306.92" y="377.736" width="12" height="12" transform="rotate(150.906 306.92 377.736)" fill="#5ED1C5"/>
<rect x="287.799" y="387.771" width="12" height="12" transform="rotate(157.073 287.799 387.771)" fill="#5ED1C5"/>
<rect x="267.757" y="395.673" width="12" height="12" transform="rotate(163.102 267.757 395.673)" fill="#5ED1C5"/>
<rect x="246.955" y="401.398" width="12" height="12" transform="rotate(169.201 246.955 401.398)" fill="#5ED1C5"/>
<rect x="225.656" y="404.877" width="12" height="12" transform="rotate(175.359 225.656 404.877)" fill="#5ED1C5"/>
<rect x="203.338" y="406.069" width="12" height="12" transform="rotate(-178.452 203.338 406.069)" fill="#5ED1C5"/>
<rect x="181.795" y="404.931" width="12" height="12" transform="rotate(-172.274 181.795 404.931)" fill="#5ED1C5"/>
<rect x="160.502" y="401.508" width="12" height="12" transform="rotate(-166.143 160.502 401.508)" fill="#5ED1C5"/>
<rect x="139.725" y="395.828" width="12" height="12" transform="rotate(-160.078 139.725 395.828)" fill="#5ED1C5"/>
<rect x="119.633" y="387.955" width="12" height="12" transform="rotate(-153.874 119.633 387.955)" fill="#5ED1C5"/>
<rect x="100.512" y="377.982" width="12" height="12" transform="rotate(-147.743 100.512 377.982)" fill="#5ED1C5"/>
<rect x="82.5775" y="366.043" width="12" height="12" transform="rotate(-141.668 82.5775 366.043)" fill="#5ED1C5"/>
<rect x="66.0267" y="352.289" width="12" height="12" transform="rotate(-135.625 66.0267 352.289)" fill="#5ED1C5"/>
<rect x="51.0292" y="336.878" width="12" height="12" transform="rotate(-129.584 51.0292 336.878)" fill="#5ED1C5" fill-opacity="0.2"/>
<rect x="37.7382" y="319.971" width="12" height="12" transform="rotate(-123.518 37.7382 319.971)" fill="#5ED1C5" fill-opacity="0.2"/>
<rect x="26.2875" y="301.719" width="12" height="12" transform="rotate(-117.4 26.2875 301.719)" fill="#5ED1C5" fill-opacity="0.2"/>
<rect x="16.8021" y="282.257" width="12" height="12" transform="rotate(-111.212 16.8021 282.257)" fill="#5ED1C5" fill-opacity="0.2"/>
<rect x="9.57214" y="262.237" width="12" height="12" transform="rotate(-105.163 9.57214 262.237)" fill="#5ED1C5" fill-opacity="0.2"/>
<rect x="4.46321" y="241.4" width="12" height="12" transform="rotate(-99.0443 4.46321 241.4)" fill="#5ED1C5" fill-opacity="0.2"/>
<rect x="1.56706" y="219.792" width="12" height="12" transform="rotate(-92.8742 1.56706 219.792)" fill="#5ED1C5" fill-opacity="0.2"/>
<rect x="1.00391" y="197.623" width="12" height="12" transform="rotate(-86.6839 1.00391 197.623)" fill="#5ED1C5" fill-opacity="0.2"/>
<rect x="2.7915" y="175.844" width="12" height="12" transform="rotate(-80.5167 2.7915 175.844)" fill="#5ED1C5" fill-opacity="0.2"/>
<rect x="6.81348" y="154.784" width="12" height="12" transform="rotate(-74.4029 6.81348 154.784)" fill="#5ED1C5" fill-opacity="0.2"/>
<rect x="12.9141" y="134.645" width="12" height="12" transform="rotate(-68.3589 12.9141 134.645)" fill="#5ED1C5" fill-opacity="0.2"/>
<rect x="21.4067" y="114.606" width="12" height="12" transform="rotate(-62.1761 21.4067 114.606)" fill="#5ED1C5" fill-opacity="0.2"/>
<rect x="31.9048" y="95.7593" width="12" height="12" transform="rotate(-56.0625 31.9048 95.7593)" fill="#5ED1C5" fill-opacity="0.2"/>
<rect x="44.2612" y="78.2405" width="12" height="12" transform="rotate(-49.9988 44.2612 78.2405)" fill="#5ED1C5" fill-opacity="0.2"/>
<rect x="58.3433" y="62.1682" width="12" height="12" transform="rotate(-43.9591 58.3433 62.1682)" fill="#5ED1C5" fill-opacity="0.2"/>
<rect x="74.0342" y="47.655" width="12" height="12" transform="rotate(-37.9144 74.0342 47.655)" fill="#5ED1C5" fill-opacity="0.2"/>
<rect x="91.2402" y="34.8152" width="12" height="12" transform="rotate(-31.8362 91.2402 34.8152)" fill="#5ED1C5" fill-opacity="0.2"/>
<rect x="109.888" y="23.7732" width="12" height="12" transform="rotate(-25.7005 109.888 23.7732)" fill="#5ED1C5" fill-opacity="0.2"/>
<rect x="129.927" y="14.6753" width="12" height="12" transform="rotate(-19.491 129.927 14.6753)" fill="#5ED1C5" fill-opacity="0.2"/>
<rect x="149.879" y="8.06348" width="12" height="12" transform="rotate(-13.4211 149.879 8.06348)" fill="#5ED1C5" fill-opacity="0.2"/>
<rect x="171.015" y="3.48242" width="12" height="12" transform="rotate(-7.28563 171.015 3.48242)" fill="#5ED1C5" fill-opacity="0.2"/>
<rect x="193.341" y="1.15674" width="12" height="12" transform="rotate(-1.10579 193.341 1.15674)" fill="#5ED1C5" fill-opacity="0.2"/>
<rect x="215.333" y="1.23853" width="12" height="12" transform="rotate(5.08213 215.333 1.23853)" fill="#5ED1C5" fill-opacity="0.2"/>
<rect x="237.104" y="3.677" width="12" height="12" transform="rotate(11.2366 237.104 3.677)" fill="#5ED1C5" fill-opacity="0.2"/>
<rect x="257.836" y="8.26587" width="12" height="12" transform="rotate(17.3315 257.836 8.26587)" fill="#5ED1C5" fill-opacity="0.2"/>
<rect x="278.847" y="15.3804" width="12" height="12" transform="rotate(23.5681 278.847 15.3804)" fill="#5ED1C5" fill-opacity="0.2"/>
<rect x="297.405" y="23.9167" width="12" height="12" transform="rotate(29.5167 297.405 23.9167)" fill="#5ED1C5" fill-opacity="0.2"/>
<rect x="315.983" y="34.9541" width="12" height="12" transform="rotate(35.6142 315.983 34.9541)" fill="#5ED1C5" fill-opacity="0.2"/>
<rect x="334.156" y="48.6597" width="12" height="12" transform="rotate(41.8768 334.156 48.6597)" fill="#5ED1C5" fill-opacity="0.2"/>
<rect x="349.764" y="63.3108" width="12" height="12" transform="rotate(47.9149 349.764 63.3108)" fill="#5ED1C5" fill-opacity="0.2"/>
<rect x="363.778" y="79.5591" width="12" height="12" transform="rotate(53.9671 363.778 79.5591)" fill="#5ED1C5" fill-opacity="0.2"/>
<rect x="376.064" y="97.2947" width="12" height="12" transform="rotate(60.0609 376.064 97.2947)" fill="#5ED1C5" fill-opacity="0.2"/>
<rect x="386.469" y="116.396" width="12" height="12" transform="rotate(66.2182 386.469 116.396)" fill="#5ED1C5"/>
<rect x="394.511" y="135.792" width="12" height="12" transform="rotate(72.2358 394.511 135.792)" fill="#5ED1C5"/>
<rect x="400.575" y="156.301" width="12" height="12" transform="rotate(78.3259 400.575 156.301)" fill="#5ED1C5"/>
<rect x="404.478" y="177.748" width="12" height="12" transform="rotate(84.4768 404.478 177.748)" fill="#5ED1C5"/>
</svg>
