<svg width="1109" height="1109" viewBox="0 0 1109 1109" fill="none" xmlns="http://www.w3.org/2000/svg">
<rect x="1108.07" y="529.576" width="50" height="50" transform="rotate(90 1108.07 529.576)" fill="#5ED1C5" fill-opacity="0.2"/>
<rect x="1088.86" y="701.826" width="50" height="50" transform="rotate(107.98 1088.86 701.826)" fill="#5ED1C5" fill-opacity="0.2"/>
<rect x="1017.13" y="859.684" width="50" height="50" transform="rotate(126.033 1017.13 859.684)" fill="#5ED1C5"/>
<rect x="900.46" y="987.354" width="50" height="50" transform="rotate(143.758 900.46 987.354)" fill="#5ED1C5"/>
<rect x="749.581" y="1073.26" width="50" height="50" transform="rotate(161.804 749.581 1073.26)" fill="#5ED1C5"/>
<rect x="577.393" y="1108.17" width="50" height="50" transform="rotate(-179.779 577.393 1108.17)" fill="#5ED1C5"/>
<rect x="405.185" y="1088.26" width="50" height="50" transform="rotate(-161.804 405.185 1088.26)" fill="#5ED1C5"/>
<rect x="247.658" y="1015.92" width="50" height="50" transform="rotate(-143.758 247.658 1015.92)" fill="#5ED1C5"/>
<rect x="120.118" y="898.459" width="50" height="50" transform="rotate(-125.824 120.118 898.459)" fill="#5ED1C5"/>
<rect x="34.9923" y="747.409" width="50" height="50" transform="rotate(-107.764 34.9923 747.409)" fill="#5ED1C5"/>
<rect x="0.898438" y="575.217" width="50" height="50" transform="rotate(-89.5577 0.898438 575.217)" fill="#5ED1C5"/>
<rect x="21.3726" y="403.44" width="50" height="50" transform="rotate(-71.5876 21.3726 403.44)" fill="#5ED1C5"/>
<rect x="94.082" y="246.346" width="50" height="50" transform="rotate(-53.5487 94.082 246.346)" fill="#5ED1C5" fill-opacity="0.2"/>
<rect x="212.156" y="118.954" width="50" height="50" transform="rotate(-35.6142 212.156 118.954)" fill="#5ED1C5" fill-opacity="0.2"/>
<rect x="363.552" y="34.3184" width="50" height="50" transform="rotate(-17.5479 363.552 34.3184)" fill="#5ED1C5" fill-opacity="0.2"/>
<rect x="536.104" y="0.824707" width="50" height="50" transform="rotate(0.663504 536.104 0.824707)" fill="#5ED1C5" fill-opacity="0.2"/>
<rect x="707.434" y="21.8503" width="50" height="50" transform="rotate(18.6284 707.434 21.8503)" fill="#5ED1C5" fill-opacity="0.2"/>
<rect x="864.322" y="95.0938" width="50" height="50" transform="rotate(36.6605 864.322 95.0938)" fill="#5ED1C5" fill-opacity="0.2"/>
<rect x="991.424" y="213.719" width="50" height="50" transform="rotate(54.5952 991.424 213.719)" fill="#5ED1C5" fill-opacity="0.2"/>
<rect x="1075.56" y="365.562" width="50" height="50" transform="rotate(72.6685 1075.56 365.562)" fill="#5ED1C5" fill-opacity="0.2"/>
</svg>
