<svg width="631" height="631" viewBox="0 0 631 631" fill="none" xmlns="http://www.w3.org/2000/svg">
<rect x="630.273" y="293.536" width="44" height="44" transform="rotate(90 630.273 293.536)" fill="#5ED1C5" fill-opacity="0.2"/>
<rect x="627.711" y="361.521" width="44" height="44" transform="rotate(102.33 627.711 361.521)" fill="#5ED1C5" fill-opacity="0.2"/>
<rect x="610.531" y="427.621" width="44" height="44" transform="rotate(114.849 610.531 427.621)" fill="#5ED1C5" fill-opacity="0.2"/>
<rect x="579.713" y="487.936" width="44" height="44" transform="rotate(127.079 579.713 487.936)" fill="#5ED1C5" fill-opacity="0.2"/>
<rect x="536.191" y="540.924" width="44" height="44" transform="rotate(139.582 536.191 540.924)" fill="#5ED1C5" fill-opacity="0.2"/>
<rect x="482.594" y="583.079" width="44" height="44" transform="rotate(151.964 482.594 583.079)" fill="#5ED1C5" fill-opacity="0.2"/>
<rect x="421.171" y="612.714" width="44" height="44" transform="rotate(164.403 421.171 612.714)" fill="#5ED1C5" fill-opacity="0.2"/>
<rect x="354.767" y="628.394" width="44" height="44" transform="rotate(176.905 354.767 628.394)" fill="#5ED1C5" fill-opacity="0.2"/>
<rect x="288.325" y="630.346" width="44" height="44" transform="rotate(-170.736 288.325 630.346)" fill="#5ED1C5" fill-opacity="0.2"/>
<rect x="218.678" y="615.529" width="44" height="44" transform="rotate(-158.144 218.678 615.529)" fill="#5ED1C5" fill-opacity="0.2"/>
<rect x="156.45" y="587.618" width="44" height="44" transform="rotate(-145.643 156.45 587.618)" fill="#5ED1C5" fill-opacity="0.2"/>
<rect x="101.834" y="547.067" width="44" height="44" transform="rotate(-133.335 101.834 547.067)" fill="#5ED1C5" fill-opacity="0.2"/>
<rect x="57.1462" y="495.832" width="44" height="44" transform="rotate(-120.994 57.1462 495.832)" fill="#5ED1C5" fill-opacity="0.2"/>
<rect x="24.2468" y="435.771" width="44" height="44" transform="rotate(-108.412 24.2468 435.771)" fill="#5ED1C5" fill-opacity="0.2"/>
<rect x="5.27206" y="370.424" width="44" height="44" transform="rotate(-95.9641 5.27206 370.424)" fill="#5ED1C5" fill-opacity="0.2"/>
<rect x="0.784668" y="302.057" width="44" height="44" transform="rotate(-83.5951 0.784668 302.057)" fill="#5ED1C5" fill-opacity="0.2"/>
<rect x="11.2554" y="233.603" width="44" height="44" transform="rotate(-70.9401 11.2554 233.603)" fill="#5ED1C5" fill-opacity="0.2"/>
<rect x="35.5537" y="170.881" width="44" height="44" transform="rotate(-58.5849 35.5537 170.881)" fill="#5ED1C5" fill-opacity="0.2"/>
<rect x="72.9683" y="114.371" width="44" height="44" transform="rotate(-46.249 72.9683 114.371)" fill="#5ED1C5" fill-opacity="0.2"/>
<rect x="121.439" y="67.1934" width="44" height="44" transform="rotate(-33.9375 121.439 67.1934)" fill="#5ED1C5"/>
<rect x="179.829" y="30.9492" width="44" height="44" transform="rotate(-21.4265 179.829 30.9492)" fill="#5ED1C5"/>
<rect x="245.241" y="8.17603" width="44" height="44" transform="rotate(-8.82471 245.241 8.17603)" fill="#5ED1C5"/>
<rect x="312.528" y="0.223633" width="44" height="44" transform="rotate(3.53697 312.528 0.223633)" fill="#5ED1C5"/>
<rect x="380.996" y="6.97144" width="44" height="44" transform="rotate(16.0313 380.996 6.97144)" fill="#5ED1C5"/>
<rect x="445.317" y="27.9583" width="44" height="44" transform="rotate(28.4593 445.317 27.9583)" fill="#5ED1C5"/>
<rect x="505.593" y="63.7996" width="44" height="44" transform="rotate(41.0434 505.593 63.7996)" fill="#5ED1C5"/>
<rect x="554.98" y="110.152" width="44" height="44" transform="rotate(53.3395 554.98 110.152)" fill="#5ED1C5"/>
<rect x="593.707" y="166.58" width="44" height="44" transform="rotate(65.7912 593.707 166.58)" fill="#5ED1C5"/>
<rect x="618.939" y="228.675" width="44" height="44" transform="rotate(78.1072 618.939 228.675)" fill="#5ED1C5" fill-opacity="0.2"/>
</svg>
