<svg width="1316" height="1317" viewBox="0 0 1316 1317" fill="none" xmlns="http://www.w3.org/2000/svg">
<g clip-path="url(#clip0_289_63041)">
<path d="M686.297 703.367L659.801 729.741L633.296 703.377L659.791 677.003L686.297 703.367Z" fill="#5ED1C5" fill-opacity="0.2"/>
<path d="M626.726 698.641L593.331 681.717L610.34 648.488L643.735 665.412L626.726 698.641Z" fill="#5ED1C5" fill-opacity="0.2"/>
<path d="M612.843 640.764L618.699 603.93L655.716 609.758L649.86 646.591L612.843 640.764Z" fill="#5ED1C5"/>
<path d="M663.852 609.744L700.867 603.904L706.736 640.736L669.721 646.576L663.852 609.744Z" fill="#5ED1C5"/>
<path d="M709.255 648.451L726.275 681.675L692.885 698.611L675.865 665.387L709.255 648.451Z" fill="#5ED1C5"/>
</g>
<rect x="788.991" y="655.498" width="6" height="6" transform="rotate(90 788.991 655.498)" fill="#5ED1C5" fill-opacity="0.2"/>
<rect x="788.768" y="666.74" width="6" height="6" transform="rotate(94.8615 788.768 666.74)" fill="#5ED1C5" fill-opacity="0.2"/>
<rect x="787.541" y="678.238" width="6" height="6" transform="rotate(99.9221 787.541 678.238)" fill="#5ED1C5" fill-opacity="0.2"/>
<rect x="785.241" y="689.827" width="6" height="6" transform="rotate(105.163 785.241 689.827)" fill="#5ED1C5" fill-opacity="0.2"/>
<rect x="782.044" y="700.716" width="6" height="6" transform="rotate(110.137 782.044 700.716)" fill="#5ED1C5" fill-opacity="0.2"/>
<rect x="777.796" y="711.537" width="6" height="6" transform="rotate(115.275 777.796 711.537)" fill="#5ED1C5" fill-opacity="0.2"/>
<rect x="772.623" y="721.888" width="6" height="6" transform="rotate(120.361 772.623 721.888)" fill="#5ED1C5" fill-opacity="0.2"/>
<rect x="766.566" y="731.718" width="6" height="6" transform="rotate(125.405 766.566 731.718)" fill="#5ED1C5" fill-opacity="0.2"/>
<rect x="759.67" y="740.969" width="6" height="6" transform="rotate(130.418 759.67 740.969)" fill="#5ED1C5" fill-opacity="0.2"/>
<rect x="751.889" y="749.69" width="6" height="6" transform="rotate(135.625 751.889 749.69)" fill="#5ED1C5" fill-opacity="0.2"/>
<rect x="743.482" y="757.573" width="6" height="6" transform="rotate(140.624 743.482 757.573)" fill="#5ED1C5" fill-opacity="0.2"/>
<rect x="734.403" y="764.696" width="6" height="6" transform="rotate(145.643 734.403 764.696)" fill="#5ED1C5" fill-opacity="0.2"/>
<rect x="724.723" y="770.999" width="6" height="6" transform="rotate(150.695 724.723 770.999)" fill="#5ED1C5" fill-opacity="0.2"/>
<rect x="714.515" y="776.426" width="6" height="6" transform="rotate(155.791 714.515 776.426)" fill="#5ED1C5" fill-opacity="0.2"/>
<rect x="703.862" y="780.928" width="6" height="6" transform="rotate(160.94 703.862 780.928)" fill="#5ED1C5" fill-opacity="0.2"/>
<rect x="692.873" y="784.447" width="6" height="6" transform="rotate(165.925 692.873 784.447)" fill="#5ED1C5" fill-opacity="0.2"/>
<rect x="681.587" y="786.994" width="6" height="6" transform="rotate(171.175 681.587 786.994)" fill="#5ED1C5" fill-opacity="0.2"/>
<rect x="669.676" y="788.752" width="6" height="6" transform="rotate(176.242 669.676 788.752)" fill="#5ED1C5" fill-opacity="0.2"/>
<rect x="658.097" y="789.024" width="6" height="6" transform="rotate(-178.673 658.097 789.024)" fill="#5ED1C5" fill-opacity="0.2"/>
<rect x="646.561" y="788.489" width="6" height="6" transform="rotate(-173.595 646.561 788.489)" fill="#5ED1C5" fill-opacity="0.2"/>
<rect x="635.122" y="786.94" width="6" height="6" transform="rotate(-168.545 635.122 786.94)" fill="#5ED1C5" fill-opacity="0.2"/>
<rect x="623.845" y="784.384" width="6" height="6" transform="rotate(-163.318 623.845 784.384)" fill="#5ED1C5" fill-opacity="0.2"/>
<rect x="612.885" y="780.835" width="6" height="6" transform="rotate(-158.359 612.885 780.835)" fill="#5ED1C5" fill-opacity="0.2"/>
<rect x="602.257" y="776.325" width="6" height="6" transform="rotate(-153.237 602.257 776.325)" fill="#5ED1C5" fill-opacity="0.2"/>
<rect x="592.082" y="770.893" width="6" height="6" transform="rotate(-148.164 592.082 770.893)" fill="#5ED1C5" fill-opacity="0.2"/>
<rect x="582.438" y="764.592" width="6" height="6" transform="rotate(-143.13 582.438 764.592)" fill="#5ED1C5" fill-opacity="0.2"/>
<rect x="573.398" y="757.477" width="6" height="6" transform="rotate(-138.123 573.398 757.477)" fill="#5ED1C5" fill-opacity="0.2"/>
<rect x="564.911" y="749.502" width="6" height="6" transform="rotate(-132.918 564.911 749.502)" fill="#5ED1C5" fill-opacity="0.2"/>
<rect x="557.258" y="740.909" width="6" height="6" transform="rotate(-127.914 557.258 740.909)" fill="#5ED1C5" fill-opacity="0.2"/>
<rect x="550.389" y="731.68" width="6" height="6" transform="rotate(-122.888 550.389 731.68)" fill="#5ED1C5" fill-opacity="0.2"/>
<rect x="544.35" y="721.873" width="6" height="6" transform="rotate(-117.824 544.35 721.873)" fill="#5ED1C5" fill-opacity="0.2"/>
<rect x="539.185" y="711.538" width="6" height="6" transform="rotate(-112.713 539.185 711.538)" fill="#5ED1C5" fill-opacity="0.2"/>
<rect x="534.937" y="700.72" width="6" height="6" transform="rotate(-107.548 534.937 700.72)" fill="#5ED1C5"/>
<rect x="531.743" y="689.83" width="6" height="6" transform="rotate(-102.548 531.743 689.83)" fill="#5ED1C5"/>
<rect x="529.5" y="678.623" width="6" height="6" transform="rotate(-97.5057 529.5 678.623)" fill="#5ED1C5"/>
<rect x="528.237" y="667.111" width="6" height="6" transform="rotate(-92.4323 528.237 667.111)" fill="#5ED1C5"/>
<rect x="528.006" y="654.852" width="6" height="6" transform="rotate(-87.1258 528.006 654.852)" fill="#5ED1C5"/>
<rect x="528.833" y="643.281" width="6" height="6" transform="rotate(-82.0544 528.833 643.281)" fill="#5ED1C5"/>
<rect x="530.641" y="632.027" width="6" height="6" transform="rotate(-77.0152 530.641 632.027)" fill="#5ED1C5"/>
<rect x="533.369" y="621.166" width="6" height="6" transform="rotate(-72.0197 533.369 621.166)" fill="#5ED1C5"/>
<rect x="537.205" y="610.137" width="6" height="6" transform="rotate(-66.8594 537.205 610.137)" fill="#5ED1C5"/>
<rect x="541.967" y="599.594" width="6" height="6" transform="rotate(-61.7524 541.967 599.594)" fill="#5ED1C5"/>
<rect x="547.6" y="589.591" width="6" height="6" transform="rotate(-56.6922 547.6 589.591)" fill="#5ED1C5"/>
<rect x="554.046" y="580.176" width="6" height="6" transform="rotate(-51.668 554.046 580.176)" fill="#5ED1C5"/>
<rect x="561.798" y="570.804" width="6" height="6" transform="rotate(-46.4572 561.798 570.804)" fill="#5ED1C5"/>
<rect x="569.798" y="562.718" width="6" height="6" transform="rotate(-41.4602 569.798 562.718)" fill="#5ED1C5"/>
<rect x="578.478" y="555.348" width="6" height="6" transform="rotate(-36.4513 578.478 555.348)" fill="#5ED1C5"/>
<rect x="587.803" y="548.734" width="6" height="6" transform="rotate(-31.4151 587.803 548.734)" fill="#5ED1C5"/>
<rect x="597.748" y="542.921" width="6" height="6" transform="rotate(-26.3384 597.748 542.921)" fill="#5ED1C5"/>
<rect x="608.296" y="537.958" width="6" height="6" transform="rotate(-21.2119 608.296 537.958)" fill="#5ED1C5"/>
<rect x="619.435" y="533.905" width="6" height="6" transform="rotate(-16.0313 619.435 533.905)" fill="#5ED1C5"/>
<rect x="630.201" y="531.031" width="6" height="6" transform="rotate(-11.0177 630.201 531.031)" fill="#5ED1C5"/>
<rect x="641.468" y="529.055" width="6" height="6" transform="rotate(-5.96414 641.468 529.055)" fill="#5ED1C5"/>
<rect x="653.2" y="527.8" width="6" height="6" transform="rotate(-0.884654 653.2 527.8)" fill="#5ED1C5"/>
<rect x="664.8" y="527.8" width="6" height="6" transform="rotate(4.19941 664.8 527.8)" fill="#5ED1C5"/>
<rect x="676.221" y="529.145" width="6" height="6" transform="rotate(9.26387 676.221 529.145)" fill="#5ED1C5"/>
<rect x="688.227" y="531.362" width="6" height="6" transform="rotate(14.5102 688.227 531.362)" fill="#5ED1C5" fill-opacity="0.2"/>
<rect x="698.818" y="534.301" width="6" height="6" transform="rotate(19.491 698.818 534.301)" fill="#5ED1C5" fill-opacity="0.2"/>
<rect x="709.806" y="538.428" width="6" height="6" transform="rotate(24.6354 709.806 538.428)" fill="#5ED1C5" fill-opacity="0.2"/>
<rect x="720.243" y="543.457" width="6" height="6" transform="rotate(29.7279 720.243 543.457)" fill="#5ED1C5" fill-opacity="0.2"/>
<rect x="730.11" y="549.338" width="6" height="6" transform="rotate(34.7763 730.11 549.338)" fill="#5ED1C5" fill-opacity="0.2"/>
<rect x="740.028" y="556.556" width="6" height="6" transform="rotate(40.0012 740.028 556.556)" fill="#5ED1C5" fill-opacity="0.2"/>
<rect x="748.598" y="564.05" width="6" height="6" transform="rotate(45 748.598 564.05)" fill="#5ED1C5" fill-opacity="0.2"/>
<rect x="756.495" y="572.268" width="6" height="6" transform="rotate(49.9988 756.495 572.268)" fill="#5ED1C5" fill-opacity="0.2"/>
<rect x="763.672" y="581.172" width="6" height="6" transform="rotate(55.0141 763.672 581.172)" fill="#5ED1C5" fill-opacity="0.2"/>
<rect x="770.078" y="590.724" width="6" height="6" transform="rotate(60.0609 770.078 590.724)" fill="#5ED1C5" fill-opacity="0.2"/>
<rect x="775.656" y="600.88" width="6" height="6" transform="rotate(65.1514 775.656 600.88)" fill="#5ED1C5" fill-opacity="0.2"/>
<rect x="780.345" y="611.59" width="6" height="6" transform="rotate(70.2935 780.345 611.59)" fill="#5ED1C5" fill-opacity="0.2"/>
<rect x="784.082" y="622.794" width="6" height="6" transform="rotate(75.4898 784.082 622.794)" fill="#5ED1C5" fill-opacity="0.2"/>
<rect x="786.702" y="633.851" width="6" height="6" transform="rotate(80.5167 786.702 633.851)" fill="#5ED1C5" fill-opacity="0.2"/>
<rect x="788.366" y="645.296" width="6" height="6" transform="rotate(85.5798 788.366 645.296)" fill="#5ED1C5" fill-opacity="0.2"/>
<rect x="861.009" y="652.499" width="12" height="12" transform="rotate(90 861.009 652.499)" fill="#5ED1C5"/>
<rect x="860.524" y="673.836" width="12" height="12" transform="rotate(95.9641 860.524 673.836)" fill="#5ED1C5"/>
<rect x="857.754" y="695.343" width="12" height="12" transform="rotate(102.111 857.754 695.343)" fill="#5ED1C5"/>
<rect x="852.762" y="716.185" width="12" height="12" transform="rotate(108.196 852.762 716.185)" fill="#5ED1C5"/>
<rect x="845.452" y="736.697" width="12" height="12" transform="rotate(114.422 845.452 736.697)" fill="#5ED1C5"/>
<rect x="836.215" y="755.831" width="12" height="12" transform="rotate(120.361 836.215 755.831)" fill="#5ED1C5"/>
<rect x="824.813" y="774.201" width="12" height="12" transform="rotate(126.451 824.813 774.201)" fill="#5ED1C5"/>
<rect x="811.384" y="791.435" width="12" height="12" transform="rotate(132.71 811.384 791.435)" fill="#5ED1C5"/>
<rect x="796.401" y="806.913" width="12" height="12" transform="rotate(138.748 796.401 806.913)" fill="#5ED1C5"/>
<rect x="779.854" y="820.734" width="12" height="12" transform="rotate(144.805 779.854 820.734)" fill="#5ED1C5"/>
<rect x="761.92" y="832.736" width="12" height="12" transform="rotate(150.906 761.92 832.736)" fill="#5ED1C5"/>
<rect x="742.799" y="842.771" width="12" height="12" transform="rotate(157.073 742.799 842.771)" fill="#5ED1C5"/>
<rect x="722.757" y="850.673" width="12" height="12" transform="rotate(163.102 722.757 850.673)" fill="#5ED1C5"/>
<rect x="701.955" y="856.398" width="12" height="12" transform="rotate(169.201 701.955 856.398)" fill="#5ED1C5"/>
<rect x="680.656" y="859.877" width="12" height="12" transform="rotate(175.359 680.656 859.877)" fill="#5ED1C5"/>
<rect x="658.338" y="861.069" width="12" height="12" transform="rotate(-178.452 658.338 861.069)" fill="#5ED1C5"/>
<rect x="636.795" y="859.931" width="12" height="12" transform="rotate(-172.274 636.795 859.931)" fill="#5ED1C5"/>
<rect x="615.502" y="856.508" width="12" height="12" transform="rotate(-166.143 615.502 856.508)" fill="#5ED1C5"/>
<rect x="594.725" y="850.828" width="12" height="12" transform="rotate(-160.078 594.725 850.828)" fill="#5ED1C5"/>
<rect x="574.633" y="842.955" width="12" height="12" transform="rotate(-153.874 574.633 842.955)" fill="#5ED1C5"/>
<rect x="555.512" y="832.982" width="12" height="12" transform="rotate(-147.743 555.512 832.982)" fill="#5ED1C5"/>
<rect x="537.578" y="821.043" width="12" height="12" transform="rotate(-141.668 537.578 821.043)" fill="#5ED1C5"/>
<rect x="521.027" y="807.289" width="12" height="12" transform="rotate(-135.625 521.027 807.289)" fill="#5ED1C5"/>
<rect x="506.029" y="791.878" width="12" height="12" transform="rotate(-129.584 506.029 791.878)" fill="#5ED1C5" fill-opacity="0.2"/>
<rect x="492.738" y="774.971" width="12" height="12" transform="rotate(-123.518 492.738 774.971)" fill="#5ED1C5" fill-opacity="0.2"/>
<rect x="481.287" y="756.719" width="12" height="12" transform="rotate(-117.4 481.287 756.719)" fill="#5ED1C5" fill-opacity="0.2"/>
<rect x="471.802" y="737.257" width="12" height="12" transform="rotate(-111.212 471.802 737.257)" fill="#5ED1C5" fill-opacity="0.2"/>
<rect x="464.572" y="717.237" width="12" height="12" transform="rotate(-105.163 464.572 717.237)" fill="#5ED1C5" fill-opacity="0.2"/>
<rect x="459.463" y="696.4" width="12" height="12" transform="rotate(-99.0443 459.463 696.4)" fill="#5ED1C5" fill-opacity="0.2"/>
<rect x="456.567" y="674.792" width="12" height="12" transform="rotate(-92.8742 456.567 674.792)" fill="#5ED1C5" fill-opacity="0.2"/>
<rect x="456.004" y="652.623" width="12" height="12" transform="rotate(-86.6839 456.004 652.623)" fill="#5ED1C5" fill-opacity="0.2"/>
<rect x="457.792" y="630.844" width="12" height="12" transform="rotate(-80.5167 457.792 630.844)" fill="#5ED1C5" fill-opacity="0.2"/>
<rect x="461.813" y="609.784" width="12" height="12" transform="rotate(-74.4029 461.813 609.784)" fill="#5ED1C5" fill-opacity="0.2"/>
<rect x="467.914" y="589.645" width="12" height="12" transform="rotate(-68.3589 467.914 589.645)" fill="#5ED1C5" fill-opacity="0.2"/>
<rect x="476.407" y="569.606" width="12" height="12" transform="rotate(-62.1761 476.407 569.606)" fill="#5ED1C5" fill-opacity="0.2"/>
<rect x="486.905" y="550.759" width="12" height="12" transform="rotate(-56.0625 486.905 550.759)" fill="#5ED1C5" fill-opacity="0.2"/>
<rect x="499.261" y="533.24" width="12" height="12" transform="rotate(-49.9988 499.261 533.24)" fill="#5ED1C5" fill-opacity="0.2"/>
<rect x="513.343" y="517.168" width="12" height="12" transform="rotate(-43.9591 513.343 517.168)" fill="#5ED1C5" fill-opacity="0.2"/>
<rect x="529.034" y="502.655" width="12" height="12" transform="rotate(-37.9144 529.034 502.655)" fill="#5ED1C5" fill-opacity="0.2"/>
<rect x="546.24" y="489.815" width="12" height="12" transform="rotate(-31.8362 546.24 489.815)" fill="#5ED1C5" fill-opacity="0.2"/>
<rect x="564.888" y="478.773" width="12" height="12" transform="rotate(-25.7005 564.888 478.773)" fill="#5ED1C5" fill-opacity="0.2"/>
<rect x="584.927" y="469.675" width="12" height="12" transform="rotate(-19.491 584.927 469.675)" fill="#5ED1C5" fill-opacity="0.2"/>
<rect x="604.879" y="463.063" width="12" height="12" transform="rotate(-13.4211 604.879 463.063)" fill="#5ED1C5" fill-opacity="0.2"/>
<rect x="626.015" y="458.482" width="12" height="12" transform="rotate(-7.28563 626.015 458.482)" fill="#5ED1C5" fill-opacity="0.2"/>
<rect x="648.341" y="456.157" width="12" height="12" transform="rotate(-1.10579 648.341 456.157)" fill="#5ED1C5" fill-opacity="0.2"/>
<rect x="670.333" y="456.239" width="12" height="12" transform="rotate(5.08213 670.333 456.239)" fill="#5ED1C5" fill-opacity="0.2"/>
<rect x="692.104" y="458.677" width="12" height="12" transform="rotate(11.2366 692.104 458.677)" fill="#5ED1C5" fill-opacity="0.2"/>
<rect x="712.836" y="463.266" width="12" height="12" transform="rotate(17.3315 712.836 463.266)" fill="#5ED1C5" fill-opacity="0.2"/>
<rect x="733.847" y="470.38" width="12" height="12" transform="rotate(23.5681 733.847 470.38)" fill="#5ED1C5" fill-opacity="0.2"/>
<rect x="752.405" y="478.917" width="12" height="12" transform="rotate(29.5167 752.405 478.917)" fill="#5ED1C5" fill-opacity="0.2"/>
<rect x="770.983" y="489.954" width="12" height="12" transform="rotate(35.6142 770.983 489.954)" fill="#5ED1C5" fill-opacity="0.2"/>
<rect x="789.156" y="503.66" width="12" height="12" transform="rotate(41.8768 789.156 503.66)" fill="#5ED1C5" fill-opacity="0.2"/>
<rect x="804.764" y="518.311" width="12" height="12" transform="rotate(47.9149 804.764 518.311)" fill="#5ED1C5" fill-opacity="0.2"/>
<rect x="818.778" y="534.559" width="12" height="12" transform="rotate(53.9671 818.778 534.559)" fill="#5ED1C5" fill-opacity="0.2"/>
<rect x="831.064" y="552.295" width="12" height="12" transform="rotate(60.0609 831.064 552.295)" fill="#5ED1C5" fill-opacity="0.2"/>
<rect x="841.469" y="571.396" width="12" height="12" transform="rotate(66.2182 841.469 571.396)" fill="#5ED1C5"/>
<rect x="849.511" y="590.792" width="12" height="12" transform="rotate(72.2358 849.511 590.792)" fill="#5ED1C5"/>
<rect x="855.575" y="611.301" width="12" height="12" transform="rotate(78.3259 855.575 611.301)" fill="#5ED1C5"/>
<rect x="859.478" y="632.748" width="12" height="12" transform="rotate(84.4768 859.478 632.748)" fill="#5ED1C5"/>
<rect x="973.273" y="636.536" width="44" height="44" transform="rotate(90 973.273 636.536)" fill="#5ED1C5" fill-opacity="0.2"/>
<rect x="970.711" y="704.521" width="44" height="44" transform="rotate(102.33 970.711 704.521)" fill="#5ED1C5" fill-opacity="0.2"/>
<rect x="953.531" y="770.621" width="44" height="44" transform="rotate(114.849 953.531 770.621)" fill="#5ED1C5" fill-opacity="0.2"/>
<rect x="922.713" y="830.936" width="44" height="44" transform="rotate(127.079 922.713 830.936)" fill="#5ED1C5" fill-opacity="0.2"/>
<rect x="879.191" y="883.924" width="44" height="44" transform="rotate(139.582 879.191 883.924)" fill="#5ED1C5" fill-opacity="0.2"/>
<rect x="825.594" y="926.079" width="44" height="44" transform="rotate(151.964 825.594 926.079)" fill="#5ED1C5" fill-opacity="0.2"/>
<rect x="764.171" y="955.714" width="44" height="44" transform="rotate(164.403 764.171 955.714)" fill="#5ED1C5" fill-opacity="0.2"/>
<rect x="697.767" y="971.394" width="44" height="44" transform="rotate(176.905 697.767 971.394)" fill="#5ED1C5" fill-opacity="0.2"/>
<rect x="631.325" y="973.346" width="44" height="44" transform="rotate(-170.736 631.325 973.346)" fill="#5ED1C5" fill-opacity="0.2"/>
<rect x="561.678" y="958.529" width="44" height="44" transform="rotate(-158.144 561.678 958.529)" fill="#5ED1C5" fill-opacity="0.2"/>
<rect x="499.45" y="930.618" width="44" height="44" transform="rotate(-145.643 499.45 930.618)" fill="#5ED1C5" fill-opacity="0.2"/>
<rect x="444.834" y="890.067" width="44" height="44" transform="rotate(-133.335 444.834 890.067)" fill="#5ED1C5" fill-opacity="0.2"/>
<rect x="400.146" y="838.832" width="44" height="44" transform="rotate(-120.994 400.146 838.832)" fill="#5ED1C5" fill-opacity="0.2"/>
<rect x="367.247" y="778.771" width="44" height="44" transform="rotate(-108.412 367.247 778.771)" fill="#5ED1C5" fill-opacity="0.2"/>
<rect x="348.272" y="713.424" width="44" height="44" transform="rotate(-95.9641 348.272 713.424)" fill="#5ED1C5" fill-opacity="0.2"/>
<rect x="343.785" y="645.057" width="44" height="44" transform="rotate(-83.5951 343.785 645.057)" fill="#5ED1C5" fill-opacity="0.2"/>
<rect x="354.255" y="576.603" width="44" height="44" transform="rotate(-70.9401 354.255 576.603)" fill="#5ED1C5" fill-opacity="0.2"/>
<rect x="378.554" y="513.881" width="44" height="44" transform="rotate(-58.5849 378.554 513.881)" fill="#5ED1C5" fill-opacity="0.2"/>
<rect x="415.968" y="457.371" width="44" height="44" transform="rotate(-46.249 415.968 457.371)" fill="#5ED1C5" fill-opacity="0.2"/>
<rect x="464.439" y="410.193" width="44" height="44" transform="rotate(-33.9375 464.439 410.193)" fill="#5ED1C5"/>
<rect x="522.829" y="373.949" width="44" height="44" transform="rotate(-21.4265 522.829 373.949)" fill="#5ED1C5"/>
<rect x="588.241" y="351.176" width="44" height="44" transform="rotate(-8.82471 588.241 351.176)" fill="#5ED1C5"/>
<rect x="655.528" y="343.224" width="44" height="44" transform="rotate(3.53697 655.528 343.224)" fill="#5ED1C5"/>
<rect x="723.996" y="349.971" width="44" height="44" transform="rotate(16.0313 723.996 349.971)" fill="#5ED1C5"/>
<rect x="788.317" y="370.958" width="44" height="44" transform="rotate(28.4593 788.317 370.958)" fill="#5ED1C5"/>
<rect x="848.593" y="406.8" width="44" height="44" transform="rotate(41.0434 848.593 406.8)" fill="#5ED1C5"/>
<rect x="897.98" y="453.152" width="44" height="44" transform="rotate(53.3395 897.98 453.152)" fill="#5ED1C5"/>
<rect x="936.707" y="509.58" width="44" height="44" transform="rotate(65.7912 936.707 509.58)" fill="#5ED1C5"/>
<rect x="961.939" y="571.675" width="44" height="44" transform="rotate(78.1072 961.939 571.675)" fill="#5ED1C5" fill-opacity="0.2"/>
<rect x="1022.99" y="655.524" width="6" height="6" transform="rotate(90 1022.99 655.524)" fill="#5ED1C5"/>
<rect x="1022.39" y="679.853" width="6" height="6" transform="rotate(93.7578 1022.39 679.853)" fill="#5ED1C5"/>
<rect x="1020.05" y="705.179" width="6" height="6" transform="rotate(97.7257 1020.05 705.179)" fill="#5ED1C5"/>
<rect x="1015.77" y="731.14" width="6" height="6" transform="rotate(101.893 1015.77 731.14)" fill="#5ED1C5"/>
<rect x="1009.98" y="755.434" width="6" height="6" transform="rotate(105.814 1009.98 755.434)" fill="#5ED1C5"/>
<rect x="1002.24" y="780.079" width="6" height="6" transform="rotate(109.922 1002.24 780.079)" fill="#5ED1C5"/>
<rect x="992.839" y="803.948" width="6" height="6" transform="rotate(113.995 992.839 803.948)" fill="#5ED1C5"/>
<rect x="981.823" y="826.991" width="6" height="6" transform="rotate(118.036 981.823 826.991)" fill="#5ED1C5"/>
<rect x="969.252" y="849.142" width="6" height="6" transform="rotate(122.047 969.252 849.142)" fill="#5ED1C5"/>
<rect x="955.188" y="870.33" width="6" height="6" transform="rotate(126.033 955.188 870.33)" fill="#5ED1C5"/>
<rect x="939.694" y="890.476" width="6" height="6" transform="rotate(130.001 939.694 890.476)" fill="#5ED1C5"/>
<rect x="922.84" y="909.5" width="6" height="6" transform="rotate(133.959 922.84 909.5)" fill="#5ED1C5"/>
<rect x="904.702" y="927.317" width="6" height="6" transform="rotate(137.915 904.702 927.317)" fill="#5ED1C5"/>
<rect x="885.362" y="943.843" width="6" height="6" transform="rotate(141.877 885.362 943.843)" fill="#5ED1C5"/>
<rect x="864.908" y="958.995" width="6" height="6" transform="rotate(145.853 864.908 958.995)" fill="#5ED1C5"/>
<rect x="843.439" y="972.694" width="6" height="6" transform="rotate(149.85 843.439 972.694)" fill="#5ED1C5"/>
<rect x="821.057" y="984.863" width="6" height="6" transform="rotate(153.874 821.057 984.863)" fill="#5ED1C5"/>
<rect x="797.875" y="995.435" width="6" height="6" transform="rotate(157.93 797.875 995.435)" fill="#5ED1C5"/>
<rect x="774.081" y="1004.32" width="6" height="6" transform="rotate(161.804 774.081 1004.32)" fill="#5ED1C5"/>
<rect x="749.631" y="1011.54" width="6" height="6" transform="rotate(165.925 749.631 1011.54)" fill="#5ED1C5"/>
<rect x="724.782" y="1017.01" width="6" height="6" transform="rotate(169.859 724.782 1017.01)" fill="#5ED1C5"/>
<rect x="699.583" y="1020.74" width="6" height="6" transform="rotate(174.036 699.583 1020.74)" fill="#5ED1C5"/>
<rect x="673.71" y="1023.4" width="6" height="6" transform="rotate(178.01 673.71 1023.4)" fill="#5ED1C5"/>
<rect x="647.5" y="1023.4" width="6" height="6" transform="rotate(-178.01 647.5 1023.4)" fill="#5ED1C5"/>
<rect x="621.959" y="1021.22" width="6" height="6" transform="rotate(-174.036 621.959 1021.22)" fill="#5ED1C5"/>
<rect x="596.726" y="1017.82" width="6" height="6" transform="rotate(-169.859 596.726 1017.82)" fill="#5ED1C5"/>
<rect x="571.832" y="1012.67" width="6" height="6" transform="rotate(-165.925 571.832 1012.67)" fill="#5ED1C5"/>
<rect x="547.316" y="1005.77" width="6" height="6" transform="rotate(-161.804 547.316 1005.77)" fill="#5ED1C5"/>
<rect x="523.446" y="997.192" width="6" height="6" transform="rotate(-157.93 523.446 997.192)" fill="#5ED1C5"/>
<rect x="500.166" y="986.94" width="6" height="6" transform="rotate(-153.874 500.166 986.94)" fill="#5ED1C5"/>
<rect x="477.668" y="975.087" width="6" height="6" transform="rotate(-149.85 477.668 975.087)" fill="#5ED1C5"/>
<rect x="456.066" y="961.7" width="6" height="6" transform="rotate(-145.853 456.066 961.7)" fill="#5ED1C5"/>
<rect x="435.461" y="946.854" width="6" height="6" transform="rotate(-141.877 435.461 946.854)" fill="#5ED1C5"/>
<rect x="415.951" y="930.628" width="6" height="6" transform="rotate(-137.915 415.951 930.628)" fill="#5ED1C5"/>
<rect x="397.624" y="913.105" width="6" height="6" transform="rotate(-133.959 397.624 913.105)" fill="#5ED1C5"/>
<rect x="380.56" y="894.369" width="6" height="6" transform="rotate(-130.001 380.56 894.369)" fill="#5ED1C5"/>
<rect x="364.5" y="874.058" width="6" height="6" transform="rotate(-125.824 364.5 874.058)" fill="#5ED1C5"/>
<rect x="350.172" y="853.053" width="6" height="6" transform="rotate(-121.836 350.172 853.053)" fill="#5ED1C5"/>
<rect x="337.323" y="831.065" width="6" height="6" transform="rotate(-117.824 337.323 831.065)" fill="#5ED1C5"/>
<rect x="326.352" y="808.9" width="6" height="6" transform="rotate(-113.995 326.352 808.9)" fill="#5ED1C5"/>
<rect x="316.621" y="785.262" width="6" height="6" transform="rotate(-109.922 316.621 785.262)" fill="#5ED1C5"/>
<rect x="308.536" y="760.833" width="6" height="6" transform="rotate(-105.814 308.536 760.833)" fill="#5ED1C5"/>
<rect x="302.391" y="736.724" width="6" height="6" transform="rotate(-101.893 302.391 736.724)" fill="#5ED1C5"/>
<rect x="297.721" y="710.934" width="6" height="6" transform="rotate(-97.7257 297.721 710.934)" fill="#5ED1C5" fill-opacity="0.2"/>
<rect x="294.982" y="685.747" width="6" height="6" transform="rotate(-93.7578 294.982 685.747)" fill="#5ED1C5" fill-opacity="0.2"/>
<rect x="293.98" y="658.651" width="6" height="6" transform="rotate(-89.5577 293.98 658.651)" fill="#5ED1C5" fill-opacity="0.2"/>
<rect x="294.756" y="634.533" width="6" height="6" transform="rotate(-85.8006 294.756 634.533)" fill="#5ED1C5" fill-opacity="0.2"/>
<rect x="297.252" y="609.459" width="6" height="6" transform="rotate(-81.8345 297.252 609.459)" fill="#5ED1C5" fill-opacity="0.2"/>
<rect x="301.74" y="583.353" width="6" height="6" transform="rotate(-77.6702 301.74 583.353)" fill="#5ED1C5" fill-opacity="0.2"/>
<rect x="307.579" y="559.536" width="6" height="6" transform="rotate(-73.7518 307.579 559.536)" fill="#5ED1C5" fill-opacity="0.2"/>
<rect x="315.515" y="534.795" width="6" height="6" transform="rotate(-69.6478 315.515 534.795)" fill="#5ED1C5" fill-opacity="0.2"/>
<rect x="325.127" y="510.862" width="6" height="6" transform="rotate(-65.5779 325.127 510.862)" fill="#5ED1C5" fill-opacity="0.2"/>
<rect x="336.337" y="487.824" width="6" height="6" transform="rotate(-61.5407 336.337 487.824)" fill="#5ED1C5" fill-opacity="0.2"/>
<rect x="349.063" y="465.757" width="6" height="6" transform="rotate(-57.5327 349.063 465.757)" fill="#5ED1C5" fill-opacity="0.2"/>
<rect x="363.229" y="444.727" width="6" height="6" transform="rotate(-53.5487 363.229 444.727)" fill="#5ED1C5" fill-opacity="0.2"/>
<rect x="378.762" y="424.797" width="6" height="6" transform="rotate(-49.5818 378.762 424.797)" fill="#5ED1C5" fill-opacity="0.2"/>
<rect x="395.594" y="406.023" width="6" height="6" transform="rotate(-45.6245 395.594 406.023)" fill="#5ED1C5" fill-opacity="0.2"/>
<rect x="413.664" y="388.462" width="6" height="6" transform="rotate(-41.6685 413.664 388.462)" fill="#5ED1C5" fill-opacity="0.2"/>
<rect x="432.917" y="372.167" width="6" height="6" transform="rotate(-37.7055 432.917 372.167)" fill="#5ED1C5" fill-opacity="0.2"/>
<rect x="453.305" y="357.197" width="6" height="6" transform="rotate(-33.7277 453.305 357.197)" fill="#5ED1C5" fill-opacity="0.2"/>
<rect x="474.789" y="343.611" width="6" height="6" transform="rotate(-29.7279 474.789 343.611)" fill="#5ED1C5" fill-opacity="0.2"/>
<rect x="497.336" y="331.474" width="6" height="6" transform="rotate(-25.7005 497.336 331.474)" fill="#5ED1C5" fill-opacity="0.2"/>
<rect x="520.921" y="320.861" width="6" height="6" transform="rotate(-21.6411 520.921 320.861)" fill="#5ED1C5" fill-opacity="0.2"/>
<rect x="545.526" y="311.855" width="6" height="6" transform="rotate(-17.5479 545.526 311.855)" fill="#5ED1C5" fill-opacity="0.2"/>
<rect x="568.507" y="305.194" width="6" height="6" transform="rotate(-13.6391 568.507 305.194)" fill="#5ED1C5" fill-opacity="0.2"/>
<rect x="595.017" y="299.52" width="6" height="6" transform="rotate(-9.48335 595.017 299.52)" fill="#5ED1C5" fill-opacity="0.2"/>
<rect x="619.727" y="296.046" width="6" height="6" transform="rotate(-5.52323 619.727 296.046)" fill="#5ED1C5" fill-opacity="0.2"/>
<rect x="645.278" y="294.245" width="6" height="6" transform="rotate(-1.54802 645.278 294.245)" fill="#5ED1C5" fill-opacity="0.2"/>
<rect x="669.944" y="294.173" width="6" height="6" transform="rotate(2.43225 669.944 294.173)" fill="#5ED1C5" fill-opacity="0.2"/>
<rect x="695.356" y="295.838" width="6" height="6" transform="rotate(6.40485 695.356 295.838)" fill="#5ED1C5" fill-opacity="0.2"/>
<rect x="722.67" y="299.641" width="6" height="6" transform="rotate(10.5797 722.67 299.641)" fill="#5ED1C5" fill-opacity="0.2"/>
<rect x="746.419" y="304.679" width="6" height="6" transform="rotate(14.5102 746.419 304.679)" fill="#5ED1C5" fill-opacity="0.2"/>
<rect x="771.907" y="311.999" width="6" height="6" transform="rotate(18.6284 771.907 311.999)" fill="#5ED1C5" fill-opacity="0.2"/>
<rect x="794.021" y="320.025" width="6" height="6" transform="rotate(22.4985 794.021 320.025)" fill="#5ED1C5" fill-opacity="0.2"/>
<rect x="817.662" y="330.496" width="6" height="6" transform="rotate(26.5509 817.662 330.496)" fill="#5ED1C5" fill-opacity="0.2"/>
<rect x="840.295" y="342.505" width="6" height="6" transform="rotate(30.5721 840.295 342.505)" fill="#5ED1C5" fill-opacity="0.2"/>
<rect x="861.892" y="355.982" width="6" height="6" transform="rotate(34.5667 861.892 355.982)" fill="#5ED1C5" fill-opacity="0.2"/>
<rect x="882.413" y="370.865" width="6" height="6" transform="rotate(38.5408 882.413 370.865)" fill="#5ED1C5" fill-opacity="0.2"/>
<rect x="901.814" y="387.096" width="6" height="6" transform="rotate(42.5016 901.814 387.096)" fill="#5ED1C5" fill-opacity="0.2"/>
<rect x="921.594" y="406.24" width="6" height="6" transform="rotate(46.6654 921.594 406.24)" fill="#5ED1C5" fill-opacity="0.2"/>
<rect x="938.436" y="425.054" width="6" height="6" transform="rotate(50.6245 938.436 425.054)" fill="#5ED1C5" fill-opacity="0.2"/>
<rect x="953.979" y="445.036" width="6" height="6" transform="rotate(54.5952 953.979 445.036)" fill="#5ED1C5" fill-opacity="0.2"/>
<rect x="968.152" y="466.128" width="6" height="6" transform="rotate(58.5849 968.152 466.128)" fill="#5ED1C5" fill-opacity="0.2"/>
<rect x="980.883" y="488.269" width="6" height="6" transform="rotate(62.6001 980.883 488.269)" fill="#5ED1C5" fill-opacity="0.2"/>
<rect x="992.09" y="511.39" width="6" height="6" transform="rotate(66.6456 992.09 511.39)" fill="#5ED1C5" fill-opacity="0.2"/>
<rect x="1001.08" y="533.711" width="6" height="6" transform="rotate(70.509 1001.08 533.711)" fill="#5ED1C5" fill-opacity="0.2"/>
<rect x="1009.14" y="558.589" width="6" height="6" transform="rotate(74.6201 1009.14 558.589)" fill="#5ED1C5" fill-opacity="0.2"/>
<rect x="1015.08" y="582.569" width="6" height="6" transform="rotate(78.5446 1015.08 582.569)" fill="#5ED1C5" fill-opacity="0.2"/>
<rect x="1019.65" y="608.84" width="6" height="6" transform="rotate(82.7144 1019.65 608.84)" fill="#5ED1C5" fill-opacity="0.2"/>
<rect x="1022.2" y="634.098" width="6" height="6" transform="rotate(86.6839 1022.2 634.098)" fill="#5ED1C5" fill-opacity="0.2"/>
<rect x="1079" y="653.552" width="10" height="10" transform="rotate(90 1079 653.552)" fill="#5ED1C5"/>
<rect x="1077.22" y="701.187" width="10" height="10" transform="rotate(96.4049 1077.22 701.187)" fill="#5ED1C5"/>
<rect x="1069" y="750.228" width="10" height="10" transform="rotate(103.203 1069 750.228)" fill="#5ED1C5"/>
<rect x="1055.59" y="797.334" width="10" height="10" transform="rotate(109.922 1055.59 797.334)" fill="#5ED1C5"/>
<rect x="1036.88" y="842.253" width="10" height="10" transform="rotate(116.551 1036.88 842.253)" fill="#5ED1C5"/>
<rect x="1012.75" y="885.246" width="10" height="10" transform="rotate(123.308 1012.75 885.246)" fill="#5ED1C5"/>
<rect x="983.892" y="924.961" width="10" height="10" transform="rotate(130.001 983.892 924.961)" fill="#5ED1C5"/>
<rect x="950.992" y="960.682" width="10" height="10" transform="rotate(136.457 950.992 960.682)" fill="#5ED1C5"/>
<rect x="913.814" y="992.72" width="10" height="10" transform="rotate(143.13 913.814 992.72)" fill="#5ED1C5"/>
<rect x="873.194" y="1020.21" width="10" height="10" transform="rotate(149.85 873.194 1020.21)" fill="#5ED1C5"/>
<rect x="829.805" y="1042.7" width="10" height="10" transform="rotate(156.432 829.805 1042.7)" fill="#5ED1C5"/>
<rect x="783.934" y="1060.05" width="10" height="10" transform="rotate(163.318 783.934 1060.05)" fill="#5ED1C5"/>
<rect x="736.493" y="1071.84" width="10" height="10" transform="rotate(169.859 736.493 1071.84)" fill="#5ED1C5"/>
<rect x="687.944" y="1078.06" width="10" height="10" transform="rotate(176.684 687.944 1078.06)" fill="#5ED1C5"/>
<rect x="637.406" y="1078.54" width="10" height="10" transform="rotate(-176.684 637.406 1078.54)" fill="#5ED1C5"/>
<rect x="588.762" y="1073.32" width="10" height="10" transform="rotate(-169.859 588.762 1073.32)" fill="#5ED1C5"/>
<rect x="541.14" y="1062.47" width="10" height="10" transform="rotate(-163.318 541.14 1062.47)" fill="#5ED1C5"/>
<rect x="494.983" y="1046.1" width="10" height="10" transform="rotate(-156.432 494.983 1046.1)" fill="#5ED1C5"/>
<rect x="451.227" y="1024.52" width="10" height="10" transform="rotate(-149.85 451.227 1024.52)" fill="#5ED1C5"/>
<rect x="410.136" y="997.934" width="10" height="10" transform="rotate(-143.13 410.136 997.934)" fill="#5ED1C5"/>
<rect x="372.394" y="966.754" width="10" height="10" transform="rotate(-136.457 372.394 966.754)" fill="#5ED1C5"/>
<rect x="338.859" y="931.813" width="10" height="10" transform="rotate(-130.001 338.859 931.813)" fill="#5ED1C5" fill-opacity="0.2"/>
<rect x="309.245" y="892.851" width="10" height="10" transform="rotate(-123.308 309.245 892.851)" fill="#5ED1C5" fill-opacity="0.2"/>
<rect x="284.26" y="850.543" width="10" height="10" transform="rotate(-116.551 284.26 850.543)" fill="#5ED1C5" fill-opacity="0.2"/>
<rect x="264.63" y="806.21" width="10" height="10" transform="rotate(-109.922 264.63 806.21)" fill="#5ED1C5" fill-opacity="0.2"/>
<rect x="250.194" y="759.599" width="10" height="10" transform="rotate(-103.203 250.194 759.599)" fill="#5ED1C5" fill-opacity="0.2"/>
<rect x="241.2" y="710.916" width="10" height="10" transform="rotate(-96.4049 241.2 710.916)" fill="#5ED1C5" fill-opacity="0.2"/>
<rect x="237.974" y="660.238" width="10" height="10" transform="rotate(-89.5577 237.974 660.238)" fill="#5ED1C5" fill-opacity="0.2"/>
<rect x="240.401" y="613.049" width="10" height="10" transform="rotate(-83.1546 240.401 613.049)" fill="#5ED1C5" fill-opacity="0.2"/>
<rect x="248.624" y="564.074" width="10" height="10" transform="rotate(-76.3609 248.624 564.074)" fill="#5ED1C5" fill-opacity="0.2"/>
<rect x="262.294" y="517.255" width="10" height="10" transform="rotate(-69.6478 262.294 517.255)" fill="#5ED1C5" fill-opacity="0.2"/>
<rect x="280.97" y="473.073" width="10" height="10" transform="rotate(-63.0244 280.97 473.073)" fill="#5ED1C5" fill-opacity="0.2"/>
<rect x="305.507" y="429.887" width="10" height="10" transform="rotate(-56.2723 305.507 429.887)" fill="#5ED1C5" fill-opacity="0.2"/>
<rect x="334.797" y="390.086" width="10" height="10" transform="rotate(-49.5818 334.797 390.086)" fill="#5ED1C5" fill-opacity="0.2"/>
<rect x="368.472" y="354.034" width="10" height="10" transform="rotate(-42.9181 368.472 354.034)" fill="#5ED1C5" fill-opacity="0.2"/>
<rect x="403.99" y="323.734" width="10" height="10" transform="rotate(-36.4513 403.99 323.734)" fill="#5ED1C5" fill-opacity="0.2"/>
<rect x="445.238" y="296.019" width="10" height="10" transform="rotate(-29.7279 445.238 296.019)" fill="#5ED1C5" fill-opacity="0.2"/>
<rect x="490.089" y="273.1" width="10" height="10" transform="rotate(-22.9266 490.089 273.1)" fill="#5ED1C5" fill-opacity="0.2"/>
<rect x="535.437" y="256.31" width="10" height="10" transform="rotate(-16.2482 535.437 256.31)" fill="#5ED1C5" fill-opacity="0.2"/>
<rect x="583.757" y="244.645" width="10" height="10" transform="rotate(-9.48335 583.757 244.645)" fill="#5ED1C5" fill-opacity="0.2"/>
<rect x="631.787" y="238.854" width="10" height="10" transform="rotate(-2.87423 631.787 238.854)" fill="#5ED1C5" fill-opacity="0.2"/>
<rect x="680.055" y="238.543" width="10" height="10" transform="rotate(3.75782 680.055 238.543)" fill="#5ED1C5" fill-opacity="0.2"/>
<rect x="731.024" y="244.25" width="10" height="10" transform="rotate(10.5797 731.024 244.25)" fill="#5ED1C5" fill-opacity="0.2"/>
<rect x="776.238" y="254.704" width="10" height="10" transform="rotate(17.115 776.238 254.704)" fill="#5ED1C5" fill-opacity="0.2"/>
<rect x="824.479" y="272.042" width="10" height="10" transform="rotate(23.9953 824.479 272.042)" fill="#5ED1C5" fill-opacity="0.2"/>
<rect x="866.914" y="293.201" width="10" height="10" transform="rotate(30.5721 866.914 293.201)" fill="#5ED1C5" fill-opacity="0.2"/>
<rect x="908.585" y="320.422" width="10" height="10" transform="rotate(37.2876 908.585 320.422)" fill="#5ED1C5" fill-opacity="0.2"/>
<rect x="946.536" y="352.145" width="10" height="10" transform="rotate(43.9591 946.536 352.145)" fill="#5ED1C5" fill-opacity="0.2"/>
<rect x="980.476" y="388.023" width="10" height="10" transform="rotate(50.6245 980.476 388.023)" fill="#5ED1C5" fill-opacity="0.2"/>
<rect x="1008.76" y="425.73" width="10" height="10" transform="rotate(57.1123 1008.76 425.73)" fill="#5ED1C5" fill-opacity="0.2"/>
<rect x="1033.92" y="468.861" width="10" height="10" transform="rotate(63.8741 1033.92 468.861)" fill="#5ED1C5" fill-opacity="0.2"/>
<rect x="1053.21" y="513.114" width="10" height="10" transform="rotate(70.509 1053.21 513.114)" fill="#5ED1C5" fill-opacity="0.2"/>
<rect x="1067.45" y="560.109" width="10" height="10" transform="rotate(77.2334 1067.45 560.109)" fill="#5ED1C5" fill-opacity="0.2"/>
<rect x="1076.18" y="609.347" width="10" height="10" transform="rotate(84.0359 1076.18 609.347)" fill="#5ED1C5" fill-opacity="0.2"/>
<rect x="1127.02" y="648.564" width="20" height="20" transform="rotate(90 1127.02 648.564)" fill="#5ED1C5"/>
<rect x="1121.12" y="733.745" width="20" height="20" transform="rotate(100.361 1121.12 733.745)" fill="#5ED1C5"/>
<rect x="1099.45" y="817.567" width="20" height="20" transform="rotate(110.997 1099.45 817.567)" fill="#5ED1C5" fill-opacity="0.2"/>
<rect x="1062.54" y="896.065" width="20" height="20" transform="rotate(121.626 1062.54 896.065)" fill="#5ED1C5" fill-opacity="0.2"/>
<rect x="1011.62" y="966.639" width="20" height="20" transform="rotate(132.293 1011.62 966.639)" fill="#5ED1C5" fill-opacity="0.2"/>
<rect x="949.094" y="1026.19" width="20" height="20" transform="rotate(142.712 949.094 1026.19)" fill="#5ED1C5" fill-opacity="0.2"/>
<rect x="876.37" y="1073.55" width="20" height="20" transform="rotate(153.449 876.37 1073.55)" fill="#5ED1C5" fill-opacity="0.2"/>
<rect x="796.452" y="1106.51" width="20" height="20" transform="rotate(163.969 796.452 1106.51)" fill="#5ED1C5" fill-opacity="0.2"/>
<rect x="711.714" y="1124.17" width="20" height="20" transform="rotate(174.697 711.714 1124.17)" fill="#5ED1C5" fill-opacity="0.2"/>
<rect x="623.443" y="1125.85" width="20" height="20" transform="rotate(-174.697 623.443 1125.85)" fill="#5ED1C5" fill-opacity="0.2"/>
<rect x="538.135" y="1111.55" width="20" height="20" transform="rotate(-163.969 538.135 1111.55)" fill="#5ED1C5" fill-opacity="0.2"/>
<rect x="457.111" y="1081.77" width="20" height="20" transform="rotate(-153.449 457.111 1081.77)" fill="#5ED1C5" fill-opacity="0.2"/>
<rect x="382.709" y="1037.44" width="20" height="20" transform="rotate(-142.712 382.709 1037.44)" fill="#5ED1C5" fill-opacity="0.2"/>
<rect x="318.058" y="980.532" width="20" height="20" transform="rotate(-132.293 318.058 980.532)" fill="#5ED1C5" fill-opacity="0.2"/>
<rect x="264.481" y="912.287" width="20" height="20" transform="rotate(-121.626 264.481 912.287)" fill="#5ED1C5" fill-opacity="0.2"/>
<rect x="224.525" y="835.634" width="20" height="20" transform="rotate(-110.997 224.525 835.634)" fill="#5ED1C5" fill-opacity="0.2"/>
<rect x="199.455" y="753.099" width="20" height="20" transform="rotate(-100.361 199.455 753.099)" fill="#5ED1C5" fill-opacity="0.2"/>
<rect x="189.955" y="664.873" width="20" height="20" transform="rotate(-89.5577 189.955 664.873)" fill="#5ED1C5" fill-opacity="0.2"/>
<rect x="196.403" y="580.356" width="20" height="20" transform="rotate(-79.2013 196.403 580.356)" fill="#5ED1C5" fill-opacity="0.2"/>
<rect x="219.187" y="495.169" width="20" height="20" transform="rotate(-68.3589 219.187 495.169)" fill="#5ED1C5"/>
<rect x="256.676" y="417.356" width="20" height="20" transform="rotate(-57.743 256.676 417.356)" fill="#5ED1C5"/>
<rect x="307.001" y="348.651" width="20" height="20" transform="rotate(-47.2901 307.001 348.651)" fill="#5ED1C5"/>
<rect x="370.988" y="288.511" width="20" height="20" transform="rotate(-36.6605 370.988 288.511)" fill="#5ED1C5"/>
<rect x="443.076" y="242.299" width="20" height="20" transform="rotate(-26.1259 443.076 242.299)" fill="#5ED1C5"/>
<rect x="521.179" y="210.367" width="20" height="20" transform="rotate(-15.5971 521.179 210.367)" fill="#5ED1C5"/>
<rect x="607.667" y="192.67" width="20" height="20" transform="rotate(-4.86151 607.667 192.67)" fill="#5ED1C5"/>
<rect x="694.739" y="191.306" width="20" height="20" transform="rotate(5.74371 694.739 191.306)" fill="#5ED1C5"/>
<rect x="781.41" y="206.226" width="20" height="20" transform="rotate(16.465 781.41 206.226)" fill="#5ED1C5"/>
<rect x="863.354" y="236.98" width="20" height="20" transform="rotate(27.1878 863.354 236.98)" fill="#5ED1C5"/>
<rect x="936.543" y="281.295" width="20" height="20" transform="rotate(37.7055 936.543 281.295)" fill="#5ED1C5"/>
<rect x="1000.13" y="337.762" width="20" height="20" transform="rotate(48.1232 1000.13 337.762)" fill="#5ED1C5"/>
<rect x="1054.2" y="407.392" width="20" height="20" transform="rotate(58.7955 1054.2 407.392)" fill="#5ED1C5"/>
<rect x="1093.72" y="484.477" width="20" height="20" transform="rotate(69.4327 1093.72 484.477)" fill="#5ED1C5"/>
<rect x="1118.25" y="567.336" width="20" height="20" transform="rotate(80.0779 1118.25 567.336)" fill="#5ED1C5"/>
<rect x="1212.07" y="633.576" width="50" height="50" transform="rotate(90 1212.07 633.576)" fill="#5ED1C5" fill-opacity="0.2"/>
<rect x="1192.86" y="805.826" width="50" height="50" transform="rotate(107.98 1192.86 805.826)" fill="#5ED1C5" fill-opacity="0.2"/>
<rect x="1121.13" y="963.684" width="50" height="50" transform="rotate(126.033 1121.13 963.684)" fill="#5ED1C5"/>
<rect x="1004.46" y="1091.35" width="50" height="50" transform="rotate(143.758 1004.46 1091.35)" fill="#5ED1C5"/>
<rect x="853.581" y="1177.26" width="50" height="50" transform="rotate(161.804 853.581 1177.26)" fill="#5ED1C5"/>
<rect x="681.393" y="1212.17" width="50" height="50" transform="rotate(-179.779 681.393 1212.17)" fill="#5ED1C5"/>
<rect x="509.185" y="1192.26" width="50" height="50" transform="rotate(-161.804 509.185 1192.26)" fill="#5ED1C5"/>
<rect x="351.658" y="1119.92" width="50" height="50" transform="rotate(-143.758 351.658 1119.92)" fill="#5ED1C5"/>
<rect x="224.118" y="1002.46" width="50" height="50" transform="rotate(-125.824 224.118 1002.46)" fill="#5ED1C5"/>
<rect x="138.992" y="851.409" width="50" height="50" transform="rotate(-107.764 138.992 851.409)" fill="#5ED1C5"/>
<rect x="104.898" y="679.217" width="50" height="50" transform="rotate(-89.5577 104.898 679.217)" fill="#5ED1C5"/>
<rect x="125.373" y="507.44" width="50" height="50" transform="rotate(-71.5876 125.373 507.44)" fill="#5ED1C5"/>
<rect x="198.082" y="350.346" width="50" height="50" transform="rotate(-53.5487 198.082 350.346)" fill="#5ED1C5" fill-opacity="0.2"/>
<rect x="316.156" y="222.954" width="50" height="50" transform="rotate(-35.6142 316.156 222.954)" fill="#5ED1C5" fill-opacity="0.2"/>
<rect x="467.552" y="138.318" width="50" height="50" transform="rotate(-17.5479 467.552 138.318)" fill="#5ED1C5" fill-opacity="0.2"/>
<rect x="640.104" y="104.825" width="50" height="50" transform="rotate(0.663504 640.104 104.825)" fill="#5ED1C5" fill-opacity="0.2"/>
<rect x="811.434" y="125.85" width="50" height="50" transform="rotate(18.6284 811.434 125.85)" fill="#5ED1C5" fill-opacity="0.2"/>
<rect x="968.322" y="199.094" width="50" height="50" transform="rotate(36.6605 968.322 199.094)" fill="#5ED1C5" fill-opacity="0.2"/>
<rect x="1095.42" y="317.719" width="50" height="50" transform="rotate(54.5952 1095.42 317.719)" fill="#5ED1C5" fill-opacity="0.2"/>
<rect x="1179.56" y="469.562" width="50" height="50" transform="rotate(72.6685 1179.56 469.562)" fill="#5ED1C5" fill-opacity="0.2"/>
<rect x="1316" y="652.5" width="12" height="12" transform="rotate(90 1316 652.5)" fill="#5ED1C5"/>
<rect x="1304.94" y="779.352" width="12" height="12" transform="rotate(101.018 1304.94 779.352)" fill="#5ED1C5" fill-opacity="0.2"/>
<rect x="1268.47" y="904.478" width="12" height="12" transform="rotate(112.499 1268.47 904.478)" fill="#5ED1C5" fill-opacity="0.2"/>
<rect x="1208.79" y="1018.51" width="12" height="12" transform="rotate(123.728 1208.79 1018.51)" fill="#5ED1C5" fill-opacity="0.2"/>
<rect x="1127.67" y="1119.18" width="12" height="12" transform="rotate(135 1127.67 1119.18)" fill="#5ED1C5" fill-opacity="0.2"/>
<rect x="1029.03" y="1201.75" width="12" height="12" transform="rotate(146.062 1029.03 1201.75)" fill="#5ED1C5" fill-opacity="0.2"/>
<rect x="915.883" y="1263.72" width="12" height="12" transform="rotate(157.287 915.883 1263.72)" fill="#5ED1C5" fill-opacity="0.2"/>
<rect x="792.697" y="1302.32" width="12" height="12" transform="rotate(168.763 792.697 1302.32)" fill="#5ED1C5" fill-opacity="0.2"/>
<rect x="661.907" y="1316.02" width="12" height="12" transform="rotate(-179.779 661.907 1316.02)" fill="#5ED1C5" fill-opacity="0.2"/>
<rect x="533.601" y="1304.16" width="12" height="12" transform="rotate(-168.763 533.601 1304.16)" fill="#5ED1C5" fill-opacity="0.2"/>
<rect x="409.999" y="1267.44" width="12" height="12" transform="rotate(-157.287 409.999 1267.44)" fill="#5ED1C5" fill-opacity="0.2"/>
<rect x="296.159" y="1207.26" width="12" height="12" transform="rotate(-146.062 296.159 1207.26)" fill="#5ED1C5" fill-opacity="0.2"/>
<rect x="196.015" y="1125.88" width="12" height="12" transform="rotate(-134.792 196.015 1125.88)" fill="#5ED1C5" fill-opacity="0.2"/>
<rect x="114.076" y="1027.3" width="12" height="12" transform="rotate(-123.728 114.076 1027.3)" fill="#5ED1C5" fill-opacity="0.2"/>
<rect x="52.7471" y="914.655" width="12" height="12" transform="rotate(-112.499 52.7471 914.655)" fill="#5ED1C5" fill-opacity="0.2"/>
<rect x="14.2588" y="790.649" width="12" height="12" transform="rotate(-101.018 14.2588 790.649)" fill="#5ED1C5" fill-opacity="0.2"/>
<rect x="0.973633" y="659.318" width="12" height="12" transform="rotate(-89.5577 0.973633 659.318)" fill="#5ED1C5"/>
<rect x="12.8325" y="533.515" width="12" height="12" transform="rotate(-78.5446 12.8325 533.515)" fill="#5ED1C5"/>
<rect x="50.248" y="408.299" width="12" height="12" transform="rotate(-67.0734 50.248 408.299)" fill="#5ED1C5"/>
<rect x="110.224" y="295.404" width="12" height="12" transform="rotate(-55.8527 110.224 295.404)" fill="#5ED1C5"/>
<rect x="192.525" y="194.589" width="12" height="12" transform="rotate(-44.5837 192.525 194.589)" fill="#5ED1C5"/>
<rect x="289.564" y="114.13" width="12" height="12" transform="rotate(-33.5178 289.564 114.13)" fill="#5ED1C5"/>
<rect x="406.006" y="51.1997" width="12" height="12" transform="rotate(-22.07 406.006 51.1997)" fill="#5ED1C5"/>
<rect x="527.986" y="13.9177" width="12" height="12" transform="rotate(-10.7987 527.986 13.9177)" fill="#5ED1C5"/>
<rect x="660.261" y="0.975342" width="12" height="12" transform="rotate(0.663504 660.261 0.975342)" fill="#5ED1C5"/>
<rect x="784.22" y="12.9509" width="12" height="12" transform="rotate(11.6741 784.22 12.9509)" fill="#5ED1C5"/>
<rect x="910.55" y="51.0073" width="12" height="12" transform="rotate(23.1406 910.55 51.0073)" fill="#5ED1C5"/>
<rect x="1023.22" y="111.298" width="12" height="12" transform="rotate(34.3571 1023.22 111.298)" fill="#5ED1C5"/>
<rect x="1124.02" y="194.134" width="12" height="12" transform="rotate(45.6245 1124.02 194.134)" fill="#5ED1C5"/>
<rect x="1204.47" y="291.936" width="12" height="12" transform="rotate(56.6922 1204.47 291.936)" fill="#5ED1C5"/>
<rect x="1266.72" y="408.23" width="12" height="12" transform="rotate(68.1444 1266.72 408.23)" fill="#5ED1C5"/>
<rect x="1303.67" y="530.992" width="12" height="12" transform="rotate(79.4203 1303.67 530.992)" fill="#5ED1C5"/>
<defs>
<clipPath id="clip0_289_63041">
<rect width="134" height="147" fill="white" transform="translate(591.487 584.997)"/>
</clipPath>
</defs>
</svg>
