<svg width="121" height="120" viewBox="0 0 121 120" fill="none" xmlns="http://www.w3.org/2000/svg">
<path d="M97.6625 17.1375V22.875H103.363V80.025H109.063V17.1375H103.363V11.4375H91.925V17.1375H97.6625Z" fill="white"/>
<path d="M103.363 80.025H97.6625V91.425H103.363L103.363 80.025Z" fill="white"/>
<path d="M97.6625 91.425H91.925V97.1625H97.6625L97.6625 91.425Z" fill="white"/>
<path d="M97.6625 22.875H91.925V80.025L97.6625 80.025L97.6625 22.875Z" fill="white"/>
<path d="M91.925 97.1625H86.225V102.863H91.925V97.1625Z" fill="white"/>
<path d="M91.925 80.025L86.225 80.025V91.425H91.925V80.025Z" fill="white"/>
<path d="M86.225 102.863H80.525V108.6H86.225V102.863Z" fill="white"/>
<path d="M86.225 91.425H80.525V97.1625H86.225V91.425Z" fill="white"/>
<path d="M91.925 17.1375H80.525V22.875H91.925V17.1375Z" fill="white"/>
<path d="M91.925 5.7375H80.525V11.4375H91.925L91.925 5.7375Z" fill="white"/>
<path d="M80.525 108.6H69.0875V114.3H80.525V108.6Z" fill="white"/>
<path d="M80.525 97.1625H69.0875V102.863H80.525V97.1625Z" fill="white"/>
<path d="M51.95 51.45V40.0125H46.2125V51.45H40.5125V80.025H46.2125V85.725H74.7875V80.025H80.525V51.45H74.7875V40.0125H69.0875V51.45H51.95ZM63.35 68.5875H57.65V57.15H63.35V68.5875Z" fill="white"/>
<path d="M69.0875 114.3L51.95 114.3V120H69.0875L69.0875 114.3Z" fill="white"/>
<path d="M69.0875 102.863H51.95V108.6H69.0875V102.863Z" fill="white"/>
<path d="M69.0875 34.3125H51.95V40.0125H69.0875L69.0875 34.3125Z" fill="white"/>
<path d="M51.95 108.6H40.5125V114.3L51.95 114.3V108.6Z" fill="white"/>
<path d="M51.95 97.1625H40.5125V102.863H51.95V97.1625Z" fill="white"/>
<path d="M80.525 11.4375H40.5125V17.1375H80.525V11.4375Z" fill="white"/>
<path d="M80.525 0H40.5125V5.7375H80.525V0Z" fill="white"/>
<path d="M40.5125 102.863H34.775V108.6H40.5125V102.863Z" fill="white"/>
<path d="M40.5125 91.425H34.775V97.1625H40.5125V91.425Z" fill="white"/>
<path d="M40.5125 17.1375H29.075V22.875H40.5125L40.5125 17.1375Z" fill="white"/>
<path d="M40.5125 5.7375H29.075V11.4375H40.5125V5.7375Z" fill="white"/>
<path d="M34.775 97.1625H29.075V102.863H34.775V97.1625Z" fill="white"/>
<path d="M34.775 80.025H29.075V91.425H34.775L34.775 80.025Z" fill="white"/>
<path d="M29.075 91.425H23.375V97.1625H29.075V91.425Z" fill="white"/>
<path d="M29.075 22.875H23.375V80.025L29.075 80.025V22.875Z" fill="white"/>
<path d="M29.075 11.4375H17.6375V17.1375H29.075V11.4375Z" fill="white"/>
<path d="M23.375 80.025L17.6375 80.025V91.425H23.375V80.025Z" fill="white"/>
<path d="M17.6375 17.1375H11.9375V80.025H17.6375V17.1375Z" fill="white"/>
</svg>
