<svg width="129" height="96" viewBox="0 0 129 96" fill="none" xmlns="http://www.w3.org/2000/svg">
<g id="Hint_icon">
<path id="Vector 5" opacity="0.8" d="M117.832 22.5254L104.74 4.73535L23.5676 4.73536L10.4754 22.5254L52.3707 91.1444L75.9368 91.1444L117.832 22.5254Z" stroke="url(#paint0_radial_4081_43797)" stroke-width="2.61846"/>
<path id="!" d="M61.5733 35.8904C61.274 35.8904 61.0246 35.9652 60.8251 36.1149C60.6755 36.3144 60.6007 36.5638 60.6007 36.8631V68.2246C60.6007 68.5738 60.6755 68.8232 60.8251 68.9728C61.0246 69.1224 61.274 69.1973 61.5733 69.1973H65.389C65.7382 69.1973 65.9876 69.1224 66.1372 68.9728C66.3367 68.8232 66.4365 68.5738 66.4365 68.2246V36.8631C66.4365 36.5638 66.3367 36.3144 66.1372 36.1149C65.9876 35.9652 65.7382 35.8904 65.389 35.8904H61.5733ZM61.1992 20.8246C60.8999 20.8246 60.6505 20.8994 60.451 21.0491C60.3014 21.2486 60.2266 21.498 60.2266 21.7973V26.9597C60.2266 27.3089 60.3014 27.5582 60.451 27.7079C60.6505 27.8575 60.8999 27.9323 61.1992 27.9323H65.7631C66.1123 27.9323 66.3616 27.8575 66.5113 27.7079C66.7108 27.5582 66.8106 27.3089 66.8106 26.9597V21.7973C66.8106 21.498 66.7108 21.2486 66.5113 21.0491C66.3616 20.8994 66.1123 20.8246 65.7631 20.8246H61.1992Z" fill="white"/>
</g>
<defs>
<radialGradient id="paint0_radial_4081_43797" cx="0" cy="0" r="1" gradientUnits="userSpaceOnUse" gradientTransform="translate(64.5 48) rotate(-90) scale(56.5 80.6358)">
<stop offset="0.249685" stop-color="#5ED1C5"/>
<stop offset="1" stop-color="#5ED1C5" stop-opacity="0"/>
</radialGradient>
</defs>
</svg>
