<svg width="12" height="72" viewBox="0 0 12 72" fill="none" xmlns="http://www.w3.org/2000/svg">
<rect x="9.62109" y="2.54214" width="1.88286" height="1.88286" transform="rotate(-90 9.62109 2.54214)" fill="white" fill-opacity="0.4"/>
<rect x="7.73828" y="4.425" width="1.88286" height="1.88286" transform="rotate(-90 7.73828 4.425)" fill="white" fill-opacity="0.4"/>
<rect x="5.85547" y="6.30786" width="1.88286" height="1.88286" transform="rotate(-90 5.85547 6.30786)" fill="white" fill-opacity="0.4"/>
<rect x="3.97266" y="8.19072" width="1.88286" height="1.88286" transform="rotate(-90 3.97266 8.19072)" fill="white" fill-opacity="0.4"/>
<rect x="2.08984" y="10.0736" width="1.88286" height="1.88286" transform="rotate(-90 2.08984 10.0736)" fill="white" fill-opacity="0.4"/>
<rect x="0.207031" y="11.9564" width="1.88286" height="1.88286" transform="rotate(-90 0.207031 11.9564)" fill="white" fill-opacity="0.4"/>
<rect x="9.62109" y="10.0736" width="1.88286" height="1.88286" transform="rotate(-90 9.62109 10.0736)" fill="white" fill-opacity="0.4"/>
<rect x="7.73828" y="11.9564" width="1.88286" height="1.88286" transform="rotate(-90 7.73828 11.9564)" fill="white" fill-opacity="0.4"/>
<rect x="5.85547" y="13.8393" width="1.88286" height="1.88286" transform="rotate(-90 5.85547 13.8393)" fill="white" fill-opacity="0.4"/>
<rect x="3.97266" y="15.7222" width="1.88286" height="1.88286" transform="rotate(-90 3.97266 15.7222)" fill="white" fill-opacity="0.4"/>
<rect x="2.08984" y="17.605" width="1.88286" height="1.88286" transform="rotate(-90 2.08984 17.605)" fill="white" fill-opacity="0.4"/>
<rect x="0.207031" y="19.4879" width="1.88286" height="1.88286" transform="rotate(-90 0.207031 19.4879)" fill="white" fill-opacity="0.4"/>
<rect x="9.62109" y="17.605" width="1.88286" height="1.88286" transform="rotate(-90 9.62109 17.605)" fill="white" fill-opacity="0.4"/>
<rect x="7.73828" y="19.4879" width="1.88286" height="1.88286" transform="rotate(-90 7.73828 19.4879)" fill="white" fill-opacity="0.4"/>
<rect x="5.85547" y="21.3707" width="1.88286" height="1.88286" transform="rotate(-90 5.85547 21.3707)" fill="white" fill-opacity="0.4"/>
<rect x="3.97266" y="23.2536" width="1.88286" height="1.88286" transform="rotate(-90 3.97266 23.2536)" fill="white" fill-opacity="0.4"/>
<rect x="2.08984" y="25.1364" width="1.88286" height="1.88286" transform="rotate(-90 2.08984 25.1364)" fill="white" fill-opacity="0.4"/>
<rect x="0.207031" y="27.0193" width="1.88286" height="1.88286" transform="rotate(-90 0.207031 27.0193)" fill="white" fill-opacity="0.4"/>
<rect x="9.62109" y="25.1364" width="1.88286" height="1.88286" transform="rotate(-90 9.62109 25.1364)" fill="white" fill-opacity="0.4"/>
<rect x="7.73828" y="27.0193" width="1.88286" height="1.88286" transform="rotate(-90 7.73828 27.0193)" fill="white" fill-opacity="0.4"/>
<rect x="5.85547" y="28.9021" width="1.88286" height="1.88286" transform="rotate(-90 5.85547 28.9021)" fill="white" fill-opacity="0.4"/>
<rect x="3.97266" y="30.785" width="1.88286" height="1.88286" transform="rotate(-90 3.97266 30.785)" fill="white" fill-opacity="0.4"/>
<rect x="2.08984" y="32.6679" width="1.88286" height="1.88286" transform="rotate(-90 2.08984 32.6679)" fill="white" fill-opacity="0.4"/>
<rect x="0.207031" y="34.5507" width="1.88286" height="1.88286" transform="rotate(-90 0.207031 34.5507)" fill="white" fill-opacity="0.4"/>
<rect x="9.62109" y="32.6679" width="1.88286" height="1.88286" transform="rotate(-90 9.62109 32.6679)" fill="white" fill-opacity="0.4"/>
<rect x="7.73828" y="34.5507" width="1.88286" height="1.88286" transform="rotate(-90 7.73828 34.5507)" fill="white" fill-opacity="0.4"/>
<rect x="5.85547" y="36.4336" width="1.88286" height="1.88286" transform="rotate(-90 5.85547 36.4336)" fill="white" fill-opacity="0.4"/>
<rect x="3.97266" y="38.3164" width="1.88286" height="1.88286" transform="rotate(-90 3.97266 38.3164)" fill="white" fill-opacity="0.4"/>
<rect x="2.08984" y="40.1993" width="1.88286" height="1.88286" transform="rotate(-90 2.08984 40.1993)" fill="white" fill-opacity="0.4"/>
<rect x="0.207031" y="42.0822" width="1.88286" height="1.88286" transform="rotate(-90 0.207031 42.0822)" fill="white" fill-opacity="0.4"/>
<rect x="9.62109" y="40.1993" width="1.88286" height="1.88286" transform="rotate(-90 9.62109 40.1993)" fill="white" fill-opacity="0.4"/>
<rect x="7.73828" y="42.0822" width="1.88286" height="1.88286" transform="rotate(-90 7.73828 42.0822)" fill="white" fill-opacity="0.4"/>
<rect x="5.85547" y="43.965" width="1.88286" height="1.88286" transform="rotate(-90 5.85547 43.965)" fill="white" fill-opacity="0.4"/>
<rect x="3.97266" y="45.8479" width="1.88286" height="1.88286" transform="rotate(-90 3.97266 45.8479)" fill="white" fill-opacity="0.4"/>
<rect x="2.08984" y="47.7307" width="1.88286" height="1.88286" transform="rotate(-90 2.08984 47.7307)" fill="white" fill-opacity="0.4"/>
<rect x="0.207031" y="49.6136" width="1.88286" height="1.88286" transform="rotate(-90 0.207031 49.6136)" fill="white" fill-opacity="0.4"/>
<rect x="9.62109" y="47.7307" width="1.88286" height="1.88286" transform="rotate(-90 9.62109 47.7307)" fill="white" fill-opacity="0.4"/>
<rect x="7.73828" y="49.6136" width="1.88286" height="1.88286" transform="rotate(-90 7.73828 49.6136)" fill="white" fill-opacity="0.4"/>
<rect x="5.85547" y="51.4964" width="1.88286" height="1.88286" transform="rotate(-90 5.85547 51.4964)" fill="white" fill-opacity="0.4"/>
<rect x="3.97266" y="53.3793" width="1.88286" height="1.88286" transform="rotate(-90 3.97266 53.3793)" fill="white" fill-opacity="0.4"/>
<rect x="2.08984" y="55.2621" width="1.88286" height="1.88286" transform="rotate(-90 2.08984 55.2621)" fill="white" fill-opacity="0.4"/>
<rect x="0.207031" y="57.145" width="1.88286" height="1.88286" transform="rotate(-90 0.207031 57.145)" fill="white" fill-opacity="0.4"/>
</svg>
