<svg width="11" height="71" viewBox="0 0 11 71" fill="none" xmlns="http://www.w3.org/2000/svg">
<rect x="9" y="2" width="2" height="2" transform="rotate(-90 9 2)" fill="white" fill-opacity="0.4"/>
<rect x="7" y="4" width="2" height="2" transform="rotate(-90 7 4)" fill="white" fill-opacity="0.4"/>
<rect x="5" y="6" width="2" height="2" transform="rotate(-90 5 6)" fill="white" fill-opacity="0.4"/>
<rect x="4" y="7" width="2" height="2" transform="rotate(-90 4 7)" fill="white" fill-opacity="0.4"/>
<rect x="2" y="9" width="2" height="2" transform="rotate(-90 2 9)" fill="white" fill-opacity="0.4"/>
<rect y="11" width="2" height="2" transform="rotate(-90 0 11)" fill="white" fill-opacity="0.4"/>
<rect x="9" y="10" width="2" height="2" transform="rotate(-90 9 10)" fill="white" fill-opacity="0.4"/>
<rect x="7" y="12" width="2" height="2" transform="rotate(-90 7 12)" fill="white" fill-opacity="0.4"/>
<rect x="5" y="14" width="2" height="2" transform="rotate(-90 5 14)" fill="white" fill-opacity="0.4"/>
<rect x="4" y="15" width="2" height="2" transform="rotate(-90 4 15)" fill="white" fill-opacity="0.4"/>
<rect x="2" y="17" width="2" height="2" transform="rotate(-90 2 17)" fill="white" fill-opacity="0.4"/>
<rect y="19" width="2" height="2" transform="rotate(-90 0 19)" fill="white" fill-opacity="0.4"/>
<rect x="9" y="17" width="2" height="2" transform="rotate(-90 9 17)" fill="white" fill-opacity="0.4"/>
<rect x="7" y="19" width="2" height="2" transform="rotate(-90 7 19)" fill="white" fill-opacity="0.4"/>
<rect x="5" y="21" width="2" height="2" transform="rotate(-90 5 21)" fill="white" fill-opacity="0.4"/>
<rect x="4" y="22" width="2" height="2" transform="rotate(-90 4 22)" fill="white" fill-opacity="0.4"/>
<rect x="2" y="24" width="2" height="2" transform="rotate(-90 2 24)" fill="white" fill-opacity="0.4"/>
<rect y="26" width="2" height="2" transform="rotate(-90 0 26)" fill="white" fill-opacity="0.4"/>
<rect x="9" y="25" width="2" height="2" transform="rotate(-90 9 25)" fill="white" fill-opacity="0.4"/>
<rect x="7" y="27" width="2" height="2" transform="rotate(-90 7 27)" fill="white" fill-opacity="0.4"/>
<rect x="5" y="29" width="2" height="2" transform="rotate(-90 5 29)" fill="white" fill-opacity="0.4"/>
<rect x="4" y="30" width="2" height="2" transform="rotate(-90 4 30)" fill="white" fill-opacity="0.4"/>
<rect x="2" y="32" width="2" height="2" transform="rotate(-90 2 32)" fill="white" fill-opacity="0.4"/>
<rect y="34" width="2" height="2" transform="rotate(-90 0 34)" fill="white" fill-opacity="0.4"/>
<rect x="9" y="32" width="2" height="2" transform="rotate(-90 9 32)" fill="white" fill-opacity="0.4"/>
<rect x="7" y="34" width="2" height="2" transform="rotate(-90 7 34)" fill="white" fill-opacity="0.4"/>
<rect x="5" y="35" width="2" height="2" transform="rotate(-90 5 35)" fill="white" fill-opacity="0.4"/>
<rect x="4" y="37" width="2" height="2" transform="rotate(-90 4 37)" fill="white" fill-opacity="0.4"/>
<rect x="2" y="39" width="2" height="2" transform="rotate(-90 2 39)" fill="white" fill-opacity="0.4"/>
<rect y="41" width="2" height="2" transform="rotate(-90 0 41)" fill="white" fill-opacity="0.4"/>
<rect x="9" y="40" width="2" height="2" transform="rotate(-90 9 40)" fill="white" fill-opacity="0.4"/>
<rect x="7" y="42" width="2" height="2" transform="rotate(-90 7 42)" fill="white" fill-opacity="0.4"/>
<rect x="5" y="44" width="2" height="2" transform="rotate(-90 5 44)" fill="white" fill-opacity="0.4"/>
<rect x="4" y="45" width="2" height="2" transform="rotate(-90 4 45)" fill="white" fill-opacity="0.4"/>
<rect x="2" y="47" width="2" height="2" transform="rotate(-90 2 47)" fill="white" fill-opacity="0.4"/>
<rect y="49" width="2" height="2" transform="rotate(-90 0 49)" fill="white" fill-opacity="0.4"/>
<rect x="9" y="47" width="2" height="2" transform="rotate(-90 9 47)" fill="white" fill-opacity="0.4"/>
<rect x="7" y="49" width="2" height="2" transform="rotate(-90 7 49)" fill="white" fill-opacity="0.4"/>
<rect x="5" y="51" width="2" height="2" transform="rotate(-90 5 51)" fill="white" fill-opacity="0.4"/>
<rect x="4" y="52" width="2" height="2" transform="rotate(-90 4 52)" fill="white" fill-opacity="0.4"/>
<rect x="2" y="54" width="2" height="2" transform="rotate(-90 2 54)" fill="white" fill-opacity="0.4"/>
<rect y="56" width="2" height="2" transform="rotate(-90 0 56)" fill="white" fill-opacity="0.4"/>
</svg>
