<svg width="1295" height="58" viewBox="0 0 1295 58" fill="none" xmlns="http://www.w3.org/2000/svg">
<path d="M0 57H452.799L491.231 19M803.769 19L842.201 57H1295" stroke="url(#paint0_linear_2002_4)" stroke-opacity="0.4" stroke-width="0.941429"/>
<path d="M1246 1H1287V42H1246V32.2159V10.7841V1Z" fill="#0F0F0F" stroke="#787878" stroke-width="0.941429"/>
<path d="M1266.06 25.1277C1265.95 25.1277 1265.86 25.1031 1265.8 25.0539C1265.75 24.9924 1265.73 24.9064 1265.73 24.7957V22.0298C1265.73 21.9191 1265.75 21.8392 1265.8 21.7901C1265.86 21.7409 1265.95 21.7163 1266.06 21.7163H1268.48C1268.93 21.7163 1269.26 21.618 1269.45 21.4213C1269.66 21.2123 1269.77 20.8804 1269.77 20.4255V19.1716C1269.77 18.7168 1269.66 18.391 1269.45 18.1943C1269.26 17.9853 1268.93 17.8809 1268.48 17.8809H1265.54C1265.09 17.8809 1264.76 17.9853 1264.55 18.1943C1264.35 18.391 1264.25 18.7168 1264.25 19.1716V19.7064C1264.25 19.8047 1264.23 19.8846 1264.18 19.9461C1264.13 19.9953 1264.05 20.0199 1263.94 20.0199H1262.31C1262.22 20.0199 1262.14 19.9953 1262.07 19.9461C1262.02 19.8846 1262 19.8047 1262 19.7064V19.0979C1262 18.3726 1262.1 17.7825 1262.31 17.3277C1262.54 16.8728 1262.87 16.5409 1263.33 16.3319C1263.78 16.1106 1264.38 16 1265.12 16H1268.9C1269.63 16 1270.22 16.1106 1270.67 16.3319C1271.13 16.5409 1271.46 16.8728 1271.67 17.3277C1271.89 17.7825 1272 18.3726 1272 19.0979V20.3518C1272 21.0771 1271.89 21.6733 1271.67 22.1404C1271.46 22.5953 1271.13 22.9333 1270.67 23.1546C1270.22 23.3636 1269.63 23.4681 1268.9 23.4681H1267.92V24.7957C1267.92 24.9064 1267.9 24.9924 1267.85 25.0539C1267.8 25.1031 1267.72 25.1277 1267.61 25.1277H1266.06ZM1265.97 29C1265.86 29 1265.77 28.9754 1265.71 28.9262C1265.66 28.8648 1265.63 28.7787 1265.63 28.6681V26.9716C1265.63 26.8487 1265.66 26.7626 1265.71 26.7135C1265.77 26.6643 1265.86 26.6397 1265.97 26.6397H1267.7C1267.81 26.6397 1267.89 26.6643 1267.94 26.7135C1267.99 26.7626 1268.01 26.8487 1268.01 26.9716V28.6681C1268.01 28.7787 1267.99 28.8648 1267.94 28.9262C1267.89 28.9754 1267.81 29 1267.7 29H1265.97Z" fill="#787878"/>
<rect x="8.47071" y="0.470714" width="112.059" height="41.0586" stroke="#999A9A" stroke-width="0.941429"/>
<path opacity="0.6" d="M32.1224 18.3378L27.0811 26.0999C26.9957 26.2173 26.905 26.3133 26.809 26.388C26.7237 26.4627 26.601 26.5 26.4409 26.5H24.8405C24.5738 26.5 24.4404 26.3666 24.4404 26.0999V15.6971C24.4404 15.4304 24.5738 15.297 24.8405 15.297H26.0408C26.3076 15.297 26.4409 15.4304 26.4409 15.6971V23.4592H26.5209L31.5623 15.6971C31.6476 15.5797 31.733 15.4837 31.8184 15.409C31.9144 15.3343 32.0424 15.297 32.2025 15.297H33.8029C34.0696 15.297 34.203 15.4304 34.203 15.6971V26.0999C34.203 26.3666 34.0696 26.5 33.8029 26.5H32.6026C32.3358 26.5 32.2025 26.3666 32.2025 26.0999V18.3378H32.1224ZM46.6069 18.5779C46.6069 18.8446 46.4736 18.978 46.2068 18.978H45.0065C44.7398 18.978 44.6064 18.8446 44.6064 18.5779V18.0977C44.6064 17.3509 44.233 16.9774 43.4861 16.9774H39.8851C39.1383 16.9774 38.7648 17.3509 38.7648 18.0977V23.6992C38.7648 24.4461 39.1383 24.8195 39.8851 24.8195H43.4861C44.233 24.8195 44.6064 24.4461 44.6064 23.6992V23.2191C44.6064 22.9524 44.7398 22.819 45.0065 22.819H46.2068C46.4736 22.819 46.6069 22.9524 46.6069 23.2191V23.7793C46.6069 25.6998 45.6467 26.66 43.7262 26.66H39.6451C37.7246 26.66 36.7643 25.6998 36.7643 23.7793V18.0177C36.7643 16.0972 37.7246 15.137 39.6451 15.137H43.7262C45.6467 15.137 46.6069 16.0972 46.6069 18.0177V18.5779ZM53.4031 26.0999C53.4031 26.3666 53.2698 26.5 53.003 26.5H51.8027C51.536 26.5 51.4026 26.3666 51.4026 26.0999V17.1375H48.1217C47.855 17.1375 47.7216 17.0041 47.7216 16.7374V15.6971C47.7216 15.4304 47.855 15.297 48.1217 15.297H56.684C56.9508 15.297 57.0841 15.4304 57.0841 15.6971V16.7374C57.0841 17.0041 56.9508 17.1375 56.684 17.1375H53.4031V26.0999ZM61.2527 26.66C59.3322 26.66 58.372 25.6998 58.372 23.7793V18.0177C58.372 16.0972 59.3322 15.137 61.2527 15.137H65.5739C67.4944 15.137 68.4547 16.0972 68.4547 18.0177V23.7793C68.4547 25.6998 67.4944 26.66 65.5739 26.66H61.2527ZM65.3338 24.8195C66.0807 24.8195 66.4541 24.4461 66.4541 23.6992V18.0977C66.4541 17.3509 66.0807 16.9774 65.3338 16.9774H61.4928C60.7459 16.9774 60.3725 17.3509 60.3725 18.0977V23.6992C60.3725 24.4461 60.7459 24.8195 61.4928 24.8195H65.3338ZM71.016 15.6971C71.016 15.4304 71.1494 15.297 71.4161 15.297H77.4977C79.4182 15.297 80.3785 16.2573 80.3785 18.1778V20.2583C80.3785 22.1788 79.4182 23.1391 77.4977 23.1391H73.0165V26.0999C73.0165 26.3666 72.8831 26.5 72.6164 26.5H71.4161C71.1494 26.5 71.016 26.3666 71.016 26.0999V15.6971ZM73.0165 17.1375V21.2986H77.2577C78.0045 21.2986 78.378 20.9252 78.378 20.1783V18.2578C78.378 17.5109 78.0045 17.1375 77.2577 17.1375H73.0165ZM90.3068 18.3378L85.2654 26.0999C85.1801 26.2173 85.0894 26.3133 84.9934 26.388C84.908 26.4627 84.7853 26.5 84.6253 26.5H83.0248C82.7581 26.5 82.6247 26.3666 82.6247 26.0999V15.6971C82.6247 15.4304 82.7581 15.297 83.0248 15.297H84.2251C84.4919 15.297 84.6253 15.4304 84.6253 15.6971V23.4592H84.7053L89.7466 15.6971C89.832 15.5797 89.9173 15.4837 90.0027 15.409C90.0987 15.3343 90.2268 15.297 90.3868 15.297H91.9872C92.254 15.297 92.3873 15.4304 92.3873 15.6971V26.0999C92.3873 26.3666 92.254 26.5 91.9872 26.5H90.7869C90.5202 26.5 90.3868 26.3666 90.3868 26.0999V18.3378H90.3068ZM104.119 26.0999C104.119 26.3666 103.986 26.5 103.719 26.5H102.519C102.252 26.5 102.119 26.3666 102.119 26.0999V22.819H98.6776L96.9172 26.0999C96.8531 26.2173 96.7678 26.3133 96.6611 26.388C96.5651 26.4627 96.437 26.5 96.277 26.5H94.9166C94.7566 26.5 94.6659 26.4573 94.6446 26.372C94.6232 26.2759 94.6339 26.1852 94.6766 26.0999L96.5971 22.659C96.2663 22.5736 95.9729 22.4189 95.7168 22.1948C95.4928 22.0028 95.2901 21.7307 95.1087 21.3786C94.9273 21.0265 94.8366 20.5464 94.8366 19.9382V18.1778C94.8366 16.2573 95.7969 15.297 97.7174 15.297H103.719C103.986 15.297 104.119 15.4304 104.119 15.6971V26.0999ZM97.9574 17.1375C97.2106 17.1375 96.8371 17.5109 96.8371 18.2578V19.8582C96.8371 20.6051 97.2106 20.9785 97.9574 20.9785H102.119V17.1375H97.9574Z" fill="white"/>
<rect x="132.768" y="0.470714" width="112.059" height="41.0586" stroke="#999A9A" stroke-width="0.941429"/>
<path opacity="0.6" d="M148.737 15.6971C148.737 15.4304 148.871 15.297 149.137 15.297H150.338C150.604 15.297 150.738 15.4304 150.738 15.6971V19.9382H156.179V15.6971C156.179 15.4304 156.313 15.297 156.579 15.297H157.78C158.046 15.297 158.18 15.4304 158.18 15.6971V26.0999C158.18 26.3666 158.046 26.5 157.78 26.5H156.579C156.313 26.5 156.179 26.3666 156.179 26.0999V21.7787H150.738V26.0999C150.738 26.3666 150.604 26.5 150.338 26.5H149.137C148.871 26.5 148.737 26.3666 148.737 26.0999V15.6971ZM163.614 26.66C161.693 26.66 160.733 25.6998 160.733 23.7793V18.0177C160.733 16.0972 161.693 15.137 163.614 15.137H167.935C169.855 15.137 170.816 16.0972 170.816 18.0177V23.7793C170.816 25.6998 169.855 26.66 167.935 26.66H163.614ZM167.695 24.8195C168.442 24.8195 168.815 24.4461 168.815 23.6992V18.0977C168.815 17.3509 168.442 16.9774 167.695 16.9774H163.854C163.107 16.9774 162.734 17.3509 162.734 18.0977V23.6992C162.734 24.4461 163.107 24.8195 163.854 24.8195H167.695ZM180.099 18.2578C180.099 17.5109 179.725 17.1375 178.978 17.1375H175.378V19.6182H178.978C179.725 19.6182 180.099 19.2447 180.099 18.4979V18.2578ZM182.739 23.6192C182.739 25.5397 181.779 26.5 179.859 26.5H173.777C173.51 26.5 173.377 26.3666 173.377 26.0999V15.6971C173.377 15.4304 173.51 15.297 173.777 15.297H179.219C181.139 15.297 182.099 16.2573 182.099 18.1778V18.4979C182.099 18.882 182.041 19.1914 181.923 19.4261C181.806 19.6608 181.678 19.8476 181.539 19.9863C181.368 20.1463 181.182 20.2637 180.979 20.3383V20.4184C181.299 20.4931 181.593 20.6211 181.859 20.8025C182.073 20.9518 182.27 21.1706 182.451 21.4586C182.643 21.7467 182.739 22.1202 182.739 22.5789V23.6192ZM180.739 22.5789C180.739 21.8321 180.366 21.4586 179.619 21.4586H175.378V24.6595H179.619C180.366 24.6595 180.739 24.2861 180.739 23.5392V22.5789ZM187.706 26.66C185.786 26.66 184.826 25.6998 184.826 23.7793V18.0177C184.826 16.0972 185.786 15.137 187.706 15.137H192.028C193.948 15.137 194.908 16.0972 194.908 18.0177V23.7793C194.908 25.6998 193.948 26.66 192.028 26.66H187.706ZM191.788 24.8195C192.534 24.8195 192.908 24.4461 192.908 23.6992V18.0977C192.908 17.3509 192.534 16.9774 191.788 16.9774H187.947C187.2 16.9774 186.826 17.3509 186.826 18.0977V23.6992C186.826 24.4461 187.2 24.8195 187.947 24.8195H191.788ZM207.152 18.5779C207.152 18.8446 207.019 18.978 206.752 18.978H205.552C205.285 18.978 205.152 18.8446 205.152 18.5779V18.0977C205.152 17.3509 204.778 16.9774 204.031 16.9774H200.43C199.684 16.9774 199.31 17.3509 199.31 18.0977V23.6992C199.31 24.4461 199.684 24.8195 200.43 24.8195H204.031C204.778 24.8195 205.152 24.4461 205.152 23.6992V23.2191C205.152 22.9524 205.285 22.819 205.552 22.819H206.752C207.019 22.819 207.152 22.9524 207.152 23.2191V23.7793C207.152 25.6998 206.192 26.66 204.272 26.66H200.19C198.27 26.66 197.31 25.6998 197.31 23.7793V18.0177C197.31 16.0972 198.27 15.137 200.19 15.137H204.272C206.192 15.137 207.152 16.0972 207.152 18.0177V18.5779ZM213.948 26.0999C213.948 26.3666 213.815 26.5 213.548 26.5H212.348C212.081 26.5 211.948 26.3666 211.948 26.0999V17.1375H208.667C208.4 17.1375 208.267 17.0041 208.267 16.7374V15.6971C208.267 15.4304 208.4 15.297 208.667 15.297H217.229C217.496 15.297 217.629 15.4304 217.629 15.6971V16.7374C217.629 17.0041 217.496 17.1375 217.229 17.1375H213.948V26.0999ZM226.759 18.3378L221.718 26.0999C221.633 26.2173 221.542 26.3133 221.446 26.388C221.361 26.4627 221.238 26.5 221.078 26.5H219.477C219.211 26.5 219.077 26.3666 219.077 26.0999V15.6971C219.077 15.4304 219.211 15.297 219.477 15.297H220.678C220.945 15.297 221.078 15.4304 221.078 15.6971V23.4592H221.158L226.199 15.6971C226.285 15.5797 226.37 15.4837 226.455 15.409C226.551 15.3343 226.679 15.297 226.839 15.297H228.44C228.707 15.297 228.84 15.4304 228.84 15.6971V26.0999C228.84 26.3666 228.707 26.5 228.44 26.5H227.24C226.973 26.5 226.839 26.3666 226.839 26.0999V18.3378H226.759Z" fill="white"/>
<path d="M527.616 25.7599C527.616 25.92 527.536 26 527.375 26H526.335C526.175 26 526.095 25.92 526.095 25.7599V15.0531C526.095 14.8824 526.175 14.797 526.335 14.797H533.537C533.697 14.797 533.777 14.877 533.777 15.0371V15.9973C533.777 16.1574 533.697 16.2374 533.537 16.2374H527.616V25.7599ZM532.984 24.7197C533.347 24.7197 533.63 24.6236 533.833 24.4316C534.035 24.2289 534.179 23.9248 534.265 23.5193L536.105 15.0371C536.137 14.877 536.271 14.797 536.505 14.797H542.523C542.576 14.797 542.624 14.8183 542.667 14.861C542.72 14.893 542.747 14.9517 542.747 15.0371V25.7599C542.747 25.92 542.667 26 542.507 26H541.467C541.307 26 541.227 25.92 541.227 25.7599V16.2374H537.386L535.785 23.5193C535.582 24.4369 535.262 25.1091 534.825 25.5359C534.398 25.952 533.785 26.16 532.984 26.16H532.584C532.424 26.16 532.344 26.08 532.344 25.92V24.9597C532.344 24.7997 532.424 24.7197 532.584 24.7197H532.984ZM545.948 17.4377C545.948 15.5705 546.908 14.637 548.829 14.637H552.83C554.75 14.637 555.711 15.5705 555.711 17.4377V23.3593C555.711 25.2265 554.75 26.16 552.83 26.16H548.829C546.908 26.16 545.948 25.2265 545.948 23.3593V17.4377ZM554.19 17.4377C554.19 16.5308 553.737 16.0773 552.83 16.0773H548.829C547.922 16.0773 547.468 16.5308 547.468 17.4377V23.3593C547.468 24.2662 547.922 24.7197 548.829 24.7197H552.83C553.737 24.7197 554.19 24.2662 554.19 23.3593V17.4377ZM560.432 20.3985V24.5596H564.994C565.901 24.5596 566.354 24.1062 566.354 23.1992V21.7589C566.354 20.852 565.901 20.3985 564.994 20.3985H560.432ZM564.994 18.9581C566.914 18.9581 567.874 19.8917 567.874 21.7589V23.1992C567.874 25.0664 566.914 26 564.994 26H559.152C558.992 26 558.912 25.92 558.912 25.7599V15.0371C558.912 14.877 558.992 14.797 559.152 14.797H566.834C566.994 14.797 567.074 14.877 567.074 15.0371V15.9973C567.074 16.1574 567 16.2374 566.85 16.2374H560.432V18.9581H564.994ZM569.354 15.0371C569.312 14.9517 569.306 14.893 569.338 14.861C569.37 14.8183 569.429 14.797 569.514 14.797H570.635C570.752 14.797 570.837 14.8183 570.891 14.861C570.944 14.893 570.992 14.9517 571.035 15.0371L574.236 21.6788H574.316L577.276 15.0371C577.308 14.9517 577.351 14.893 577.404 14.861C577.469 14.8183 577.559 14.797 577.677 14.797H578.797C578.968 14.797 579.021 14.877 578.957 15.0371L575.116 23.4393C574.71 24.3249 574.257 25.0024 573.756 25.4719C573.254 25.9306 572.641 26.16 571.915 26.16H571.435C571.275 26.16 571.195 26.08 571.195 25.92V24.9597C571.195 24.7997 571.275 24.7197 571.435 24.7197H571.915C572.32 24.7197 572.635 24.6183 572.859 24.4156C573.094 24.2129 573.313 23.8874 573.515 23.4393L569.354 15.0371ZM580.437 17.4377C580.437 15.5705 581.397 14.637 583.318 14.637H586.999C588.919 14.637 589.88 15.5705 589.88 17.4377V18.0779C589.88 18.2379 589.8 18.3179 589.64 18.3179H588.599C588.439 18.3179 588.359 18.2379 588.359 18.0779V17.4377C588.359 16.5308 587.906 16.0773 586.999 16.0773H583.318C582.411 16.0773 581.958 16.5308 581.958 17.4377V23.3593C581.958 24.2662 582.411 24.7197 583.318 24.7197H586.999C587.906 24.7197 588.359 24.2662 588.359 23.3593V22.7191C588.359 22.5591 588.439 22.4791 588.599 22.4791H589.64C589.8 22.4791 589.88 22.5591 589.88 22.7191V23.3593C589.88 25.2265 588.919 26.16 586.999 26.16H583.318C581.397 26.16 580.437 25.2265 580.437 23.3593V17.4377Z" fill="white"/>
<path opacity="0.4" d="M707.121 25.7599C707.121 25.92 707.041 26 706.881 26H705.84C705.68 26 705.6 25.92 705.6 25.7599V15.0371C705.6 14.877 705.68 14.797 705.84 14.797H706.881C707.041 14.797 707.121 14.877 707.121 15.0371V19.4382H710.162L712.562 15.0371C712.605 14.9517 712.653 14.893 712.706 14.861C712.76 14.8183 712.845 14.797 712.962 14.797H714.083C714.264 14.797 714.317 14.877 714.243 15.0371L711.442 20.0784L714.563 25.7599C714.638 25.92 714.584 26 714.403 26H713.282C713.165 26 713.08 25.984 713.026 25.952C712.973 25.9093 712.925 25.8453 712.882 25.7599L710.242 20.8786H707.121V25.7599ZM722.475 21.6788L720.587 16.5575H720.523L718.634 21.6788H722.475ZM718.074 23.1192L717.114 25.7599C717.082 25.8453 717.034 25.9093 716.97 25.952C716.916 25.984 716.831 26 716.714 26H715.593C715.423 26 715.369 25.92 715.433 25.7599L719.594 15.0371C719.637 14.9517 719.685 14.893 719.738 14.861C719.792 14.8183 719.877 14.797 719.994 14.797H721.115C721.232 14.797 721.317 14.8183 721.371 14.861C721.424 14.893 721.472 14.9517 721.515 15.0371L725.676 25.7599C725.74 25.92 725.687 26 725.516 26H724.396C724.278 26 724.188 25.984 724.124 25.952C724.07 25.9093 724.027 25.8453 723.995 25.7599L723.035 23.1192H718.074ZM733.711 21.0387C734.618 21.0387 735.071 20.5852 735.071 19.6783V17.5977C735.071 16.6908 734.618 16.2374 733.711 16.2374H729.15V21.0387H733.711ZM729.15 22.4791V25.7599C729.15 25.92 729.07 26 728.91 26H727.87C727.709 26 727.629 25.92 727.629 25.7599V15.0371C727.629 14.877 727.709 14.797 727.87 14.797H733.711C735.632 14.797 736.592 15.7306 736.592 17.5977V19.6783C736.592 21.5455 735.632 22.4791 733.711 22.4791H729.15ZM743.321 25.7599C743.321 25.92 743.241 26 743.081 26H742.041C741.881 26 741.801 25.92 741.801 25.7599V16.2374H738.28C738.12 16.2374 738.04 16.1574 738.04 15.9973V15.0371C738.04 14.877 738.12 14.797 738.28 14.797H746.842C747.002 14.797 747.082 14.877 747.082 15.0371V15.9973C747.082 16.1574 747.002 16.2374 746.842 16.2374H743.321V25.7599ZM753.041 21.6788L751.153 16.5575H751.089L749.2 21.6788H753.041ZM748.64 23.1192L747.68 25.7599C747.648 25.8453 747.6 25.9093 747.536 25.952C747.483 25.984 747.397 26 747.28 26H746.16C745.989 26 745.935 25.92 745.999 25.7599L750.161 15.0371C750.203 14.9517 750.251 14.893 750.305 14.861C750.358 14.8183 750.443 14.797 750.561 14.797H751.681C751.798 14.797 751.884 14.8183 751.937 14.861C751.99 14.893 752.038 14.9517 752.081 15.0371L756.242 25.7599C756.306 25.92 756.253 26 756.082 26H754.962C754.845 26 754.754 25.984 754.69 25.952C754.636 25.9093 754.594 25.8453 754.562 25.7599L753.602 23.1192H748.64Z" fill="white"/>
<rect width="41" height="41" transform="translate(606 1)" fill="#5ED1C5"/>
<path d="M626.5 12C624.621 12 622.784 12.5572 621.222 13.601C619.66 14.6449 618.442 16.1286 617.723 17.8645C617.004 19.6004 616.816 21.5105 617.183 23.3534C617.549 25.1962 618.454 26.8889 619.782 28.2175C621.111 29.5461 622.804 30.4509 624.647 30.8175C626.489 31.184 628.4 30.9959 630.135 30.2769C631.871 29.5578 633.355 28.3402 634.399 26.7779C635.443 25.2156 636 23.3789 636 21.5C635.997 18.9813 634.996 16.5664 633.215 14.7854C631.434 13.0044 629.019 12.0027 626.5 12ZM620.498 26.841L620.728 26.6903C620.929 26.5577 621.094 26.3775 621.209 26.1657C621.323 25.9539 621.384 25.7171 621.385 25.4763L621.404 22.1668L623.318 19.3077C623.328 19.3149 623.338 19.3216 623.348 19.3278L625.144 20.5034C625.446 20.7159 625.816 20.8064 626.181 20.7564L629.058 20.3664C629.412 20.3191 629.737 20.1432 629.971 19.8722L631.996 17.5191C632.223 17.2538 632.347 16.9162 632.346 16.5673V15.9891C633.335 17.0348 634.024 18.327 634.341 19.7304C634.659 21.1339 634.594 22.5969 634.152 23.9663L632.678 22.6181C632.473 22.4299 632.218 22.3042 631.944 22.2557C631.67 22.2071 631.388 22.2378 631.131 22.344L628.349 23.4996C628.116 23.5972 627.913 23.7532 627.758 23.9524C627.603 24.1515 627.502 24.3873 627.465 24.6368L627.246 26.1157C627.194 26.4717 627.275 26.8345 627.473 27.1347C627.671 27.4349 627.973 27.6513 628.321 27.7426L630.282 28.2596L630.497 28.4761C628.897 29.3945 627.028 29.7334 625.207 29.4356C623.386 29.1378 621.722 28.2215 620.498 26.841Z" fill="black"/>
<mask id="path-11-inside-1_2002_4" fill="white">
<path d="M647 1H688V42H647V1Z"/>
</mask>
<path d="M647 1H688V42H647V1Z" fill="#0F0F0F"/>
<path d="M688 1H688.941V0.0585715H688V1ZM688 42V42.9414H688.941V42H688ZM647 1.94143H688V0.0585715H647V1.94143ZM687.059 1V42H688.941V1H687.059ZM688 41.0586H647V42.9414H688V41.0586Z" fill="#787878" mask="url(#path-11-inside-1_2002_4)"/>
<path d="M659.019 16.1262L658.958 17.2827L658.836 17.7027L658.55 18.5013L658.306 18.8799V19.1115L658.224 19.3008L658.286 19.6577L658.183 19.9525L658 20.2256L658.102 20.5411L658.041 21.0459L658.327 21.7183L658.307 22.0554L658.47 22.3078L658.367 22.5178L658.652 23.1488L658.693 23.6111L659.06 23.7788L659.222 24.0312L659.508 24.0943L659.793 24.5359L659.855 24.9776L660.445 25.0614L660.873 25.0821L661.524 25.5869L662.297 26.0069L662.765 26.1124L663.499 26.1962L663.54 25.9862L664.293 26.07L664.396 26.2593L664.62 26.4693L664.681 26.6379L664.967 26.9534L665.049 27.2895L665.252 27.4788L665.578 27.6681L665.74 27.5005L665.965 27.2481L666.351 27.249L666.677 27.5645L666.921 28.1955L667.186 28.9296L667.206 29.2244L667.389 29.5606L667.532 29.6444L667.756 29.7075L668.042 29.7499L668.245 29.813L668.123 29.3082L668.225 28.4272L668.469 28.1541L668.795 27.9017L669.101 27.734L669.426 27.4609L669.732 27.3348L670.017 27.2924L670.404 27.3771L670.751 27.3979L671.056 27.5871L671.301 27.5664L671.463 27.3988L671.728 27.6088L671.809 27.5033L671.606 27.2933L671.565 27.0617L671.748 26.8931L672.074 26.8724L672.338 26.8931L672.563 26.8507L673.031 26.766L673.438 27.0183L674.272 27.8557L674.434 27.7719L674.74 27.9404L675.045 28.1504L675.147 28.8228L675.25 29.0329L675.514 29.3276L675.8 29.7269L676.166 30H676.391L676.493 29.7476V29.3276L676.351 28.8859L676.167 28.5912L675.923 28.0864L675.171 26.6605L675.028 26.2404L675.048 25.8835L675.171 25.5473L675.374 25.3157L675.598 25.0633L675.782 24.7902L675.884 24.5171L676.21 24.3495L676.271 24.1178L676.454 23.9285L676.801 23.7185L676.698 23.5716L676.617 23.4454L676.882 23.403L676.923 23.2137L676.801 22.9821L676.718 22.6647L676.493 22.4961L676.738 22.2861L676.88 21.9292L676.86 21.6344L676.941 21.3613L677.063 21.0459L677.145 20.8358L676.962 20.5835L677.145 20.4573L677.471 20.3735L677.716 20.1418L677.94 19.847L678.143 19.6154L677.919 19.2999L678.021 19.1313L677.899 18.9844L677.98 18.522L678.266 18.3534L678.348 18.0803H678.531L679 17.7018L678.714 17.5756L678.653 17.3656L678.511 17.3232L678.308 16.6715H677.962L677.779 16.6084L677.595 17.0501L677.636 17.4917L677.514 17.8279L677.331 17.9334L677.288 18.0596L676.148 18.3958L675.842 18.7744L675.7 18.9429L675.638 19.1529L674.824 19.426L674.905 19.7622L674.518 20.1615L674.173 20.2463L673.786 20.6248L673.46 20.4986L673.481 20.3301L673.664 20.0984L673.706 19.5305L673.481 18.7527L673.053 18.5426L672.911 18.4165L672.789 18.2479L672.646 18.2272L671.221 17.47L670.915 17.7017L670.671 17.5962L670.406 17.5755L670.203 17.681L670.019 17.5341L669.897 17.5764L669.694 17.3033L669.388 17.4503L669.123 17.3664C669.123 17.3664 668.981 16.904 668.981 16.9672C668.981 17.0303 668.9 17.1988 668.9 17.1988L667.474 17.2412L666.517 17.1574L665.417 17.0943L664.297 16.9888L663.157 16.7788L662.159 16.5895L661.1 16.3579L660.265 16.1686L659.552 16L659.532 16.21L659.47 16.3776L659.019 16.1262Z" fill="#787878"/>
<defs>
<linearGradient id="paint0_linear_2002_4" x1="658.795" y1="57" x2="658.795" y2="19" gradientUnits="userSpaceOnUse">
<stop stop-color="white"/>
<stop offset="1" stop-color="white" stop-opacity="0"/>
</linearGradient>
</defs>
</svg>
