<svg width="57" height="11" viewBox="0 0 57 11" fill="none" xmlns="http://www.w3.org/2000/svg">
<rect width="2" height="2" transform="matrix(1 0 0 -1 54.46 2)" fill="white" fill-opacity="0.4"/>
<rect width="2" height="2" transform="matrix(1 0 0 -1 52.46 4)" fill="white" fill-opacity="0.4"/>
<rect width="2" height="2" transform="matrix(1 0 0 -1 51.46 6)" fill="white" fill-opacity="0.4"/>
<rect width="2" height="2" transform="matrix(1 0 0 -1 49.46 7)" fill="white" fill-opacity="0.4"/>
<rect width="2" height="2" transform="matrix(1 0 0 -1 47.46 9)" fill="white" fill-opacity="0.4"/>
<rect width="2" height="2" transform="matrix(1 0 0 -1 45.46 11)" fill="white" fill-opacity="0.4"/>
<rect width="2" height="2" transform="matrix(1 0 0 -1 46.46 2)" fill="white" fill-opacity="0.4"/>
<rect width="2" height="2" transform="matrix(1 0 0 -1 44.46 4)" fill="white" fill-opacity="0.4"/>
<rect width="2" height="2" transform="matrix(1 0 0 -1 43.46 6)" fill="white" fill-opacity="0.4"/>
<rect width="2" height="2" transform="matrix(1 0 0 -1 41.46 7)" fill="white" fill-opacity="0.4"/>
<rect width="2" height="2" transform="matrix(1 0 0 -1 39.46 9)" fill="white" fill-opacity="0.4"/>
<rect width="2" height="2" transform="matrix(1 0 0 -1 37.46 11)" fill="white" fill-opacity="0.4"/>
<rect width="2" height="2" transform="matrix(1 0 0 -1 39.46 2)" fill="white" fill-opacity="0.4"/>
<rect width="2" height="2" transform="matrix(1 0 0 -1 37.46 4)" fill="white" fill-opacity="0.4"/>
<rect width="2" height="2" transform="matrix(1 0 0 -1 36.46 6)" fill="white" fill-opacity="0.4"/>
<rect width="2" height="2" transform="matrix(1 0 0 -1 34.46 7)" fill="white" fill-opacity="0.4"/>
<rect width="2" height="2" transform="matrix(1 0 0 -1 32.46 9)" fill="white" fill-opacity="0.4"/>
<rect width="2" height="2" transform="matrix(1 0 0 -1 30.46 11)" fill="white" fill-opacity="0.4"/>
<rect width="2" height="2" transform="matrix(1 0 0 -1 31.46 2)" fill="white" fill-opacity="0.4"/>
<rect width="2" height="2" transform="matrix(1 0 0 -1 29.46 4)" fill="white" fill-opacity="0.4"/>
<rect width="2" height="2" transform="matrix(1 0 0 -1 27.46 6)" fill="white" fill-opacity="0.4"/>
<rect width="2" height="2" transform="matrix(1 0 0 -1 26.46 7)" fill="white" fill-opacity="0.4"/>
<rect width="2" height="2" transform="matrix(1 0 0 -1 24.46 9)" fill="white" fill-opacity="0.4"/>
<rect width="2" height="2" transform="matrix(1 0 0 -1 22.46 11)" fill="white" fill-opacity="0.4"/>
<rect width="2" height="2" transform="matrix(1 0 0 -1 24.46 2)" fill="white" fill-opacity="0.4"/>
<rect width="2" height="2" transform="matrix(1 0 0 -1 22.46 4)" fill="white" fill-opacity="0.4"/>
<rect width="2" height="2" transform="matrix(1 0 0 -1 21.46 6)" fill="white" fill-opacity="0.4"/>
<rect width="2" height="2" transform="matrix(1 0 0 -1 19.46 7)" fill="white" fill-opacity="0.4"/>
<rect width="2" height="2" transform="matrix(1 0 0 -1 17.46 9)" fill="white" fill-opacity="0.4"/>
<rect width="2" height="2" transform="matrix(1 0 0 -1 15.46 11)" fill="white" fill-opacity="0.4"/>
</svg>
