<svg xmlns="http://www.w3.org/2000/svg" width="40" height="40" viewBox="0 0 40 40" fill="none">
    <rect width="40" height="40" transform="translate(0 40) rotate(-90)" fill="#0F0F0F"/>
    <path d="M14.0001 31.4993C13.7349 31.4993 13.0001 31.4988 13.0001 31.4988C13.0001 31.4988 13.0001 30.7646 13.0001 30.4994L13.0001 26.4995C13.0001 26.2343 13.0001 25.4995 13.0001 25.4995C13.0001 25.4995 13.7349 25.4995 14.0001 25.4995C14.2653 25.4995 15.0001 25.4995 15.0001 25.4995C15.0001 25.4995 15.0001 26.2343 15.0001 26.4995L15.0001 30.4994C15.0001 30.7646 15.0001 31.4974 15.0001 31.4974C15.0001 31.4974 14.2653 31.4993 14.0001 31.4993ZM25 7.5L25 11.4999L23 11.4999C22.7348 11.4999 22 11.4999 22 11.4999C22 11.4999 22 12.2347 22 12.4999L22 14.4998C22 14.765 22 15.4998 22 15.4998C22 15.4998 22.7348 15.4998 23 15.4998L29 15.4998C29.2652 15.4998 30 15.4998 30 15.4998C30 15.4998 30 14.765 30 14.4998L30 12.4999C30 12.2347 30 11.4999 30 11.4999C30 11.4999 29.2652 11.4999 29 11.4999L27 11.4999L27 7.5L26 7.5L25 7.5ZM25 18.4997L25 30.4994C25 30.7646 25 31.4999 25 31.4999C25 31.4999 25.7348 31.4993 26 31.4993C26.2652 31.4993 27 31.5 27 31.5C27 31.5 27 30.7646 27 30.4994L27 18.4997C27 18.2345 27 17.4997 27 17.4997C27 17.4997 26.2652 17.4997 26 17.4997C25.7348 17.4997 25 17.4997 25 17.4997C25 17.4997 25 18.2345 25 18.4997ZM18.0001 22.4996L18.0001 20.4996C18.0001 20.2344 18.0001 19.4997 18.0001 19.4997C18.0001 19.4997 17.2653 19.4997 17.0001 19.4997L15.0001 19.4997L15.0001 8.49997C15.0001 8.23476 15.0001 7.5 15.0001 7.5C15.0001 7.5 14.2653 7.5 14.0001 7.5C13.7349 7.5 13.0001 7.5 13.0001 7.5C13.0001 7.5 13.0001 8.23476 13.0001 8.49997L13.0001 19.4997L11.0001 19.4997C10.7349 19.4997 10 19.4997 10 19.4997C10 19.4997 10.0001 20.2344 10.0001 20.4996L10.0001 22.4996C10.0001 22.7648 10.0001 23.5002 10.0001 23.5002C10.0001 23.5002 10.7349 23.4996 11.0001 23.4996L17.0001 23.4996C17.2653 23.4996 18.0001 23.4996 18.0001 23.4996C18.0001 23.4996 18.0001 22.7648 18.0001 22.4996Z" fill="white"/>
</svg>