<svg width="120" height="24" viewBox="0 0 120 24" fill="none" xmlns="http://www.w3.org/2000/svg">
<rect width="4" height="4" transform="matrix(1 0 0 -1 116 4)" fill="white" fill-opacity="0.4"/>
<rect width="4" height="4" transform="matrix(1 0 0 -1 112 8)" fill="white" fill-opacity="0.4"/>
<rect width="4" height="4" transform="matrix(1 0 0 -1 108 12)" fill="white" fill-opacity="0.4"/>
<rect width="4" height="4" transform="matrix(1 0 0 -1 104 16)" fill="white" fill-opacity="0.4"/>
<rect width="4" height="4" transform="matrix(1 0 0 -1 100 20)" fill="white" fill-opacity="0.4"/>
<rect width="4" height="4" transform="matrix(1 0 0 -1 96 24)" fill="white" fill-opacity="0.4"/>
<rect width="4" height="4" transform="matrix(1 0 0 -1 100 4)" fill="white" fill-opacity="0.4"/>
<rect width="4" height="4" transform="matrix(1 0 0 -1 96 8)" fill="white" fill-opacity="0.4"/>
<rect width="4" height="4" transform="matrix(1 0 0 -1 92 12)" fill="white" fill-opacity="0.4"/>
<rect width="4" height="4" transform="matrix(1 0 0 -1 88 16)" fill="white" fill-opacity="0.4"/>
<rect width="4" height="4" transform="matrix(1 0 0 -1 84 20)" fill="white" fill-opacity="0.4"/>
<rect width="4" height="4" transform="matrix(1 0 0 -1 80 24)" fill="white" fill-opacity="0.4"/>
<rect width="4" height="4" transform="matrix(1 0 0 -1 84 4)" fill="white" fill-opacity="0.4"/>
<rect width="4" height="4" transform="matrix(1 0 0 -1 80 8)" fill="white" fill-opacity="0.4"/>
<rect width="4" height="4" transform="matrix(1 0 0 -1 76 12)" fill="white" fill-opacity="0.4"/>
<rect width="4" height="4" transform="matrix(1 0 0 -1 72 16)" fill="white" fill-opacity="0.4"/>
<rect width="4" height="4" transform="matrix(1 0 0 -1 68 20)" fill="white" fill-opacity="0.4"/>
<rect width="4" height="4" transform="matrix(1 0 0 -1 64 24)" fill="white" fill-opacity="0.4"/>
<rect width="4" height="4" transform="matrix(1 0 0 -1 68 4)" fill="white" fill-opacity="0.4"/>
<rect width="4" height="4" transform="matrix(1 0 0 -1 64 8)" fill="white" fill-opacity="0.4"/>
<rect width="4" height="4" transform="matrix(1 0 0 -1 60 12)" fill="white" fill-opacity="0.4"/>
<rect width="4" height="4" transform="matrix(1 0 0 -1 56 16)" fill="white" fill-opacity="0.4"/>
<rect width="4" height="4" transform="matrix(1 0 0 -1 52 20)" fill="white" fill-opacity="0.4"/>
<rect width="4" height="4" transform="matrix(1 0 0 -1 48 24)" fill="white" fill-opacity="0.4"/>
<rect width="4" height="4" transform="matrix(1 0 0 -1 52 4)" fill="white" fill-opacity="0.4"/>
<rect width="4" height="4" transform="matrix(1 0 0 -1 48 8)" fill="white" fill-opacity="0.4"/>
<rect width="4" height="4" transform="matrix(1 0 0 -1 44 12)" fill="white" fill-opacity="0.4"/>
<rect width="4" height="4" transform="matrix(1 0 0 -1 40 16)" fill="white" fill-opacity="0.4"/>
<rect width="4" height="4" transform="matrix(1 0 0 -1 36 20)" fill="white" fill-opacity="0.4"/>
<rect width="4" height="4" transform="matrix(1 0 0 -1 32 24)" fill="white" fill-opacity="0.4"/>
</svg>
